<mxfile host="app.diagrams.net" modified="2021-04-10T10:37:55.518Z" agent="5.0 (Macintosh; Intel Mac OS X 11_2_1) AppleWebKit/537.36 (KHTML, like Gecko) Chrome/88.0.4324.182 Safari/537.36 Edg/88.0.705.74" etag="Cl5zLZVjhmvXiWxgYHsM" version="14.5.8" type="github">
  <diagram id="xyd3q2GVoSqCuVM3N67m" name="第 1 页">
    <mxGraphModel dx="2965" dy="1790" grid="0" gridSize="10" guides="1" tooltips="1" connect="1" arrows="1" fold="1" page="1" pageScale="1" pageWidth="9999900" pageHeight="9999900" math="0" shadow="0">
      <root>
        <mxCell id="0" />
        <mxCell id="1" parent="0" />
        <mxCell id="2PzDrXG9zK0gIluA2ejx-1" value="" style="rounded=0;whiteSpace=wrap;html=1;" parent="1" vertex="1">
          <mxGeometry x="280" y="240" width="120" height="120" as="geometry" />
        </mxCell>
        <mxCell id="2PzDrXG9zK0gIluA2ejx-2" value="" style="endArrow=none;html=1;exitX=0;exitY=0.333;exitDx=0;exitDy=0;exitPerimeter=0;" parent="1" source="2PzDrXG9zK0gIluA2ejx-1" edge="1">
          <mxGeometry width="50" height="50" relative="1" as="geometry">
            <mxPoint x="430" y="310" as="sourcePoint" />
            <mxPoint x="400" y="280" as="targetPoint" />
          </mxGeometry>
        </mxCell>
        <mxCell id="2PzDrXG9zK0gIluA2ejx-3" value="" style="endArrow=none;html=1;exitX=0;exitY=0.333;exitDx=0;exitDy=0;exitPerimeter=0;" parent="1" edge="1">
          <mxGeometry width="50" height="50" relative="1" as="geometry">
            <mxPoint x="280" y="320.00000000000006" as="sourcePoint" />
            <mxPoint x="400" y="320.04" as="targetPoint" />
          </mxGeometry>
        </mxCell>
        <mxCell id="2PzDrXG9zK0gIluA2ejx-4" value="+start()&lt;br&gt;+stop()" style="text;html=1;strokeColor=none;fillColor=none;align=center;verticalAlign=middle;whiteSpace=wrap;rounded=0;fontSize=16;" parent="1" vertex="1">
          <mxGeometry x="290" y="320" width="90" height="40" as="geometry" />
        </mxCell>
        <mxCell id="2PzDrXG9zK0gIluA2ejx-25" value="Server" style="text;html=1;strokeColor=none;fillColor=none;align=center;verticalAlign=middle;whiteSpace=wrap;rounded=0;fontSize=16;" parent="1" vertex="1">
          <mxGeometry x="310" y="240" width="60" height="40" as="geometry" />
        </mxCell>
        <mxCell id="2PzDrXG9zK0gIluA2ejx-26" value="&lt;span style=&quot;color: rgb(0 , 0 , 0) ; font-family: &amp;#34;helvetica&amp;#34; ; font-size: 16px ; font-style: normal ; font-weight: 400 ; letter-spacing: normal ; text-align: center ; text-indent: 0px ; text-transform: none ; word-spacing: 0px ; background-color: rgb(248 , 249 , 250) ; display: inline ; float: none&quot;&gt;一个&lt;/span&gt;" style="rounded=0;whiteSpace=wrap;html=1;" parent="1" vertex="1">
          <mxGeometry x="640" y="240" width="120" height="120" as="geometry" />
        </mxCell>
        <mxCell id="2PzDrXG9zK0gIluA2ejx-27" value="" style="endArrow=none;html=1;exitX=0;exitY=0.333;exitDx=0;exitDy=0;exitPerimeter=0;" parent="1" source="2PzDrXG9zK0gIluA2ejx-26" edge="1">
          <mxGeometry width="50" height="50" relative="1" as="geometry">
            <mxPoint x="790" y="310" as="sourcePoint" />
            <mxPoint x="760" y="280" as="targetPoint" />
          </mxGeometry>
        </mxCell>
        <mxCell id="2PzDrXG9zK0gIluA2ejx-28" value="" style="endArrow=none;html=1;exitX=0;exitY=0.333;exitDx=0;exitDy=0;exitPerimeter=0;" parent="1" edge="1">
          <mxGeometry width="50" height="50" relative="1" as="geometry">
            <mxPoint x="640" y="320" as="sourcePoint" />
            <mxPoint x="760" y="320.03999999999996" as="targetPoint" />
          </mxGeometry>
        </mxCell>
        <mxCell id="2PzDrXG9zK0gIluA2ejx-29" value="+start()&lt;br&gt;+stop()" style="text;html=1;strokeColor=none;fillColor=none;align=center;verticalAlign=middle;whiteSpace=wrap;rounded=0;fontSize=16;" parent="1" vertex="1">
          <mxGeometry x="650" y="320" width="90" height="40" as="geometry" />
        </mxCell>
        <mxCell id="2PzDrXG9zK0gIluA2ejx-30" value="Server" style="text;html=1;strokeColor=none;fillColor=none;align=center;verticalAlign=middle;whiteSpace=wrap;rounded=0;fontSize=16;" parent="1" vertex="1">
          <mxGeometry x="670" y="240" width="60" height="40" as="geometry" />
        </mxCell>
        <mxCell id="2PzDrXG9zK0gIluA2ejx-52" value="&lt;span style=&quot;font-size: 16px&quot;&gt;多个&lt;/span&gt;" style="rounded=0;whiteSpace=wrap;html=1;" parent="1" vertex="1">
          <mxGeometry x="800" y="360" width="120" height="120" as="geometry" />
        </mxCell>
        <mxCell id="2PzDrXG9zK0gIluA2ejx-53" value="" style="endArrow=none;html=1;exitX=0;exitY=0.333;exitDx=0;exitDy=0;exitPerimeter=0;" parent="1" source="2PzDrXG9zK0gIluA2ejx-52" edge="1">
          <mxGeometry width="50" height="50" relative="1" as="geometry">
            <mxPoint x="950" y="430" as="sourcePoint" />
            <mxPoint x="920" y="400" as="targetPoint" />
          </mxGeometry>
        </mxCell>
        <mxCell id="2PzDrXG9zK0gIluA2ejx-54" value="" style="endArrow=none;html=1;exitX=0;exitY=0.333;exitDx=0;exitDy=0;exitPerimeter=0;" parent="1" edge="1">
          <mxGeometry width="50" height="50" relative="1" as="geometry">
            <mxPoint x="800" y="440" as="sourcePoint" />
            <mxPoint x="920" y="440.03999999999996" as="targetPoint" />
          </mxGeometry>
        </mxCell>
        <mxCell id="2PzDrXG9zK0gIluA2ejx-55" value="+start()&lt;br&gt;+stop()" style="text;html=1;strokeColor=none;fillColor=none;align=center;verticalAlign=middle;whiteSpace=wrap;rounded=0;fontSize=16;" parent="1" vertex="1">
          <mxGeometry x="810" y="440" width="90" height="40" as="geometry" />
        </mxCell>
        <mxCell id="2PzDrXG9zK0gIluA2ejx-64" style="edgeStyle=orthogonalEdgeStyle;rounded=0;orthogonalLoop=1;jettySize=auto;html=1;entryX=1;entryY=0.5;entryDx=0;entryDy=0;fontSize=16;exitX=0.5;exitY=0;exitDx=0;exitDy=0;" parent="1" source="2PzDrXG9zK0gIluA2ejx-56" target="2PzDrXG9zK0gIluA2ejx-26" edge="1">
          <mxGeometry relative="1" as="geometry">
            <Array as="points">
              <mxPoint x="860" y="300" />
            </Array>
          </mxGeometry>
        </mxCell>
        <mxCell id="2PzDrXG9zK0gIluA2ejx-56" value="Container" style="text;html=1;strokeColor=none;fillColor=none;align=center;verticalAlign=middle;whiteSpace=wrap;rounded=0;fontSize=16;" parent="1" vertex="1">
          <mxGeometry x="830" y="360" width="60" height="40" as="geometry" />
        </mxCell>
        <mxCell id="2PzDrXG9zK0gIluA2ejx-57" value="&lt;font style=&quot;font-size: 16px&quot;&gt;多个&lt;/font&gt;" style="rounded=0;whiteSpace=wrap;html=1;" parent="1" vertex="1">
          <mxGeometry x="480" y="360" width="120" height="120" as="geometry" />
        </mxCell>
        <mxCell id="2PzDrXG9zK0gIluA2ejx-58" value="" style="endArrow=none;html=1;exitX=0;exitY=0.333;exitDx=0;exitDy=0;exitPerimeter=0;" parent="1" source="2PzDrXG9zK0gIluA2ejx-57" edge="1">
          <mxGeometry width="50" height="50" relative="1" as="geometry">
            <mxPoint x="630" y="430" as="sourcePoint" />
            <mxPoint x="600" y="400" as="targetPoint" />
          </mxGeometry>
        </mxCell>
        <mxCell id="2PzDrXG9zK0gIluA2ejx-59" value="" style="endArrow=none;html=1;exitX=0;exitY=0.333;exitDx=0;exitDy=0;exitPerimeter=0;" parent="1" edge="1">
          <mxGeometry width="50" height="50" relative="1" as="geometry">
            <mxPoint x="480" y="440" as="sourcePoint" />
            <mxPoint x="600" y="440.03999999999996" as="targetPoint" />
          </mxGeometry>
        </mxCell>
        <mxCell id="2PzDrXG9zK0gIluA2ejx-60" value="+start()&lt;br&gt;+stop()" style="text;html=1;strokeColor=none;fillColor=none;align=center;verticalAlign=middle;whiteSpace=wrap;rounded=0;fontSize=16;" parent="1" vertex="1">
          <mxGeometry x="490" y="440" width="90" height="40" as="geometry" />
        </mxCell>
        <mxCell id="2PzDrXG9zK0gIluA2ejx-63" style="edgeStyle=orthogonalEdgeStyle;rounded=0;orthogonalLoop=1;jettySize=auto;html=1;entryX=0;entryY=0.5;entryDx=0;entryDy=0;fontSize=16;" parent="1" source="2PzDrXG9zK0gIluA2ejx-61" target="2PzDrXG9zK0gIluA2ejx-26" edge="1">
          <mxGeometry relative="1" as="geometry">
            <Array as="points">
              <mxPoint x="540" y="300" />
            </Array>
          </mxGeometry>
        </mxCell>
        <mxCell id="2PzDrXG9zK0gIluA2ejx-61" value="Connector" style="text;html=1;strokeColor=none;fillColor=none;align=center;verticalAlign=middle;whiteSpace=wrap;rounded=0;fontSize=16;" parent="1" vertex="1">
          <mxGeometry x="510" y="360" width="60" height="40" as="geometry" />
        </mxCell>
        <mxCell id="2PzDrXG9zK0gIluA2ejx-117" value="" style="edgeStyle=orthogonalEdgeStyle;rounded=0;orthogonalLoop=1;jettySize=auto;html=1;fontSize=16;entryX=0.5;entryY=1;entryDx=0;entryDy=0;" parent="1" source="2PzDrXG9zK0gIluA2ejx-88" target="2PzDrXG9zK0gIluA2ejx-112" edge="1">
          <mxGeometry relative="1" as="geometry" />
        </mxCell>
        <mxCell id="2PzDrXG9zK0gIluA2ejx-88" value="&lt;span style=&quot;color: rgb(0 , 0 , 0) ; font-family: &amp;#34;helvetica&amp;#34; ; font-size: 16px ; font-style: normal ; font-weight: 400 ; letter-spacing: normal ; text-align: center ; text-indent: 0px ; text-transform: none ; word-spacing: 0px ; background-color: rgb(248 , 249 , 250) ; display: inline ; float: none&quot;&gt;多个&lt;/span&gt;" style="rounded=0;whiteSpace=wrap;html=1;" parent="1" vertex="1">
          <mxGeometry x="1200" y="240" width="120" height="120" as="geometry" />
        </mxCell>
        <mxCell id="2PzDrXG9zK0gIluA2ejx-89" value="" style="endArrow=none;html=1;exitX=0;exitY=0.333;exitDx=0;exitDy=0;exitPerimeter=0;" parent="1" source="2PzDrXG9zK0gIluA2ejx-88" edge="1">
          <mxGeometry width="50" height="50" relative="1" as="geometry">
            <mxPoint x="1350" y="310" as="sourcePoint" />
            <mxPoint x="1320" y="280" as="targetPoint" />
          </mxGeometry>
        </mxCell>
        <mxCell id="2PzDrXG9zK0gIluA2ejx-90" value="" style="endArrow=none;html=1;exitX=0;exitY=0.333;exitDx=0;exitDy=0;exitPerimeter=0;" parent="1" edge="1">
          <mxGeometry width="50" height="50" relative="1" as="geometry">
            <mxPoint x="1200" y="320" as="sourcePoint" />
            <mxPoint x="1320" y="320.03999999999996" as="targetPoint" />
          </mxGeometry>
        </mxCell>
        <mxCell id="2PzDrXG9zK0gIluA2ejx-91" value="+start()&lt;br&gt;+stop()" style="text;html=1;strokeColor=none;fillColor=none;align=center;verticalAlign=middle;whiteSpace=wrap;rounded=0;fontSize=16;" parent="1" vertex="1">
          <mxGeometry x="1210" y="320" width="90" height="40" as="geometry" />
        </mxCell>
        <mxCell id="2PzDrXG9zK0gIluA2ejx-92" value="Server" style="text;html=1;strokeColor=none;fillColor=none;align=center;verticalAlign=middle;whiteSpace=wrap;rounded=0;fontSize=16;" parent="1" vertex="1">
          <mxGeometry x="1230" y="240" width="60" height="40" as="geometry" />
        </mxCell>
        <mxCell id="2PzDrXG9zK0gIluA2ejx-93" value="&lt;span style=&quot;font-size: 16px&quot;&gt;一个&lt;/span&gt;" style="rounded=0;whiteSpace=wrap;html=1;" parent="1" vertex="1">
          <mxGeometry x="1360" y="360" width="120" height="120" as="geometry" />
        </mxCell>
        <mxCell id="2PzDrXG9zK0gIluA2ejx-94" value="" style="endArrow=none;html=1;exitX=0;exitY=0.333;exitDx=0;exitDy=0;exitPerimeter=0;" parent="1" source="2PzDrXG9zK0gIluA2ejx-93" edge="1">
          <mxGeometry width="50" height="50" relative="1" as="geometry">
            <mxPoint x="1510" y="430" as="sourcePoint" />
            <mxPoint x="1480" y="400" as="targetPoint" />
          </mxGeometry>
        </mxCell>
        <mxCell id="2PzDrXG9zK0gIluA2ejx-95" value="" style="endArrow=none;html=1;exitX=0;exitY=0.333;exitDx=0;exitDy=0;exitPerimeter=0;" parent="1" edge="1">
          <mxGeometry width="50" height="50" relative="1" as="geometry">
            <mxPoint x="1360" y="440" as="sourcePoint" />
            <mxPoint x="1480" y="440.03999999999996" as="targetPoint" />
          </mxGeometry>
        </mxCell>
        <mxCell id="2PzDrXG9zK0gIluA2ejx-96" value="+start()&lt;br&gt;+stop()" style="text;html=1;strokeColor=none;fillColor=none;align=center;verticalAlign=middle;whiteSpace=wrap;rounded=0;fontSize=16;" parent="1" vertex="1">
          <mxGeometry x="1370" y="440" width="90" height="40" as="geometry" />
        </mxCell>
        <mxCell id="2PzDrXG9zK0gIluA2ejx-97" style="edgeStyle=orthogonalEdgeStyle;rounded=0;orthogonalLoop=1;jettySize=auto;html=1;entryX=1;entryY=0.5;entryDx=0;entryDy=0;fontSize=16;exitX=0.5;exitY=0;exitDx=0;exitDy=0;" parent="1" source="2PzDrXG9zK0gIluA2ejx-98" target="2PzDrXG9zK0gIluA2ejx-88" edge="1">
          <mxGeometry relative="1" as="geometry">
            <Array as="points">
              <mxPoint x="1420" y="300" />
            </Array>
          </mxGeometry>
        </mxCell>
        <mxCell id="2PzDrXG9zK0gIluA2ejx-98" value="Container" style="text;html=1;strokeColor=none;fillColor=none;align=center;verticalAlign=middle;whiteSpace=wrap;rounded=0;fontSize=16;" parent="1" vertex="1">
          <mxGeometry x="1390" y="360" width="60" height="40" as="geometry" />
        </mxCell>
        <mxCell id="2PzDrXG9zK0gIluA2ejx-99" value="&lt;font style=&quot;font-size: 16px&quot;&gt;多个&lt;/font&gt;" style="rounded=0;whiteSpace=wrap;html=1;" parent="1" vertex="1">
          <mxGeometry x="1040" y="360" width="120" height="120" as="geometry" />
        </mxCell>
        <mxCell id="2PzDrXG9zK0gIluA2ejx-100" value="" style="endArrow=none;html=1;exitX=0;exitY=0.333;exitDx=0;exitDy=0;exitPerimeter=0;" parent="1" source="2PzDrXG9zK0gIluA2ejx-99" edge="1">
          <mxGeometry width="50" height="50" relative="1" as="geometry">
            <mxPoint x="1190" y="430" as="sourcePoint" />
            <mxPoint x="1160" y="400" as="targetPoint" />
          </mxGeometry>
        </mxCell>
        <mxCell id="2PzDrXG9zK0gIluA2ejx-101" value="" style="endArrow=none;html=1;exitX=0;exitY=0.333;exitDx=0;exitDy=0;exitPerimeter=0;" parent="1" edge="1">
          <mxGeometry width="50" height="50" relative="1" as="geometry">
            <mxPoint x="1040" y="440" as="sourcePoint" />
            <mxPoint x="1160" y="440.03999999999996" as="targetPoint" />
          </mxGeometry>
        </mxCell>
        <mxCell id="2PzDrXG9zK0gIluA2ejx-102" value="+start()&lt;br&gt;+stop()" style="text;html=1;strokeColor=none;fillColor=none;align=center;verticalAlign=middle;whiteSpace=wrap;rounded=0;fontSize=16;" parent="1" vertex="1">
          <mxGeometry x="1050" y="440" width="90" height="40" as="geometry" />
        </mxCell>
        <mxCell id="2PzDrXG9zK0gIluA2ejx-103" style="edgeStyle=orthogonalEdgeStyle;rounded=0;orthogonalLoop=1;jettySize=auto;html=1;entryX=0;entryY=0.5;entryDx=0;entryDy=0;fontSize=16;" parent="1" source="2PzDrXG9zK0gIluA2ejx-104" target="2PzDrXG9zK0gIluA2ejx-88" edge="1">
          <mxGeometry relative="1" as="geometry">
            <Array as="points">
              <mxPoint x="1100" y="300" />
            </Array>
          </mxGeometry>
        </mxCell>
        <mxCell id="2PzDrXG9zK0gIluA2ejx-104" value="Connector" style="text;html=1;strokeColor=none;fillColor=none;align=center;verticalAlign=middle;whiteSpace=wrap;rounded=0;fontSize=16;" parent="1" vertex="1">
          <mxGeometry x="1070" y="360" width="60" height="40" as="geometry" />
        </mxCell>
        <mxCell id="2PzDrXG9zK0gIluA2ejx-112" value="&lt;span style=&quot;color: rgb(0 , 0 , 0) ; font-family: &amp;#34;helvetica&amp;#34; ; font-size: 16px ; font-style: normal ; font-weight: 400 ; letter-spacing: normal ; text-align: center ; text-indent: 0px ; text-transform: none ; word-spacing: 0px ; background-color: rgb(248 , 249 , 250) ; display: inline ; float: none&quot;&gt;一个&lt;/span&gt;" style="rounded=0;whiteSpace=wrap;html=1;" parent="1" vertex="1">
          <mxGeometry x="1200" y="80" width="120" height="120" as="geometry" />
        </mxCell>
        <mxCell id="2PzDrXG9zK0gIluA2ejx-113" value="" style="endArrow=none;html=1;exitX=0;exitY=0.333;exitDx=0;exitDy=0;exitPerimeter=0;" parent="1" source="2PzDrXG9zK0gIluA2ejx-112" edge="1">
          <mxGeometry width="50" height="50" relative="1" as="geometry">
            <mxPoint x="1350" y="150" as="sourcePoint" />
            <mxPoint x="1320" y="120" as="targetPoint" />
          </mxGeometry>
        </mxCell>
        <mxCell id="2PzDrXG9zK0gIluA2ejx-114" value="" style="endArrow=none;html=1;exitX=0;exitY=0.333;exitDx=0;exitDy=0;exitPerimeter=0;" parent="1" edge="1">
          <mxGeometry width="50" height="50" relative="1" as="geometry">
            <mxPoint x="1200" y="160" as="sourcePoint" />
            <mxPoint x="1320" y="160.03999999999996" as="targetPoint" />
          </mxGeometry>
        </mxCell>
        <mxCell id="2PzDrXG9zK0gIluA2ejx-115" value="+start()&lt;br&gt;+stop()" style="text;html=1;strokeColor=none;fillColor=none;align=center;verticalAlign=middle;whiteSpace=wrap;rounded=0;fontSize=16;" parent="1" vertex="1">
          <mxGeometry x="1220" y="160" width="80" height="40" as="geometry" />
        </mxCell>
        <mxCell id="2PzDrXG9zK0gIluA2ejx-116" value="Server" style="text;html=1;strokeColor=none;fillColor=none;align=center;verticalAlign=middle;whiteSpace=wrap;rounded=0;fontSize=16;" parent="1" vertex="1">
          <mxGeometry x="1230" y="80" width="60" height="40" as="geometry" />
        </mxCell>
        <mxCell id="2PzDrXG9zK0gIluA2ejx-119" value="" style="edgeStyle=orthogonalEdgeStyle;rounded=0;orthogonalLoop=1;jettySize=auto;html=1;fontSize=16;entryX=0.5;entryY=1;entryDx=0;entryDy=0;" parent="1" source="2PzDrXG9zK0gIluA2ejx-120" target="2PzDrXG9zK0gIluA2ejx-137" edge="1">
          <mxGeometry relative="1" as="geometry" />
        </mxCell>
        <mxCell id="2PzDrXG9zK0gIluA2ejx-120" value="&lt;span style=&quot;color: rgb(0 , 0 , 0) ; font-family: &amp;#34;helvetica&amp;#34; ; font-size: 16px ; font-style: normal ; font-weight: 400 ; letter-spacing: normal ; text-align: center ; text-indent: 0px ; text-transform: none ; word-spacing: 0px ; background-color: rgb(248 , 249 , 250) ; display: inline ; float: none&quot;&gt;多个&lt;/span&gt;" style="rounded=0;whiteSpace=wrap;html=1;" parent="1" vertex="1">
          <mxGeometry x="1720" y="240" width="120" height="120" as="geometry" />
        </mxCell>
        <mxCell id="2PzDrXG9zK0gIluA2ejx-121" value="" style="endArrow=none;html=1;exitX=0;exitY=0.333;exitDx=0;exitDy=0;exitPerimeter=0;" parent="1" source="2PzDrXG9zK0gIluA2ejx-120" edge="1">
          <mxGeometry width="50" height="50" relative="1" as="geometry">
            <mxPoint x="1870" y="310" as="sourcePoint" />
            <mxPoint x="1840" y="280" as="targetPoint" />
          </mxGeometry>
        </mxCell>
        <mxCell id="2PzDrXG9zK0gIluA2ejx-122" value="" style="endArrow=none;html=1;exitX=0;exitY=0.333;exitDx=0;exitDy=0;exitPerimeter=0;" parent="1" edge="1">
          <mxGeometry width="50" height="50" relative="1" as="geometry">
            <mxPoint x="1720" y="319.9999999999998" as="sourcePoint" />
            <mxPoint x="1840" y="320.03999999999996" as="targetPoint" />
          </mxGeometry>
        </mxCell>
        <mxCell id="2PzDrXG9zK0gIluA2ejx-123" value="+start()&lt;br&gt;+stop()" style="text;html=1;strokeColor=none;fillColor=none;align=center;verticalAlign=middle;whiteSpace=wrap;rounded=0;fontSize=16;" parent="1" vertex="1">
          <mxGeometry x="1730" y="320" width="90" height="40" as="geometry" />
        </mxCell>
        <mxCell id="2PzDrXG9zK0gIluA2ejx-124" value="Server" style="text;html=1;strokeColor=none;fillColor=none;align=center;verticalAlign=middle;whiteSpace=wrap;rounded=0;fontSize=16;" parent="1" vertex="1">
          <mxGeometry x="1750" y="240" width="60" height="40" as="geometry" />
        </mxCell>
        <mxCell id="2PzDrXG9zK0gIluA2ejx-125" value="&lt;span style=&quot;font-size: 16px&quot;&gt;一个&lt;/span&gt;" style="rounded=0;whiteSpace=wrap;html=1;" parent="1" vertex="1">
          <mxGeometry x="1880" y="360" width="120" height="120" as="geometry" />
        </mxCell>
        <mxCell id="2PzDrXG9zK0gIluA2ejx-126" value="" style="endArrow=none;html=1;exitX=0;exitY=0.333;exitDx=0;exitDy=0;exitPerimeter=0;" parent="1" source="2PzDrXG9zK0gIluA2ejx-125" edge="1">
          <mxGeometry width="50" height="50" relative="1" as="geometry">
            <mxPoint x="2030" y="430" as="sourcePoint" />
            <mxPoint x="2000" y="399.9999999999998" as="targetPoint" />
          </mxGeometry>
        </mxCell>
        <mxCell id="2PzDrXG9zK0gIluA2ejx-127" value="" style="endArrow=none;html=1;exitX=0;exitY=0.333;exitDx=0;exitDy=0;exitPerimeter=0;" parent="1" edge="1">
          <mxGeometry width="50" height="50" relative="1" as="geometry">
            <mxPoint x="1880" y="439.9999999999998" as="sourcePoint" />
            <mxPoint x="2000" y="440.03999999999996" as="targetPoint" />
          </mxGeometry>
        </mxCell>
        <mxCell id="2PzDrXG9zK0gIluA2ejx-128" value="+start()&lt;br&gt;+stop()" style="text;html=1;strokeColor=none;fillColor=none;align=center;verticalAlign=middle;whiteSpace=wrap;rounded=0;fontSize=16;" parent="1" vertex="1">
          <mxGeometry x="1890" y="440" width="90" height="40" as="geometry" />
        </mxCell>
        <mxCell id="2PzDrXG9zK0gIluA2ejx-129" style="edgeStyle=orthogonalEdgeStyle;rounded=0;orthogonalLoop=1;jettySize=auto;html=1;entryX=1;entryY=0.5;entryDx=0;entryDy=0;fontSize=16;exitX=0.5;exitY=0;exitDx=0;exitDy=0;" parent="1" source="2PzDrXG9zK0gIluA2ejx-130" target="2PzDrXG9zK0gIluA2ejx-120" edge="1">
          <mxGeometry relative="1" as="geometry">
            <Array as="points">
              <mxPoint x="1940" y="300" />
            </Array>
          </mxGeometry>
        </mxCell>
        <mxCell id="2PzDrXG9zK0gIluA2ejx-130" value="Engine" style="text;html=1;strokeColor=none;fillColor=none;align=center;verticalAlign=middle;whiteSpace=wrap;rounded=0;fontSize=16;" parent="1" vertex="1">
          <mxGeometry x="1910" y="360" width="60" height="40" as="geometry" />
        </mxCell>
        <mxCell id="2PzDrXG9zK0gIluA2ejx-131" value="&lt;font style=&quot;font-size: 16px&quot;&gt;多个&lt;/font&gt;" style="rounded=0;whiteSpace=wrap;html=1;" parent="1" vertex="1">
          <mxGeometry x="1560" y="360" width="120" height="120" as="geometry" />
        </mxCell>
        <mxCell id="2PzDrXG9zK0gIluA2ejx-132" value="" style="endArrow=none;html=1;exitX=0;exitY=0.333;exitDx=0;exitDy=0;exitPerimeter=0;" parent="1" source="2PzDrXG9zK0gIluA2ejx-131" edge="1">
          <mxGeometry width="50" height="50" relative="1" as="geometry">
            <mxPoint x="1710" y="430" as="sourcePoint" />
            <mxPoint x="1680" y="399.9999999999998" as="targetPoint" />
          </mxGeometry>
        </mxCell>
        <mxCell id="2PzDrXG9zK0gIluA2ejx-133" value="" style="endArrow=none;html=1;exitX=0;exitY=0.333;exitDx=0;exitDy=0;exitPerimeter=0;" parent="1" edge="1">
          <mxGeometry width="50" height="50" relative="1" as="geometry">
            <mxPoint x="1560" y="439.9999999999998" as="sourcePoint" />
            <mxPoint x="1680" y="440.03999999999996" as="targetPoint" />
          </mxGeometry>
        </mxCell>
        <mxCell id="2PzDrXG9zK0gIluA2ejx-134" value="+start()&lt;br&gt;+stop()" style="text;html=1;strokeColor=none;fillColor=none;align=center;verticalAlign=middle;whiteSpace=wrap;rounded=0;fontSize=16;" parent="1" vertex="1">
          <mxGeometry x="1570" y="440" width="90" height="40" as="geometry" />
        </mxCell>
        <mxCell id="2PzDrXG9zK0gIluA2ejx-135" style="edgeStyle=orthogonalEdgeStyle;rounded=0;orthogonalLoop=1;jettySize=auto;html=1;entryX=0;entryY=0.5;entryDx=0;entryDy=0;fontSize=16;" parent="1" source="2PzDrXG9zK0gIluA2ejx-136" target="2PzDrXG9zK0gIluA2ejx-120" edge="1">
          <mxGeometry relative="1" as="geometry">
            <Array as="points">
              <mxPoint x="1620" y="300" />
            </Array>
          </mxGeometry>
        </mxCell>
        <mxCell id="2PzDrXG9zK0gIluA2ejx-136" value="Connector" style="text;html=1;strokeColor=none;fillColor=none;align=center;verticalAlign=middle;whiteSpace=wrap;rounded=0;fontSize=16;" parent="1" vertex="1">
          <mxGeometry x="1590" y="360" width="60" height="40" as="geometry" />
        </mxCell>
        <mxCell id="2PzDrXG9zK0gIluA2ejx-137" value="&lt;span style=&quot;color: rgb(0 , 0 , 0) ; font-family: &amp;#34;helvetica&amp;#34; ; font-size: 16px ; font-style: normal ; font-weight: 400 ; letter-spacing: normal ; text-align: center ; text-indent: 0px ; text-transform: none ; word-spacing: 0px ; background-color: rgb(248 , 249 , 250) ; display: inline ; float: none&quot;&gt;一个&lt;/span&gt;" style="rounded=0;whiteSpace=wrap;html=1;" parent="1" vertex="1">
          <mxGeometry x="1720" y="80" width="120" height="120" as="geometry" />
        </mxCell>
        <mxCell id="2PzDrXG9zK0gIluA2ejx-138" value="" style="endArrow=none;html=1;exitX=0;exitY=0.333;exitDx=0;exitDy=0;exitPerimeter=0;" parent="1" source="2PzDrXG9zK0gIluA2ejx-137" edge="1">
          <mxGeometry width="50" height="50" relative="1" as="geometry">
            <mxPoint x="1870" y="150" as="sourcePoint" />
            <mxPoint x="1840" y="120" as="targetPoint" />
          </mxGeometry>
        </mxCell>
        <mxCell id="2PzDrXG9zK0gIluA2ejx-139" value="" style="endArrow=none;html=1;exitX=0;exitY=0.333;exitDx=0;exitDy=0;exitPerimeter=0;" parent="1" edge="1">
          <mxGeometry width="50" height="50" relative="1" as="geometry">
            <mxPoint x="1720" y="160" as="sourcePoint" />
            <mxPoint x="1840" y="160.03999999999996" as="targetPoint" />
          </mxGeometry>
        </mxCell>
        <mxCell id="2PzDrXG9zK0gIluA2ejx-140" value="+start()&lt;br&gt;+stop()" style="text;html=1;strokeColor=none;fillColor=none;align=center;verticalAlign=middle;whiteSpace=wrap;rounded=0;fontSize=16;" parent="1" vertex="1">
          <mxGeometry x="1740" y="160" width="80" height="40" as="geometry" />
        </mxCell>
        <mxCell id="2PzDrXG9zK0gIluA2ejx-141" value="Server" style="text;html=1;strokeColor=none;fillColor=none;align=center;verticalAlign=middle;whiteSpace=wrap;rounded=0;fontSize=16;" parent="1" vertex="1">
          <mxGeometry x="1750" y="80" width="60" height="40" as="geometry" />
        </mxCell>
        <mxCell id="2PzDrXG9zK0gIluA2ejx-147" value="" style="edgeStyle=orthogonalEdgeStyle;rounded=0;orthogonalLoop=1;jettySize=auto;html=1;fontSize=16;entryX=1;entryY=0.5;entryDx=0;entryDy=0;" parent="1" source="2PzDrXG9zK0gIluA2ejx-142" target="2PzDrXG9zK0gIluA2ejx-125" edge="1">
          <mxGeometry relative="1" as="geometry" />
        </mxCell>
        <mxCell id="2PzDrXG9zK0gIluA2ejx-142" value="&lt;span style=&quot;font-size: 16px&quot;&gt;多个&lt;/span&gt;" style="rounded=0;whiteSpace=wrap;html=1;" parent="1" vertex="1">
          <mxGeometry x="2080" y="360" width="120" height="120" as="geometry" />
        </mxCell>
        <mxCell id="2PzDrXG9zK0gIluA2ejx-143" value="" style="endArrow=none;html=1;exitX=0;exitY=0.333;exitDx=0;exitDy=0;exitPerimeter=0;" parent="1" source="2PzDrXG9zK0gIluA2ejx-142" edge="1">
          <mxGeometry width="50" height="50" relative="1" as="geometry">
            <mxPoint x="2230" y="430" as="sourcePoint" />
            <mxPoint x="2200" y="399.9999999999998" as="targetPoint" />
          </mxGeometry>
        </mxCell>
        <mxCell id="2PzDrXG9zK0gIluA2ejx-144" value="" style="endArrow=none;html=1;exitX=0;exitY=0.333;exitDx=0;exitDy=0;exitPerimeter=0;" parent="1" edge="1">
          <mxGeometry width="50" height="50" relative="1" as="geometry">
            <mxPoint x="2080" y="439.9999999999998" as="sourcePoint" />
            <mxPoint x="2200" y="440.03999999999996" as="targetPoint" />
          </mxGeometry>
        </mxCell>
        <mxCell id="2PzDrXG9zK0gIluA2ejx-145" value="+start()&lt;br&gt;+stop()" style="text;html=1;strokeColor=none;fillColor=none;align=center;verticalAlign=middle;whiteSpace=wrap;rounded=0;fontSize=16;" parent="1" vertex="1">
          <mxGeometry x="2090" y="440" width="90" height="40" as="geometry" />
        </mxCell>
        <mxCell id="2PzDrXG9zK0gIluA2ejx-146" value="Context" style="text;html=1;strokeColor=none;fillColor=none;align=center;verticalAlign=middle;whiteSpace=wrap;rounded=0;fontSize=16;" parent="1" vertex="1">
          <mxGeometry x="2110" y="360" width="60" height="40" as="geometry" />
        </mxCell>
        <mxCell id="2PzDrXG9zK0gIluA2ejx-148" value="" style="edgeStyle=orthogonalEdgeStyle;rounded=0;orthogonalLoop=1;jettySize=auto;html=1;fontSize=16;entryX=0.5;entryY=1;entryDx=0;entryDy=0;" parent="1" source="2PzDrXG9zK0gIluA2ejx-149" target="2PzDrXG9zK0gIluA2ejx-166" edge="1">
          <mxGeometry relative="1" as="geometry" />
        </mxCell>
        <mxCell id="2PzDrXG9zK0gIluA2ejx-149" value="&lt;span style=&quot;color: rgb(0 , 0 , 0) ; font-family: &amp;#34;helvetica&amp;#34; ; font-size: 16px ; font-style: normal ; font-weight: 400 ; letter-spacing: normal ; text-align: center ; text-indent: 0px ; text-transform: none ; word-spacing: 0px ; background-color: rgb(248 , 249 , 250) ; display: inline ; float: none&quot;&gt;多个&lt;/span&gt;" style="rounded=0;whiteSpace=wrap;html=1;" parent="1" vertex="1">
          <mxGeometry x="2400" y="240" width="120" height="120" as="geometry" />
        </mxCell>
        <mxCell id="2PzDrXG9zK0gIluA2ejx-150" value="" style="endArrow=none;html=1;exitX=0;exitY=0.333;exitDx=0;exitDy=0;exitPerimeter=0;" parent="1" source="2PzDrXG9zK0gIluA2ejx-149" edge="1">
          <mxGeometry width="50" height="50" relative="1" as="geometry">
            <mxPoint x="2550" y="310" as="sourcePoint" />
            <mxPoint x="2520" y="280" as="targetPoint" />
          </mxGeometry>
        </mxCell>
        <mxCell id="2PzDrXG9zK0gIluA2ejx-151" value="" style="endArrow=none;html=1;exitX=0;exitY=0.333;exitDx=0;exitDy=0;exitPerimeter=0;" parent="1" edge="1">
          <mxGeometry width="50" height="50" relative="1" as="geometry">
            <mxPoint x="2400" y="319.9999999999998" as="sourcePoint" />
            <mxPoint x="2520" y="320.03999999999996" as="targetPoint" />
          </mxGeometry>
        </mxCell>
        <mxCell id="2PzDrXG9zK0gIluA2ejx-152" value="+start()&lt;br&gt;+stop()" style="text;html=1;strokeColor=none;fillColor=none;align=center;verticalAlign=middle;whiteSpace=wrap;rounded=0;fontSize=16;" parent="1" vertex="1">
          <mxGeometry x="2410" y="320" width="90" height="40" as="geometry" />
        </mxCell>
        <mxCell id="2PzDrXG9zK0gIluA2ejx-153" value="Server" style="text;html=1;strokeColor=none;fillColor=none;align=center;verticalAlign=middle;whiteSpace=wrap;rounded=0;fontSize=16;" parent="1" vertex="1">
          <mxGeometry x="2430" y="240" width="60" height="40" as="geometry" />
        </mxCell>
        <mxCell id="2PzDrXG9zK0gIluA2ejx-154" value="&lt;span style=&quot;font-size: 16px&quot;&gt;一个&lt;/span&gt;" style="rounded=0;whiteSpace=wrap;html=1;" parent="1" vertex="1">
          <mxGeometry x="2560" y="360" width="120" height="120" as="geometry" />
        </mxCell>
        <mxCell id="2PzDrXG9zK0gIluA2ejx-155" value="" style="endArrow=none;html=1;exitX=0;exitY=0.333;exitDx=0;exitDy=0;exitPerimeter=0;" parent="1" source="2PzDrXG9zK0gIluA2ejx-154" edge="1">
          <mxGeometry width="50" height="50" relative="1" as="geometry">
            <mxPoint x="2710" y="430" as="sourcePoint" />
            <mxPoint x="2680" y="399.9999999999998" as="targetPoint" />
          </mxGeometry>
        </mxCell>
        <mxCell id="2PzDrXG9zK0gIluA2ejx-156" value="" style="endArrow=none;html=1;exitX=0;exitY=0.333;exitDx=0;exitDy=0;exitPerimeter=0;" parent="1" edge="1">
          <mxGeometry width="50" height="50" relative="1" as="geometry">
            <mxPoint x="2560" y="439.9999999999998" as="sourcePoint" />
            <mxPoint x="2680" y="440.03999999999996" as="targetPoint" />
          </mxGeometry>
        </mxCell>
        <mxCell id="2PzDrXG9zK0gIluA2ejx-157" value="+start()&lt;br&gt;+stop()" style="text;html=1;strokeColor=none;fillColor=none;align=center;verticalAlign=middle;whiteSpace=wrap;rounded=0;fontSize=16;" parent="1" vertex="1">
          <mxGeometry x="2570" y="440" width="90" height="40" as="geometry" />
        </mxCell>
        <mxCell id="2PzDrXG9zK0gIluA2ejx-158" style="edgeStyle=orthogonalEdgeStyle;rounded=0;orthogonalLoop=1;jettySize=auto;html=1;entryX=1;entryY=0.5;entryDx=0;entryDy=0;fontSize=16;exitX=0.5;exitY=0;exitDx=0;exitDy=0;" parent="1" source="2PzDrXG9zK0gIluA2ejx-159" target="2PzDrXG9zK0gIluA2ejx-149" edge="1">
          <mxGeometry relative="1" as="geometry">
            <Array as="points">
              <mxPoint x="2620" y="300" />
            </Array>
          </mxGeometry>
        </mxCell>
        <mxCell id="2PzDrXG9zK0gIluA2ejx-159" value="Engine" style="text;html=1;strokeColor=none;fillColor=none;align=center;verticalAlign=middle;whiteSpace=wrap;rounded=0;fontSize=16;" parent="1" vertex="1">
          <mxGeometry x="2590" y="360" width="60" height="40" as="geometry" />
        </mxCell>
        <mxCell id="2PzDrXG9zK0gIluA2ejx-160" value="&lt;font style=&quot;font-size: 16px&quot;&gt;多个&lt;/font&gt;" style="rounded=0;whiteSpace=wrap;html=1;" parent="1" vertex="1">
          <mxGeometry x="2240" y="360" width="120" height="120" as="geometry" />
        </mxCell>
        <mxCell id="2PzDrXG9zK0gIluA2ejx-161" value="" style="endArrow=none;html=1;exitX=0;exitY=0.333;exitDx=0;exitDy=0;exitPerimeter=0;" parent="1" source="2PzDrXG9zK0gIluA2ejx-160" edge="1">
          <mxGeometry width="50" height="50" relative="1" as="geometry">
            <mxPoint x="2390" y="430" as="sourcePoint" />
            <mxPoint x="2360" y="399.9999999999998" as="targetPoint" />
          </mxGeometry>
        </mxCell>
        <mxCell id="2PzDrXG9zK0gIluA2ejx-162" value="" style="endArrow=none;html=1;exitX=0;exitY=0.333;exitDx=0;exitDy=0;exitPerimeter=0;" parent="1" edge="1">
          <mxGeometry width="50" height="50" relative="1" as="geometry">
            <mxPoint x="2240" y="439.9999999999998" as="sourcePoint" />
            <mxPoint x="2360" y="440.03999999999996" as="targetPoint" />
          </mxGeometry>
        </mxCell>
        <mxCell id="2PzDrXG9zK0gIluA2ejx-163" value="+start()&lt;br&gt;+stop()" style="text;html=1;strokeColor=none;fillColor=none;align=center;verticalAlign=middle;whiteSpace=wrap;rounded=0;fontSize=16;" parent="1" vertex="1">
          <mxGeometry x="2250" y="440" width="90" height="40" as="geometry" />
        </mxCell>
        <mxCell id="2PzDrXG9zK0gIluA2ejx-164" style="edgeStyle=orthogonalEdgeStyle;rounded=0;orthogonalLoop=1;jettySize=auto;html=1;entryX=0;entryY=0.5;entryDx=0;entryDy=0;fontSize=16;" parent="1" source="2PzDrXG9zK0gIluA2ejx-165" target="2PzDrXG9zK0gIluA2ejx-149" edge="1">
          <mxGeometry relative="1" as="geometry">
            <Array as="points">
              <mxPoint x="2300" y="300" />
            </Array>
          </mxGeometry>
        </mxCell>
        <mxCell id="2PzDrXG9zK0gIluA2ejx-165" value="Connector" style="text;html=1;strokeColor=none;fillColor=none;align=center;verticalAlign=middle;whiteSpace=wrap;rounded=0;fontSize=16;" parent="1" vertex="1">
          <mxGeometry x="2270" y="360" width="60" height="40" as="geometry" />
        </mxCell>
        <mxCell id="2PzDrXG9zK0gIluA2ejx-166" value="&lt;span style=&quot;color: rgb(0 , 0 , 0) ; font-family: &amp;#34;helvetica&amp;#34; ; font-size: 16px ; font-style: normal ; font-weight: 400 ; letter-spacing: normal ; text-align: center ; text-indent: 0px ; text-transform: none ; word-spacing: 0px ; background-color: rgb(248 , 249 , 250) ; display: inline ; float: none&quot;&gt;一个&lt;/span&gt;" style="rounded=0;whiteSpace=wrap;html=1;" parent="1" vertex="1">
          <mxGeometry x="2400" y="80" width="120" height="120" as="geometry" />
        </mxCell>
        <mxCell id="2PzDrXG9zK0gIluA2ejx-167" value="" style="endArrow=none;html=1;exitX=0;exitY=0.333;exitDx=0;exitDy=0;exitPerimeter=0;" parent="1" source="2PzDrXG9zK0gIluA2ejx-166" edge="1">
          <mxGeometry width="50" height="50" relative="1" as="geometry">
            <mxPoint x="2550" y="150" as="sourcePoint" />
            <mxPoint x="2520" y="120" as="targetPoint" />
          </mxGeometry>
        </mxCell>
        <mxCell id="2PzDrXG9zK0gIluA2ejx-168" value="" style="endArrow=none;html=1;exitX=0;exitY=0.333;exitDx=0;exitDy=0;exitPerimeter=0;" parent="1" edge="1">
          <mxGeometry width="50" height="50" relative="1" as="geometry">
            <mxPoint x="2400" y="160" as="sourcePoint" />
            <mxPoint x="2520" y="160.03999999999996" as="targetPoint" />
          </mxGeometry>
        </mxCell>
        <mxCell id="2PzDrXG9zK0gIluA2ejx-169" value="+start()&lt;br&gt;+stop()" style="text;html=1;strokeColor=none;fillColor=none;align=center;verticalAlign=middle;whiteSpace=wrap;rounded=0;fontSize=16;" parent="1" vertex="1">
          <mxGeometry x="2420" y="160" width="80" height="40" as="geometry" />
        </mxCell>
        <mxCell id="2PzDrXG9zK0gIluA2ejx-170" value="Server" style="text;html=1;strokeColor=none;fillColor=none;align=center;verticalAlign=middle;whiteSpace=wrap;rounded=0;fontSize=16;" parent="1" vertex="1">
          <mxGeometry x="2430" y="80" width="60" height="40" as="geometry" />
        </mxCell>
        <mxCell id="2PzDrXG9zK0gIluA2ejx-171" value="" style="edgeStyle=orthogonalEdgeStyle;rounded=0;orthogonalLoop=1;jettySize=auto;html=1;fontSize=16;entryX=1;entryY=0.5;entryDx=0;entryDy=0;" parent="1" source="2PzDrXG9zK0gIluA2ejx-172" target="2PzDrXG9zK0gIluA2ejx-154" edge="1">
          <mxGeometry relative="1" as="geometry" />
        </mxCell>
        <mxCell id="2PzDrXG9zK0gIluA2ejx-172" value="&lt;span style=&quot;font-size: 16px&quot;&gt;多个&lt;/span&gt;" style="rounded=0;whiteSpace=wrap;html=1;" parent="1" vertex="1">
          <mxGeometry x="2760" y="360" width="120" height="120" as="geometry" />
        </mxCell>
        <mxCell id="2PzDrXG9zK0gIluA2ejx-173" value="" style="endArrow=none;html=1;exitX=0;exitY=0.333;exitDx=0;exitDy=0;exitPerimeter=0;" parent="1" source="2PzDrXG9zK0gIluA2ejx-172" edge="1">
          <mxGeometry width="50" height="50" relative="1" as="geometry">
            <mxPoint x="2910" y="430" as="sourcePoint" />
            <mxPoint x="2880" y="399.9999999999998" as="targetPoint" />
          </mxGeometry>
        </mxCell>
        <mxCell id="2PzDrXG9zK0gIluA2ejx-174" value="" style="endArrow=none;html=1;exitX=0;exitY=0.333;exitDx=0;exitDy=0;exitPerimeter=0;" parent="1" edge="1">
          <mxGeometry width="50" height="50" relative="1" as="geometry">
            <mxPoint x="2760" y="439.9999999999998" as="sourcePoint" />
            <mxPoint x="2880" y="440.03999999999996" as="targetPoint" />
          </mxGeometry>
        </mxCell>
        <mxCell id="2PzDrXG9zK0gIluA2ejx-175" value="+start()&lt;br&gt;+stop()" style="text;html=1;strokeColor=none;fillColor=none;align=center;verticalAlign=middle;whiteSpace=wrap;rounded=0;fontSize=16;" parent="1" vertex="1">
          <mxGeometry x="2770" y="440" width="90" height="40" as="geometry" />
        </mxCell>
        <mxCell id="2PzDrXG9zK0gIluA2ejx-176" value="Host" style="text;html=1;strokeColor=none;fillColor=none;align=center;verticalAlign=middle;whiteSpace=wrap;rounded=0;fontSize=16;" parent="1" vertex="1">
          <mxGeometry x="2790" y="360" width="60" height="40" as="geometry" />
        </mxCell>
        <mxCell id="2PzDrXG9zK0gIluA2ejx-177" value="&lt;span style=&quot;font-size: 16px&quot;&gt;多个&lt;/span&gt;" style="rounded=0;whiteSpace=wrap;html=1;" parent="1" vertex="1">
          <mxGeometry x="2760" y="520" width="120" height="120" as="geometry" />
        </mxCell>
        <mxCell id="2PzDrXG9zK0gIluA2ejx-178" value="" style="endArrow=none;html=1;exitX=0;exitY=0.333;exitDx=0;exitDy=0;exitPerimeter=0;" parent="1" source="2PzDrXG9zK0gIluA2ejx-177" edge="1">
          <mxGeometry width="50" height="50" relative="1" as="geometry">
            <mxPoint x="2910" y="590" as="sourcePoint" />
            <mxPoint x="2880" y="559.9999999999998" as="targetPoint" />
          </mxGeometry>
        </mxCell>
        <mxCell id="2PzDrXG9zK0gIluA2ejx-179" value="" style="endArrow=none;html=1;exitX=0;exitY=0.333;exitDx=0;exitDy=0;exitPerimeter=0;" parent="1" edge="1">
          <mxGeometry width="50" height="50" relative="1" as="geometry">
            <mxPoint x="2760" y="599.9999999999998" as="sourcePoint" />
            <mxPoint x="2880" y="600.04" as="targetPoint" />
          </mxGeometry>
        </mxCell>
        <mxCell id="2PzDrXG9zK0gIluA2ejx-180" value="+start()&lt;br&gt;+stop()" style="text;html=1;strokeColor=none;fillColor=none;align=center;verticalAlign=middle;whiteSpace=wrap;rounded=0;fontSize=16;" parent="1" vertex="1">
          <mxGeometry x="2770" y="600" width="90" height="40" as="geometry" />
        </mxCell>
        <mxCell id="2PzDrXG9zK0gIluA2ejx-186" style="edgeStyle=orthogonalEdgeStyle;rounded=0;orthogonalLoop=1;jettySize=auto;html=1;entryX=0.556;entryY=1;entryDx=0;entryDy=0;entryPerimeter=0;fontSize=16;" parent="1" source="2PzDrXG9zK0gIluA2ejx-181" target="2PzDrXG9zK0gIluA2ejx-175" edge="1">
          <mxGeometry relative="1" as="geometry" />
        </mxCell>
        <mxCell id="2PzDrXG9zK0gIluA2ejx-181" value="Context" style="text;html=1;strokeColor=none;fillColor=none;align=center;verticalAlign=middle;whiteSpace=wrap;rounded=0;fontSize=16;" parent="1" vertex="1">
          <mxGeometry x="2790" y="520" width="60" height="40" as="geometry" />
        </mxCell>
        <mxCell id="2PzDrXG9zK0gIluA2ejx-187" value="" style="edgeStyle=orthogonalEdgeStyle;rounded=0;orthogonalLoop=1;jettySize=auto;html=1;fontSize=16;entryX=0.5;entryY=1;entryDx=0;entryDy=0;" parent="1" source="2PzDrXG9zK0gIluA2ejx-188" target="2PzDrXG9zK0gIluA2ejx-205" edge="1">
          <mxGeometry relative="1" as="geometry" />
        </mxCell>
        <mxCell id="2PzDrXG9zK0gIluA2ejx-188" value="&lt;span style=&quot;color: rgb(0 , 0 , 0) ; font-family: &amp;#34;helvetica&amp;#34; ; font-size: 16px ; font-style: normal ; font-weight: 400 ; letter-spacing: normal ; text-align: center ; text-indent: 0px ; text-transform: none ; word-spacing: 0px ; background-color: rgb(248 , 249 , 250) ; display: inline ; float: none&quot;&gt;多个&lt;/span&gt;" style="rounded=0;whiteSpace=wrap;html=1;" parent="1" vertex="1">
          <mxGeometry x="440" y="720" width="120" height="120" as="geometry" />
        </mxCell>
        <mxCell id="2PzDrXG9zK0gIluA2ejx-189" value="" style="endArrow=none;html=1;exitX=0;exitY=0.333;exitDx=0;exitDy=0;exitPerimeter=0;" parent="1" source="2PzDrXG9zK0gIluA2ejx-188" edge="1">
          <mxGeometry width="50" height="50" relative="1" as="geometry">
            <mxPoint x="590" y="790" as="sourcePoint" />
            <mxPoint x="559.9999999999995" y="759.9999999999999" as="targetPoint" />
          </mxGeometry>
        </mxCell>
        <mxCell id="2PzDrXG9zK0gIluA2ejx-190" value="" style="endArrow=none;html=1;exitX=0;exitY=0.333;exitDx=0;exitDy=0;exitPerimeter=0;" parent="1" edge="1">
          <mxGeometry width="50" height="50" relative="1" as="geometry">
            <mxPoint x="440" y="799.9999999999998" as="sourcePoint" />
            <mxPoint x="559.9999999999995" y="800.04" as="targetPoint" />
          </mxGeometry>
        </mxCell>
        <mxCell id="2PzDrXG9zK0gIluA2ejx-191" value="+start()&lt;br&gt;+stop()" style="text;html=1;strokeColor=none;fillColor=none;align=center;verticalAlign=middle;whiteSpace=wrap;rounded=0;fontSize=16;" parent="1" vertex="1">
          <mxGeometry x="450" y="800" width="90" height="40" as="geometry" />
        </mxCell>
        <mxCell id="2PzDrXG9zK0gIluA2ejx-192" value="Server" style="text;html=1;strokeColor=none;fillColor=none;align=center;verticalAlign=middle;whiteSpace=wrap;rounded=0;fontSize=16;" parent="1" vertex="1">
          <mxGeometry x="470" y="720" width="60" height="40" as="geometry" />
        </mxCell>
        <mxCell id="2PzDrXG9zK0gIluA2ejx-193" value="&lt;span style=&quot;font-size: 16px&quot;&gt;一个&lt;/span&gt;" style="rounded=0;whiteSpace=wrap;html=1;" parent="1" vertex="1">
          <mxGeometry x="600" y="840" width="120" height="120" as="geometry" />
        </mxCell>
        <mxCell id="2PzDrXG9zK0gIluA2ejx-194" value="" style="endArrow=none;html=1;exitX=0;exitY=0.333;exitDx=0;exitDy=0;exitPerimeter=0;" parent="1" source="2PzDrXG9zK0gIluA2ejx-193" edge="1">
          <mxGeometry width="50" height="50" relative="1" as="geometry">
            <mxPoint x="750" y="910" as="sourcePoint" />
            <mxPoint x="719.9999999999995" y="879.9999999999998" as="targetPoint" />
          </mxGeometry>
        </mxCell>
        <mxCell id="2PzDrXG9zK0gIluA2ejx-195" value="" style="endArrow=none;html=1;exitX=0;exitY=0.333;exitDx=0;exitDy=0;exitPerimeter=0;" parent="1" edge="1">
          <mxGeometry width="50" height="50" relative="1" as="geometry">
            <mxPoint x="599.9999999999995" y="919.9999999999998" as="sourcePoint" />
            <mxPoint x="719.9999999999995" y="920.04" as="targetPoint" />
          </mxGeometry>
        </mxCell>
        <mxCell id="2PzDrXG9zK0gIluA2ejx-196" value="+start()&lt;br&gt;+stop()" style="text;html=1;strokeColor=none;fillColor=none;align=center;verticalAlign=middle;whiteSpace=wrap;rounded=0;fontSize=16;" parent="1" vertex="1">
          <mxGeometry x="610" y="920" width="90" height="40" as="geometry" />
        </mxCell>
        <mxCell id="2PzDrXG9zK0gIluA2ejx-197" style="edgeStyle=orthogonalEdgeStyle;rounded=0;orthogonalLoop=1;jettySize=auto;html=1;entryX=1;entryY=0.5;entryDx=0;entryDy=0;fontSize=16;exitX=0.5;exitY=0;exitDx=0;exitDy=0;" parent="1" source="2PzDrXG9zK0gIluA2ejx-198" target="2PzDrXG9zK0gIluA2ejx-188" edge="1">
          <mxGeometry relative="1" as="geometry">
            <Array as="points">
              <mxPoint x="660" y="780" />
            </Array>
          </mxGeometry>
        </mxCell>
        <mxCell id="2PzDrXG9zK0gIluA2ejx-198" value="Engine" style="text;html=1;strokeColor=none;fillColor=none;align=center;verticalAlign=middle;whiteSpace=wrap;rounded=0;fontSize=16;" parent="1" vertex="1">
          <mxGeometry x="630" y="840" width="60" height="40" as="geometry" />
        </mxCell>
        <mxCell id="2PzDrXG9zK0gIluA2ejx-199" value="&lt;font style=&quot;font-size: 16px&quot;&gt;多个&lt;/font&gt;" style="rounded=0;whiteSpace=wrap;html=1;" parent="1" vertex="1">
          <mxGeometry x="280" y="840" width="120" height="120" as="geometry" />
        </mxCell>
        <mxCell id="2PzDrXG9zK0gIluA2ejx-200" value="" style="endArrow=none;html=1;exitX=0;exitY=0.333;exitDx=0;exitDy=0;exitPerimeter=0;" parent="1" source="2PzDrXG9zK0gIluA2ejx-199" edge="1">
          <mxGeometry width="50" height="50" relative="1" as="geometry">
            <mxPoint x="430" y="910" as="sourcePoint" />
            <mxPoint x="400" y="879.9999999999998" as="targetPoint" />
          </mxGeometry>
        </mxCell>
        <mxCell id="2PzDrXG9zK0gIluA2ejx-201" value="" style="endArrow=none;html=1;exitX=0;exitY=0.333;exitDx=0;exitDy=0;exitPerimeter=0;" parent="1" edge="1">
          <mxGeometry width="50" height="50" relative="1" as="geometry">
            <mxPoint x="280" y="919.9999999999998" as="sourcePoint" />
            <mxPoint x="400" y="920.04" as="targetPoint" />
          </mxGeometry>
        </mxCell>
        <mxCell id="2PzDrXG9zK0gIluA2ejx-202" value="+start()&lt;br&gt;+stop()" style="text;html=1;strokeColor=none;fillColor=none;align=center;verticalAlign=middle;whiteSpace=wrap;rounded=0;fontSize=16;" parent="1" vertex="1">
          <mxGeometry x="290" y="920" width="90" height="40" as="geometry" />
        </mxCell>
        <mxCell id="2PzDrXG9zK0gIluA2ejx-203" style="edgeStyle=orthogonalEdgeStyle;rounded=0;orthogonalLoop=1;jettySize=auto;html=1;entryX=0;entryY=0.5;entryDx=0;entryDy=0;fontSize=16;" parent="1" source="2PzDrXG9zK0gIluA2ejx-204" target="2PzDrXG9zK0gIluA2ejx-188" edge="1">
          <mxGeometry relative="1" as="geometry">
            <Array as="points">
              <mxPoint x="340" y="780" />
            </Array>
          </mxGeometry>
        </mxCell>
        <mxCell id="2PzDrXG9zK0gIluA2ejx-204" value="Connector" style="text;html=1;strokeColor=none;fillColor=none;align=center;verticalAlign=middle;whiteSpace=wrap;rounded=0;fontSize=16;" parent="1" vertex="1">
          <mxGeometry x="310" y="840" width="60" height="40" as="geometry" />
        </mxCell>
        <mxCell id="2PzDrXG9zK0gIluA2ejx-205" value="&lt;span style=&quot;color: rgb(0 , 0 , 0) ; font-family: &amp;#34;helvetica&amp;#34; ; font-size: 16px ; font-style: normal ; font-weight: 400 ; letter-spacing: normal ; text-align: center ; text-indent: 0px ; text-transform: none ; word-spacing: 0px ; background-color: rgb(248 , 249 , 250) ; display: inline ; float: none&quot;&gt;一个&lt;/span&gt;" style="rounded=0;whiteSpace=wrap;html=1;" parent="1" vertex="1">
          <mxGeometry x="440" y="560" width="120" height="120" as="geometry" />
        </mxCell>
        <mxCell id="2PzDrXG9zK0gIluA2ejx-206" value="" style="endArrow=none;html=1;exitX=0;exitY=0.333;exitDx=0;exitDy=0;exitPerimeter=0;" parent="1" source="2PzDrXG9zK0gIluA2ejx-205" edge="1">
          <mxGeometry width="50" height="50" relative="1" as="geometry">
            <mxPoint x="590" y="630" as="sourcePoint" />
            <mxPoint x="559.9999999999995" y="600" as="targetPoint" />
          </mxGeometry>
        </mxCell>
        <mxCell id="2PzDrXG9zK0gIluA2ejx-207" value="" style="endArrow=none;html=1;exitX=0;exitY=0.333;exitDx=0;exitDy=0;exitPerimeter=0;" parent="1" edge="1">
          <mxGeometry width="50" height="50" relative="1" as="geometry">
            <mxPoint x="440" y="640" as="sourcePoint" />
            <mxPoint x="559.9999999999995" y="640.04" as="targetPoint" />
          </mxGeometry>
        </mxCell>
        <mxCell id="2PzDrXG9zK0gIluA2ejx-208" value="+start()&lt;br&gt;+stop()" style="text;html=1;strokeColor=none;fillColor=none;align=center;verticalAlign=middle;whiteSpace=wrap;rounded=0;fontSize=16;" parent="1" vertex="1">
          <mxGeometry x="460" y="640" width="80" height="40" as="geometry" />
        </mxCell>
        <mxCell id="2PzDrXG9zK0gIluA2ejx-209" value="Server" style="text;html=1;strokeColor=none;fillColor=none;align=center;verticalAlign=middle;whiteSpace=wrap;rounded=0;fontSize=16;" parent="1" vertex="1">
          <mxGeometry x="470" y="560" width="60" height="40" as="geometry" />
        </mxCell>
        <mxCell id="2PzDrXG9zK0gIluA2ejx-210" value="" style="edgeStyle=orthogonalEdgeStyle;rounded=0;orthogonalLoop=1;jettySize=auto;html=1;fontSize=16;entryX=1;entryY=0.5;entryDx=0;entryDy=0;" parent="1" source="2PzDrXG9zK0gIluA2ejx-211" target="2PzDrXG9zK0gIluA2ejx-193" edge="1">
          <mxGeometry relative="1" as="geometry" />
        </mxCell>
        <mxCell id="2PzDrXG9zK0gIluA2ejx-211" value="&lt;span style=&quot;font-size: 16px&quot;&gt;多个&lt;/span&gt;" style="rounded=0;whiteSpace=wrap;html=1;" parent="1" vertex="1">
          <mxGeometry x="800" y="840" width="120" height="120" as="geometry" />
        </mxCell>
        <mxCell id="2PzDrXG9zK0gIluA2ejx-212" value="" style="endArrow=none;html=1;exitX=0;exitY=0.333;exitDx=0;exitDy=0;exitPerimeter=0;" parent="1" source="2PzDrXG9zK0gIluA2ejx-211" edge="1">
          <mxGeometry width="50" height="50" relative="1" as="geometry">
            <mxPoint x="950" y="910" as="sourcePoint" />
            <mxPoint x="919.9999999999995" y="879.9999999999998" as="targetPoint" />
          </mxGeometry>
        </mxCell>
        <mxCell id="2PzDrXG9zK0gIluA2ejx-213" value="" style="endArrow=none;html=1;exitX=0;exitY=0.333;exitDx=0;exitDy=0;exitPerimeter=0;" parent="1" edge="1">
          <mxGeometry width="50" height="50" relative="1" as="geometry">
            <mxPoint x="799.9999999999995" y="919.9999999999998" as="sourcePoint" />
            <mxPoint x="919.9999999999995" y="920.04" as="targetPoint" />
          </mxGeometry>
        </mxCell>
        <mxCell id="2PzDrXG9zK0gIluA2ejx-214" value="+start()&lt;br&gt;+stop()" style="text;html=1;strokeColor=none;fillColor=none;align=center;verticalAlign=middle;whiteSpace=wrap;rounded=0;fontSize=16;" parent="1" vertex="1">
          <mxGeometry x="810" y="920" width="90" height="40" as="geometry" />
        </mxCell>
        <mxCell id="2PzDrXG9zK0gIluA2ejx-215" value="Host" style="text;html=1;strokeColor=none;fillColor=none;align=center;verticalAlign=middle;whiteSpace=wrap;rounded=0;fontSize=16;" parent="1" vertex="1">
          <mxGeometry x="830" y="840" width="60" height="40" as="geometry" />
        </mxCell>
        <mxCell id="2PzDrXG9zK0gIluA2ejx-216" value="&lt;span style=&quot;font-size: 16px&quot;&gt;多个&lt;/span&gt;" style="rounded=0;whiteSpace=wrap;html=1;" parent="1" vertex="1">
          <mxGeometry x="800" y="1000" width="120" height="120" as="geometry" />
        </mxCell>
        <mxCell id="2PzDrXG9zK0gIluA2ejx-217" value="" style="endArrow=none;html=1;exitX=0;exitY=0.333;exitDx=0;exitDy=0;exitPerimeter=0;" parent="1" source="2PzDrXG9zK0gIluA2ejx-216" edge="1">
          <mxGeometry width="50" height="50" relative="1" as="geometry">
            <mxPoint x="950" y="1070" as="sourcePoint" />
            <mxPoint x="919.9999999999995" y="1039.9999999999998" as="targetPoint" />
          </mxGeometry>
        </mxCell>
        <mxCell id="2PzDrXG9zK0gIluA2ejx-218" value="" style="endArrow=none;html=1;exitX=0;exitY=0.333;exitDx=0;exitDy=0;exitPerimeter=0;" parent="1" edge="1">
          <mxGeometry width="50" height="50" relative="1" as="geometry">
            <mxPoint x="799.9999999999995" y="1079.9999999999998" as="sourcePoint" />
            <mxPoint x="919.9999999999995" y="1080.04" as="targetPoint" />
          </mxGeometry>
        </mxCell>
        <mxCell id="2PzDrXG9zK0gIluA2ejx-219" value="+start()&lt;br&gt;+stop()" style="text;html=1;strokeColor=none;fillColor=none;align=center;verticalAlign=middle;whiteSpace=wrap;rounded=0;fontSize=16;" parent="1" vertex="1">
          <mxGeometry x="810" y="1080" width="90" height="40" as="geometry" />
        </mxCell>
        <mxCell id="2PzDrXG9zK0gIluA2ejx-220" style="edgeStyle=orthogonalEdgeStyle;rounded=0;orthogonalLoop=1;jettySize=auto;html=1;entryX=0.556;entryY=1;entryDx=0;entryDy=0;entryPerimeter=0;fontSize=16;" parent="1" source="2PzDrXG9zK0gIluA2ejx-221" target="2PzDrXG9zK0gIluA2ejx-214" edge="1">
          <mxGeometry relative="1" as="geometry" />
        </mxCell>
        <mxCell id="2PzDrXG9zK0gIluA2ejx-221" value="Context" style="text;html=1;strokeColor=none;fillColor=none;align=center;verticalAlign=middle;whiteSpace=wrap;rounded=0;fontSize=16;" parent="1" vertex="1">
          <mxGeometry x="830" y="1000" width="60" height="40" as="geometry" />
        </mxCell>
        <mxCell id="2PzDrXG9zK0gIluA2ejx-229" style="edgeStyle=orthogonalEdgeStyle;rounded=0;orthogonalLoop=1;jettySize=auto;html=1;entryX=0;entryY=0.5;entryDx=0;entryDy=0;fontSize=16;" parent="1" source="2PzDrXG9zK0gIluA2ejx-222" target="2PzDrXG9zK0gIluA2ejx-216" edge="1">
          <mxGeometry relative="1" as="geometry" />
        </mxCell>
        <mxCell id="2PzDrXG9zK0gIluA2ejx-222" value="&lt;span style=&quot;font-size: 16px&quot;&gt;多个&lt;/span&gt;" style="rounded=0;whiteSpace=wrap;html=1;" parent="1" vertex="1">
          <mxGeometry x="600" y="1000" width="120" height="120" as="geometry" />
        </mxCell>
        <mxCell id="2PzDrXG9zK0gIluA2ejx-223" value="" style="endArrow=none;html=1;exitX=0;exitY=0.333;exitDx=0;exitDy=0;exitPerimeter=0;" parent="1" source="2PzDrXG9zK0gIluA2ejx-222" edge="1">
          <mxGeometry width="50" height="50" relative="1" as="geometry">
            <mxPoint x="750" y="1070" as="sourcePoint" />
            <mxPoint x="719.9999999999995" y="1040" as="targetPoint" />
          </mxGeometry>
        </mxCell>
        <mxCell id="2PzDrXG9zK0gIluA2ejx-224" value="" style="endArrow=none;html=1;exitX=0;exitY=0.333;exitDx=0;exitDy=0;exitPerimeter=0;" parent="1" edge="1">
          <mxGeometry width="50" height="50" relative="1" as="geometry">
            <mxPoint x="599.9999999999995" y="1080" as="sourcePoint" />
            <mxPoint x="719.9999999999995" y="1080.04" as="targetPoint" />
          </mxGeometry>
        </mxCell>
        <mxCell id="2PzDrXG9zK0gIluA2ejx-225" value="+start()&lt;br&gt;+stop()" style="text;html=1;strokeColor=none;fillColor=none;align=center;verticalAlign=middle;whiteSpace=wrap;rounded=0;fontSize=16;" parent="1" vertex="1">
          <mxGeometry x="610" y="1080" width="90" height="40" as="geometry" />
        </mxCell>
        <mxCell id="2PzDrXG9zK0gIluA2ejx-226" value="Wrapper" style="text;html=1;strokeColor=none;fillColor=none;align=center;verticalAlign=middle;whiteSpace=wrap;rounded=0;fontSize=16;" parent="1" vertex="1">
          <mxGeometry x="630" y="1000" width="60" height="40" as="geometry" />
        </mxCell>
        <mxCell id="2PzDrXG9zK0gIluA2ejx-230" value="" style="edgeStyle=orthogonalEdgeStyle;rounded=0;orthogonalLoop=1;jettySize=auto;html=1;fontSize=16;entryX=0.5;entryY=1;entryDx=0;entryDy=0;" parent="1" source="2PzDrXG9zK0gIluA2ejx-231" target="2PzDrXG9zK0gIluA2ejx-248" edge="1">
          <mxGeometry relative="1" as="geometry" />
        </mxCell>
        <mxCell id="2PzDrXG9zK0gIluA2ejx-231" value="&lt;span style=&quot;color: rgb(0 , 0 , 0) ; font-family: &amp;#34;helvetica&amp;#34; ; font-size: 16px ; font-style: normal ; font-weight: 400 ; letter-spacing: normal ; text-align: center ; text-indent: 0px ; text-transform: none ; word-spacing: 0px ; background-color: rgb(248 , 249 , 250) ; display: inline ; float: none&quot;&gt;多个&lt;/span&gt;" style="rounded=0;whiteSpace=wrap;html=1;" parent="1" vertex="1">
          <mxGeometry x="1120" y="720" width="120" height="120" as="geometry" />
        </mxCell>
        <mxCell id="2PzDrXG9zK0gIluA2ejx-232" value="" style="endArrow=none;html=1;exitX=0;exitY=0.333;exitDx=0;exitDy=0;exitPerimeter=0;" parent="1" source="2PzDrXG9zK0gIluA2ejx-231" edge="1">
          <mxGeometry width="50" height="50" relative="1" as="geometry">
            <mxPoint x="1270" y="790" as="sourcePoint" />
            <mxPoint x="1239.9999999999995" y="759.9999999999998" as="targetPoint" />
          </mxGeometry>
        </mxCell>
        <mxCell id="2PzDrXG9zK0gIluA2ejx-233" value="" style="endArrow=none;html=1;exitX=0;exitY=0.333;exitDx=0;exitDy=0;exitPerimeter=0;" parent="1" edge="1">
          <mxGeometry width="50" height="50" relative="1" as="geometry">
            <mxPoint x="1120" y="799.9999999999998" as="sourcePoint" />
            <mxPoint x="1239.9999999999995" y="800.04" as="targetPoint" />
          </mxGeometry>
        </mxCell>
        <mxCell id="2PzDrXG9zK0gIluA2ejx-234" value="+start()&lt;br&gt;+stop()" style="text;html=1;strokeColor=none;fillColor=none;align=center;verticalAlign=middle;whiteSpace=wrap;rounded=0;fontSize=16;" parent="1" vertex="1">
          <mxGeometry x="1130" y="800" width="90" height="40" as="geometry" />
        </mxCell>
        <mxCell id="2PzDrXG9zK0gIluA2ejx-235" value="Server" style="text;html=1;strokeColor=none;fillColor=none;align=center;verticalAlign=middle;whiteSpace=wrap;rounded=0;fontSize=16;" parent="1" vertex="1">
          <mxGeometry x="1150" y="720" width="60" height="40" as="geometry" />
        </mxCell>
        <mxCell id="2PzDrXG9zK0gIluA2ejx-236" value="&lt;span style=&quot;font-size: 16px&quot;&gt;一个&lt;/span&gt;" style="rounded=0;whiteSpace=wrap;html=1;" parent="1" vertex="1">
          <mxGeometry x="1280" y="840" width="120" height="120" as="geometry" />
        </mxCell>
        <mxCell id="2PzDrXG9zK0gIluA2ejx-237" value="" style="endArrow=none;html=1;exitX=0;exitY=0.333;exitDx=0;exitDy=0;exitPerimeter=0;" parent="1" source="2PzDrXG9zK0gIluA2ejx-236" edge="1">
          <mxGeometry width="50" height="50" relative="1" as="geometry">
            <mxPoint x="1430" y="910" as="sourcePoint" />
            <mxPoint x="1399.9999999999995" y="879.9999999999998" as="targetPoint" />
          </mxGeometry>
        </mxCell>
        <mxCell id="2PzDrXG9zK0gIluA2ejx-238" value="" style="endArrow=none;html=1;exitX=0;exitY=0.333;exitDx=0;exitDy=0;exitPerimeter=0;" parent="1" edge="1">
          <mxGeometry width="50" height="50" relative="1" as="geometry">
            <mxPoint x="1279.9999999999995" y="920" as="sourcePoint" />
            <mxPoint x="1399.9999999999995" y="920.04" as="targetPoint" />
          </mxGeometry>
        </mxCell>
        <mxCell id="2PzDrXG9zK0gIluA2ejx-239" value="+start()&lt;br&gt;+stop()" style="text;html=1;strokeColor=none;fillColor=none;align=center;verticalAlign=middle;whiteSpace=wrap;rounded=0;fontSize=16;" parent="1" vertex="1">
          <mxGeometry x="1290" y="920" width="90" height="40" as="geometry" />
        </mxCell>
        <mxCell id="2PzDrXG9zK0gIluA2ejx-240" style="edgeStyle=orthogonalEdgeStyle;rounded=0;orthogonalLoop=1;jettySize=auto;html=1;entryX=1;entryY=0.5;entryDx=0;entryDy=0;fontSize=16;exitX=0.5;exitY=0;exitDx=0;exitDy=0;dashed=1;" parent="1" source="2PzDrXG9zK0gIluA2ejx-241" target="2PzDrXG9zK0gIluA2ejx-231" edge="1">
          <mxGeometry relative="1" as="geometry">
            <Array as="points">
              <mxPoint x="1340" y="780" />
            </Array>
          </mxGeometry>
        </mxCell>
        <mxCell id="2PzDrXG9zK0gIluA2ejx-241" value="Engine" style="text;html=1;strokeColor=none;fillColor=none;align=center;verticalAlign=middle;whiteSpace=wrap;rounded=0;fontSize=16;" parent="1" vertex="1">
          <mxGeometry x="1310" y="840" width="60" height="40" as="geometry" />
        </mxCell>
        <mxCell id="2PzDrXG9zK0gIluA2ejx-242" value="&lt;font style=&quot;font-size: 16px&quot;&gt;多个&lt;/font&gt;" style="rounded=0;whiteSpace=wrap;html=1;" parent="1" vertex="1">
          <mxGeometry x="960" y="840" width="120" height="120" as="geometry" />
        </mxCell>
        <mxCell id="2PzDrXG9zK0gIluA2ejx-243" value="" style="endArrow=none;html=1;exitX=0;exitY=0.333;exitDx=0;exitDy=0;exitPerimeter=0;" parent="1" source="2PzDrXG9zK0gIluA2ejx-242" edge="1">
          <mxGeometry width="50" height="50" relative="1" as="geometry">
            <mxPoint x="1110" y="910" as="sourcePoint" />
            <mxPoint x="1080" y="879.9999999999998" as="targetPoint" />
          </mxGeometry>
        </mxCell>
        <mxCell id="2PzDrXG9zK0gIluA2ejx-244" value="" style="endArrow=none;html=1;exitX=0;exitY=0.333;exitDx=0;exitDy=0;exitPerimeter=0;" parent="1" edge="1">
          <mxGeometry width="50" height="50" relative="1" as="geometry">
            <mxPoint x="960" y="920" as="sourcePoint" />
            <mxPoint x="1080" y="920.04" as="targetPoint" />
          </mxGeometry>
        </mxCell>
        <mxCell id="2PzDrXG9zK0gIluA2ejx-245" value="+start()&lt;br&gt;+stop()" style="text;html=1;strokeColor=none;fillColor=none;align=center;verticalAlign=middle;whiteSpace=wrap;rounded=0;fontSize=16;" parent="1" vertex="1">
          <mxGeometry x="970" y="920" width="90" height="40" as="geometry" />
        </mxCell>
        <mxCell id="2PzDrXG9zK0gIluA2ejx-246" style="edgeStyle=orthogonalEdgeStyle;rounded=0;orthogonalLoop=1;jettySize=auto;html=1;entryX=0;entryY=0.5;entryDx=0;entryDy=0;fontSize=16;" parent="1" source="2PzDrXG9zK0gIluA2ejx-247" target="2PzDrXG9zK0gIluA2ejx-231" edge="1">
          <mxGeometry relative="1" as="geometry">
            <Array as="points">
              <mxPoint x="1020" y="780" />
            </Array>
          </mxGeometry>
        </mxCell>
        <mxCell id="2PzDrXG9zK0gIluA2ejx-247" value="Connector" style="text;html=1;strokeColor=none;fillColor=none;align=center;verticalAlign=middle;whiteSpace=wrap;rounded=0;fontSize=16;" parent="1" vertex="1">
          <mxGeometry x="990" y="840" width="60" height="40" as="geometry" />
        </mxCell>
        <mxCell id="2PzDrXG9zK0gIluA2ejx-248" value="&lt;span style=&quot;color: rgb(0 , 0 , 0) ; font-family: &amp;#34;helvetica&amp;#34; ; font-size: 16px ; font-style: normal ; font-weight: 400 ; letter-spacing: normal ; text-align: center ; text-indent: 0px ; text-transform: none ; word-spacing: 0px ; background-color: rgb(248 , 249 , 250) ; display: inline ; float: none&quot;&gt;一个&lt;/span&gt;" style="rounded=0;whiteSpace=wrap;html=1;" parent="1" vertex="1">
          <mxGeometry x="1120" y="560" width="120" height="120" as="geometry" />
        </mxCell>
        <mxCell id="2PzDrXG9zK0gIluA2ejx-249" value="" style="endArrow=none;html=1;exitX=0;exitY=0.333;exitDx=0;exitDy=0;exitPerimeter=0;" parent="1" source="2PzDrXG9zK0gIluA2ejx-248" edge="1">
          <mxGeometry width="50" height="50" relative="1" as="geometry">
            <mxPoint x="1270" y="630" as="sourcePoint" />
            <mxPoint x="1239.9999999999995" y="599.9999999999998" as="targetPoint" />
          </mxGeometry>
        </mxCell>
        <mxCell id="2PzDrXG9zK0gIluA2ejx-250" value="" style="endArrow=none;html=1;exitX=0;exitY=0.333;exitDx=0;exitDy=0;exitPerimeter=0;" parent="1" edge="1">
          <mxGeometry width="50" height="50" relative="1" as="geometry">
            <mxPoint x="1120" y="639.9999999999998" as="sourcePoint" />
            <mxPoint x="1239.9999999999995" y="640.04" as="targetPoint" />
          </mxGeometry>
        </mxCell>
        <mxCell id="2PzDrXG9zK0gIluA2ejx-251" value="+start()&lt;br&gt;+stop()" style="text;html=1;strokeColor=none;fillColor=none;align=center;verticalAlign=middle;whiteSpace=wrap;rounded=0;fontSize=16;" parent="1" vertex="1">
          <mxGeometry x="1140" y="640" width="80" height="40" as="geometry" />
        </mxCell>
        <mxCell id="2PzDrXG9zK0gIluA2ejx-252" value="Server" style="text;html=1;strokeColor=none;fillColor=none;align=center;verticalAlign=middle;whiteSpace=wrap;rounded=0;fontSize=16;" parent="1" vertex="1">
          <mxGeometry x="1150" y="560" width="60" height="40" as="geometry" />
        </mxCell>
        <mxCell id="2PzDrXG9zK0gIluA2ejx-253" value="" style="edgeStyle=orthogonalEdgeStyle;rounded=0;orthogonalLoop=1;jettySize=auto;html=1;fontSize=16;entryX=1;entryY=0.5;entryDx=0;entryDy=0;dashed=1;" parent="1" source="2PzDrXG9zK0gIluA2ejx-254" target="2PzDrXG9zK0gIluA2ejx-236" edge="1">
          <mxGeometry relative="1" as="geometry" />
        </mxCell>
        <mxCell id="2PzDrXG9zK0gIluA2ejx-288" style="edgeStyle=orthogonalEdgeStyle;rounded=0;orthogonalLoop=1;jettySize=auto;html=1;entryX=1;entryY=0.5;entryDx=0;entryDy=0;endArrow=blockThin;endFill=0;fontSize=16;" parent="1" source="2PzDrXG9zK0gIluA2ejx-254" target="2PzDrXG9zK0gIluA2ejx-276" edge="1">
          <mxGeometry relative="1" as="geometry">
            <Array as="points">
              <mxPoint x="1550" y="710" />
            </Array>
          </mxGeometry>
        </mxCell>
        <mxCell id="2PzDrXG9zK0gIluA2ejx-254" value="&lt;span style=&quot;font-size: 16px&quot;&gt;多个&lt;/span&gt;" style="rounded=0;whiteSpace=wrap;html=1;" parent="1" vertex="1">
          <mxGeometry x="1480" y="840" width="120" height="120" as="geometry" />
        </mxCell>
        <mxCell id="2PzDrXG9zK0gIluA2ejx-255" value="" style="endArrow=none;html=1;exitX=0;exitY=0.333;exitDx=0;exitDy=0;exitPerimeter=0;" parent="1" source="2PzDrXG9zK0gIluA2ejx-254" edge="1">
          <mxGeometry width="50" height="50" relative="1" as="geometry">
            <mxPoint x="1630" y="910" as="sourcePoint" />
            <mxPoint x="1599.9999999999995" y="879.9999999999998" as="targetPoint" />
          </mxGeometry>
        </mxCell>
        <mxCell id="2PzDrXG9zK0gIluA2ejx-256" value="" style="endArrow=none;html=1;exitX=0;exitY=0.333;exitDx=0;exitDy=0;exitPerimeter=0;" parent="1" edge="1">
          <mxGeometry width="50" height="50" relative="1" as="geometry">
            <mxPoint x="1479.9999999999995" y="920" as="sourcePoint" />
            <mxPoint x="1599.9999999999995" y="920.04" as="targetPoint" />
          </mxGeometry>
        </mxCell>
        <mxCell id="2PzDrXG9zK0gIluA2ejx-257" value="+start()&lt;br&gt;+stop()" style="text;html=1;strokeColor=none;fillColor=none;align=center;verticalAlign=middle;whiteSpace=wrap;rounded=0;fontSize=16;" parent="1" vertex="1">
          <mxGeometry x="1490" y="920" width="90" height="40" as="geometry" />
        </mxCell>
        <mxCell id="2PzDrXG9zK0gIluA2ejx-258" value="Host" style="text;html=1;strokeColor=none;fillColor=none;align=center;verticalAlign=middle;whiteSpace=wrap;rounded=0;fontSize=16;" parent="1" vertex="1">
          <mxGeometry x="1510" y="840" width="60" height="40" as="geometry" />
        </mxCell>
        <mxCell id="2PzDrXG9zK0gIluA2ejx-259" value="&lt;span style=&quot;font-size: 16px&quot;&gt;多个&lt;/span&gt;" style="rounded=0;whiteSpace=wrap;html=1;" parent="1" vertex="1">
          <mxGeometry x="1480" y="1000" width="120" height="120" as="geometry" />
        </mxCell>
        <mxCell id="2PzDrXG9zK0gIluA2ejx-260" value="" style="endArrow=none;html=1;exitX=0;exitY=0.333;exitDx=0;exitDy=0;exitPerimeter=0;" parent="1" source="2PzDrXG9zK0gIluA2ejx-259" edge="1">
          <mxGeometry width="50" height="50" relative="1" as="geometry">
            <mxPoint x="1630" y="1070" as="sourcePoint" />
            <mxPoint x="1599.9999999999995" y="1040" as="targetPoint" />
          </mxGeometry>
        </mxCell>
        <mxCell id="2PzDrXG9zK0gIluA2ejx-261" value="" style="endArrow=none;html=1;exitX=0;exitY=0.333;exitDx=0;exitDy=0;exitPerimeter=0;" parent="1" edge="1">
          <mxGeometry width="50" height="50" relative="1" as="geometry">
            <mxPoint x="1479.9999999999995" y="1080" as="sourcePoint" />
            <mxPoint x="1599.9999999999995" y="1080.04" as="targetPoint" />
          </mxGeometry>
        </mxCell>
        <mxCell id="2PzDrXG9zK0gIluA2ejx-262" value="+start()&lt;br&gt;+stop()" style="text;html=1;strokeColor=none;fillColor=none;align=center;verticalAlign=middle;whiteSpace=wrap;rounded=0;fontSize=16;" parent="1" vertex="1">
          <mxGeometry x="1490" y="1080" width="90" height="40" as="geometry" />
        </mxCell>
        <mxCell id="2PzDrXG9zK0gIluA2ejx-263" style="edgeStyle=orthogonalEdgeStyle;rounded=0;orthogonalLoop=1;jettySize=auto;html=1;entryX=0.556;entryY=1;entryDx=0;entryDy=0;entryPerimeter=0;fontSize=16;dashed=1;" parent="1" source="2PzDrXG9zK0gIluA2ejx-264" target="2PzDrXG9zK0gIluA2ejx-257" edge="1">
          <mxGeometry relative="1" as="geometry" />
        </mxCell>
        <mxCell id="2PzDrXG9zK0gIluA2ejx-264" value="Context" style="text;html=1;strokeColor=none;fillColor=none;align=center;verticalAlign=middle;whiteSpace=wrap;rounded=0;fontSize=16;" parent="1" vertex="1">
          <mxGeometry x="1510" y="1000" width="60" height="40" as="geometry" />
        </mxCell>
        <mxCell id="2PzDrXG9zK0gIluA2ejx-265" style="edgeStyle=orthogonalEdgeStyle;rounded=0;orthogonalLoop=1;jettySize=auto;html=1;entryX=0;entryY=0.5;entryDx=0;entryDy=0;fontSize=16;dashed=1;" parent="1" source="2PzDrXG9zK0gIluA2ejx-266" target="2PzDrXG9zK0gIluA2ejx-259" edge="1">
          <mxGeometry relative="1" as="geometry" />
        </mxCell>
        <mxCell id="2PzDrXG9zK0gIluA2ejx-266" value="&lt;span style=&quot;font-size: 16px&quot;&gt;多个&lt;/span&gt;" style="rounded=0;whiteSpace=wrap;html=1;" parent="1" vertex="1">
          <mxGeometry x="1280" y="1000" width="120" height="120" as="geometry" />
        </mxCell>
        <mxCell id="2PzDrXG9zK0gIluA2ejx-267" value="" style="endArrow=none;html=1;exitX=0;exitY=0.333;exitDx=0;exitDy=0;exitPerimeter=0;" parent="1" source="2PzDrXG9zK0gIluA2ejx-266" edge="1">
          <mxGeometry width="50" height="50" relative="1" as="geometry">
            <mxPoint x="1430" y="1070" as="sourcePoint" />
            <mxPoint x="1399.9999999999995" y="1040" as="targetPoint" />
          </mxGeometry>
        </mxCell>
        <mxCell id="2PzDrXG9zK0gIluA2ejx-268" value="" style="endArrow=none;html=1;exitX=0;exitY=0.333;exitDx=0;exitDy=0;exitPerimeter=0;" parent="1" edge="1">
          <mxGeometry width="50" height="50" relative="1" as="geometry">
            <mxPoint x="1279.9999999999995" y="1080" as="sourcePoint" />
            <mxPoint x="1399.9999999999995" y="1080.04" as="targetPoint" />
          </mxGeometry>
        </mxCell>
        <mxCell id="2PzDrXG9zK0gIluA2ejx-269" value="+start()&lt;br&gt;+stop()" style="text;html=1;strokeColor=none;fillColor=none;align=center;verticalAlign=middle;whiteSpace=wrap;rounded=0;fontSize=16;" parent="1" vertex="1">
          <mxGeometry x="1290" y="1080" width="90" height="40" as="geometry" />
        </mxCell>
        <mxCell id="2PzDrXG9zK0gIluA2ejx-270" value="Wrapper" style="text;html=1;strokeColor=none;fillColor=none;align=center;verticalAlign=middle;whiteSpace=wrap;rounded=0;fontSize=16;" parent="1" vertex="1">
          <mxGeometry x="1310" y="1000" width="60" height="40" as="geometry" />
        </mxCell>
        <mxCell id="2PzDrXG9zK0gIluA2ejx-276" value="" style="rounded=0;whiteSpace=wrap;html=1;" parent="1" vertex="1">
          <mxGeometry x="1370" y="650" width="160" height="120" as="geometry" />
        </mxCell>
        <mxCell id="2PzDrXG9zK0gIluA2ejx-277" value="" style="endArrow=none;html=1;exitX=0;exitY=0.333;exitDx=0;exitDy=0;exitPerimeter=0;" parent="1" source="2PzDrXG9zK0gIluA2ejx-276" edge="1">
          <mxGeometry width="50" height="50" relative="1" as="geometry">
            <mxPoint x="1560" y="720" as="sourcePoint" />
            <mxPoint x="1529.9999999999995" y="689.9999999999998" as="targetPoint" />
          </mxGeometry>
        </mxCell>
        <mxCell id="2PzDrXG9zK0gIluA2ejx-278" value="" style="endArrow=none;html=1;exitX=-0.007;exitY=0.667;exitDx=0;exitDy=0;exitPerimeter=0;" parent="1" source="2PzDrXG9zK0gIluA2ejx-276" edge="1">
          <mxGeometry width="50" height="50" relative="1" as="geometry">
            <mxPoint x="1409.9999999999995" y="730" as="sourcePoint" />
            <mxPoint x="1529.9999999999995" y="730.04" as="targetPoint" />
          </mxGeometry>
        </mxCell>
        <mxCell id="2PzDrXG9zK0gIluA2ejx-279" value="+addChild()&lt;br&gt;+backgroundProcess()" style="text;html=1;strokeColor=none;fillColor=none;align=center;verticalAlign=middle;whiteSpace=wrap;rounded=0;fontSize=16;" parent="1" vertex="1">
          <mxGeometry x="1405" y="730" width="90" height="40" as="geometry" />
        </mxCell>
        <mxCell id="2PzDrXG9zK0gIluA2ejx-280" value="Container" style="text;html=1;strokeColor=none;fillColor=none;align=center;verticalAlign=middle;whiteSpace=wrap;rounded=0;fontSize=16;" parent="1" vertex="1">
          <mxGeometry x="1420" y="650" width="60" height="40" as="geometry" />
        </mxCell>
        <mxCell id="2PzDrXG9zK0gIluA2ejx-281" value="" style="endArrow=block;html=1;fontSize=16;entryX=0;entryY=0.5;entryDx=0;entryDy=0;exitX=0.64;exitY=-0.07;exitDx=0;exitDy=0;exitPerimeter=0;endFill=0;" parent="1" source="2PzDrXG9zK0gIluA2ejx-241" target="2PzDrXG9zK0gIluA2ejx-276" edge="1">
          <mxGeometry width="50" height="50" relative="1" as="geometry">
            <mxPoint x="1310" y="790" as="sourcePoint" />
            <mxPoint x="1360" y="740" as="targetPoint" />
            <Array as="points">
              <mxPoint x="1350" y="710" />
            </Array>
          </mxGeometry>
        </mxCell>
        <mxCell id="2PzDrXG9zK0gIluA2ejx-286" value="" style="endArrow=none;html=1;fontSize=16;entryX=0.167;entryY=0;entryDx=0;entryDy=0;entryPerimeter=0;exitX=0.807;exitY=-0.01;exitDx=0;exitDy=0;exitPerimeter=0;" parent="1" source="2PzDrXG9zK0gIluA2ejx-270" target="2PzDrXG9zK0gIluA2ejx-264" edge="1">
          <mxGeometry width="50" height="50" relative="1" as="geometry">
            <mxPoint x="1420" y="1020" as="sourcePoint" />
            <mxPoint x="1470" y="970" as="targetPoint" />
            <Array as="points">
              <mxPoint x="1358" y="970" />
              <mxPoint x="1440" y="970" />
              <mxPoint x="1520" y="970" />
            </Array>
          </mxGeometry>
        </mxCell>
        <mxCell id="2PzDrXG9zK0gIluA2ejx-287" value="" style="endArrow=block;html=1;fontSize=16;entryX=0.393;entryY=1.03;entryDx=0;entryDy=0;entryPerimeter=0;endFill=0;" parent="1" target="2PzDrXG9zK0gIluA2ejx-279" edge="1">
          <mxGeometry width="50" height="50" relative="1" as="geometry">
            <mxPoint x="1440" y="970" as="sourcePoint" />
            <mxPoint x="1460" y="780" as="targetPoint" />
          </mxGeometry>
        </mxCell>
        <mxCell id="h1SYDEZznEwpBPc92iE0-1" value="" style="edgeStyle=orthogonalEdgeStyle;rounded=0;orthogonalLoop=1;jettySize=auto;html=1;fontSize=16;entryX=0.5;entryY=1;entryDx=0;entryDy=0;" parent="1" source="h1SYDEZznEwpBPc92iE0-2" target="h1SYDEZznEwpBPc92iE0-19" edge="1">
          <mxGeometry relative="1" as="geometry" />
        </mxCell>
        <mxCell id="h1SYDEZznEwpBPc92iE0-2" value="&lt;span style=&quot;color: rgb(0 , 0 , 0) ; font-family: &amp;#34;helvetica&amp;#34; ; font-size: 16px ; font-style: normal ; font-weight: 400 ; letter-spacing: normal ; text-align: center ; text-indent: 0px ; text-transform: none ; word-spacing: 0px ; background-color: rgb(248 , 249 , 250) ; display: inline ; float: none&quot;&gt;多个&lt;/span&gt;" style="rounded=0;whiteSpace=wrap;html=1;" parent="1" vertex="1">
          <mxGeometry x="1840" y="920" width="120" height="120" as="geometry" />
        </mxCell>
        <mxCell id="h1SYDEZznEwpBPc92iE0-3" value="" style="endArrow=none;html=1;exitX=0;exitY=0.333;exitDx=0;exitDy=0;exitPerimeter=0;" parent="1" source="h1SYDEZznEwpBPc92iE0-2" edge="1">
          <mxGeometry width="50" height="50" relative="1" as="geometry">
            <mxPoint x="1990" y="990" as="sourcePoint" />
            <mxPoint x="1959.9999999999995" y="959.9999999999998" as="targetPoint" />
          </mxGeometry>
        </mxCell>
        <mxCell id="h1SYDEZznEwpBPc92iE0-4" value="" style="endArrow=none;html=1;exitX=0;exitY=0.333;exitDx=0;exitDy=0;exitPerimeter=0;" parent="1" edge="1">
          <mxGeometry width="50" height="50" relative="1" as="geometry">
            <mxPoint x="1840" y="999.9999999999998" as="sourcePoint" />
            <mxPoint x="1959.9999999999995" y="1000.04" as="targetPoint" />
          </mxGeometry>
        </mxCell>
        <mxCell id="h1SYDEZznEwpBPc92iE0-5" value="+start()&lt;br&gt;+stop()" style="text;html=1;strokeColor=none;fillColor=none;align=center;verticalAlign=middle;whiteSpace=wrap;rounded=0;fontSize=16;" parent="1" vertex="1">
          <mxGeometry x="1850" y="1000" width="90" height="40" as="geometry" />
        </mxCell>
        <mxCell id="h1SYDEZznEwpBPc92iE0-6" value="Server" style="text;html=1;strokeColor=none;fillColor=none;align=center;verticalAlign=middle;whiteSpace=wrap;rounded=0;fontSize=16;" parent="1" vertex="1">
          <mxGeometry x="1870" y="920" width="60" height="40" as="geometry" />
        </mxCell>
        <mxCell id="h1SYDEZznEwpBPc92iE0-7" value="&lt;span style=&quot;font-size: 16px&quot;&gt;一个&lt;/span&gt;" style="rounded=0;whiteSpace=wrap;html=1;" parent="1" vertex="1">
          <mxGeometry x="2000" y="1040" width="120" height="120" as="geometry" />
        </mxCell>
        <mxCell id="h1SYDEZznEwpBPc92iE0-8" value="" style="endArrow=none;html=1;exitX=0;exitY=0.333;exitDx=0;exitDy=0;exitPerimeter=0;" parent="1" source="h1SYDEZznEwpBPc92iE0-7" edge="1">
          <mxGeometry width="50" height="50" relative="1" as="geometry">
            <mxPoint x="2150" y="1110" as="sourcePoint" />
            <mxPoint x="2119.9999999999995" y="1079.9999999999998" as="targetPoint" />
          </mxGeometry>
        </mxCell>
        <mxCell id="h1SYDEZznEwpBPc92iE0-9" value="" style="endArrow=none;html=1;exitX=0;exitY=0.333;exitDx=0;exitDy=0;exitPerimeter=0;" parent="1" edge="1">
          <mxGeometry width="50" height="50" relative="1" as="geometry">
            <mxPoint x="1999.9999999999995" y="1120" as="sourcePoint" />
            <mxPoint x="2119.9999999999995" y="1120.04" as="targetPoint" />
          </mxGeometry>
        </mxCell>
        <mxCell id="h1SYDEZznEwpBPc92iE0-10" value="+start()&lt;br&gt;+stop()" style="text;html=1;strokeColor=none;fillColor=none;align=center;verticalAlign=middle;whiteSpace=wrap;rounded=0;fontSize=16;" parent="1" vertex="1">
          <mxGeometry x="2010" y="1120" width="90" height="40" as="geometry" />
        </mxCell>
        <mxCell id="h1SYDEZznEwpBPc92iE0-11" style="edgeStyle=orthogonalEdgeStyle;rounded=0;orthogonalLoop=1;jettySize=auto;html=1;entryX=1;entryY=0.5;entryDx=0;entryDy=0;fontSize=16;exitX=0.5;exitY=0;exitDx=0;exitDy=0;dashed=1;" parent="1" source="h1SYDEZznEwpBPc92iE0-12" target="h1SYDEZznEwpBPc92iE0-2" edge="1">
          <mxGeometry relative="1" as="geometry">
            <Array as="points">
              <mxPoint x="2060" y="980" />
            </Array>
          </mxGeometry>
        </mxCell>
        <mxCell id="h1SYDEZznEwpBPc92iE0-12" value="Engine" style="text;html=1;strokeColor=none;fillColor=none;align=center;verticalAlign=middle;whiteSpace=wrap;rounded=0;fontSize=16;" parent="1" vertex="1">
          <mxGeometry x="2030" y="1040" width="60" height="40" as="geometry" />
        </mxCell>
        <mxCell id="h1SYDEZznEwpBPc92iE0-13" value="&lt;font style=&quot;font-size: 16px&quot;&gt;多个&lt;/font&gt;" style="rounded=0;whiteSpace=wrap;html=1;" parent="1" vertex="1">
          <mxGeometry x="1680" y="1040" width="120" height="120" as="geometry" />
        </mxCell>
        <mxCell id="h1SYDEZznEwpBPc92iE0-14" value="" style="endArrow=none;html=1;exitX=0;exitY=0.333;exitDx=0;exitDy=0;exitPerimeter=0;" parent="1" source="h1SYDEZznEwpBPc92iE0-13" edge="1">
          <mxGeometry width="50" height="50" relative="1" as="geometry">
            <mxPoint x="1830" y="1110" as="sourcePoint" />
            <mxPoint x="1800" y="1079.9999999999998" as="targetPoint" />
          </mxGeometry>
        </mxCell>
        <mxCell id="h1SYDEZznEwpBPc92iE0-15" value="" style="endArrow=none;html=1;exitX=0;exitY=0.333;exitDx=0;exitDy=0;exitPerimeter=0;" parent="1" edge="1">
          <mxGeometry width="50" height="50" relative="1" as="geometry">
            <mxPoint x="1680" y="1120" as="sourcePoint" />
            <mxPoint x="1800" y="1120.04" as="targetPoint" />
          </mxGeometry>
        </mxCell>
        <mxCell id="h1SYDEZznEwpBPc92iE0-16" value="+start()&lt;br&gt;+stop()" style="text;html=1;strokeColor=none;fillColor=none;align=center;verticalAlign=middle;whiteSpace=wrap;rounded=0;fontSize=16;" parent="1" vertex="1">
          <mxGeometry x="1690" y="1120" width="90" height="40" as="geometry" />
        </mxCell>
        <mxCell id="h1SYDEZznEwpBPc92iE0-17" style="edgeStyle=orthogonalEdgeStyle;rounded=0;orthogonalLoop=1;jettySize=auto;html=1;entryX=0;entryY=0.5;entryDx=0;entryDy=0;fontSize=16;" parent="1" source="h1SYDEZznEwpBPc92iE0-18" target="h1SYDEZznEwpBPc92iE0-2" edge="1">
          <mxGeometry relative="1" as="geometry">
            <Array as="points">
              <mxPoint x="1740" y="980" />
            </Array>
          </mxGeometry>
        </mxCell>
        <mxCell id="h1SYDEZznEwpBPc92iE0-18" value="Connector" style="text;html=1;strokeColor=none;fillColor=none;align=center;verticalAlign=middle;whiteSpace=wrap;rounded=0;fontSize=16;" parent="1" vertex="1">
          <mxGeometry x="1710" y="1040" width="60" height="40" as="geometry" />
        </mxCell>
        <mxCell id="h1SYDEZznEwpBPc92iE0-19" value="&lt;span style=&quot;color: rgb(0 , 0 , 0) ; font-family: &amp;#34;helvetica&amp;#34; ; font-size: 16px ; font-style: normal ; font-weight: 400 ; letter-spacing: normal ; text-align: center ; text-indent: 0px ; text-transform: none ; word-spacing: 0px ; background-color: rgb(248 , 249 , 250) ; display: inline ; float: none&quot;&gt;一个&lt;/span&gt;" style="rounded=0;whiteSpace=wrap;html=1;" parent="1" vertex="1">
          <mxGeometry x="1840" y="760" width="120" height="120" as="geometry" />
        </mxCell>
        <mxCell id="h1SYDEZznEwpBPc92iE0-20" value="" style="endArrow=none;html=1;exitX=0;exitY=0.333;exitDx=0;exitDy=0;exitPerimeter=0;" parent="1" source="h1SYDEZznEwpBPc92iE0-19" edge="1">
          <mxGeometry width="50" height="50" relative="1" as="geometry">
            <mxPoint x="1990" y="830" as="sourcePoint" />
            <mxPoint x="1959.9999999999995" y="799.9999999999998" as="targetPoint" />
          </mxGeometry>
        </mxCell>
        <mxCell id="h1SYDEZznEwpBPc92iE0-21" value="" style="endArrow=none;html=1;exitX=0;exitY=0.333;exitDx=0;exitDy=0;exitPerimeter=0;" parent="1" edge="1">
          <mxGeometry width="50" height="50" relative="1" as="geometry">
            <mxPoint x="1840" y="839.9999999999998" as="sourcePoint" />
            <mxPoint x="1959.9999999999995" y="840.04" as="targetPoint" />
          </mxGeometry>
        </mxCell>
        <mxCell id="h1SYDEZznEwpBPc92iE0-22" value="+start()&lt;br&gt;+stop()" style="text;html=1;strokeColor=none;fillColor=none;align=center;verticalAlign=middle;whiteSpace=wrap;rounded=0;fontSize=16;" parent="1" vertex="1">
          <mxGeometry x="1860" y="840" width="80" height="40" as="geometry" />
        </mxCell>
        <mxCell id="h1SYDEZznEwpBPc92iE0-23" value="Server" style="text;html=1;strokeColor=none;fillColor=none;align=center;verticalAlign=middle;whiteSpace=wrap;rounded=0;fontSize=16;" parent="1" vertex="1">
          <mxGeometry x="1870" y="760" width="60" height="40" as="geometry" />
        </mxCell>
        <mxCell id="h1SYDEZznEwpBPc92iE0-24" value="" style="edgeStyle=orthogonalEdgeStyle;rounded=0;orthogonalLoop=1;jettySize=auto;html=1;fontSize=16;entryX=1;entryY=0.5;entryDx=0;entryDy=0;dashed=1;" parent="1" source="h1SYDEZznEwpBPc92iE0-26" target="h1SYDEZznEwpBPc92iE0-7" edge="1">
          <mxGeometry relative="1" as="geometry" />
        </mxCell>
        <mxCell id="h1SYDEZznEwpBPc92iE0-25" style="edgeStyle=orthogonalEdgeStyle;rounded=0;orthogonalLoop=1;jettySize=auto;html=1;entryX=1;entryY=0.5;entryDx=0;entryDy=0;endArrow=blockThin;endFill=0;fontSize=16;" parent="1" source="h1SYDEZznEwpBPc92iE0-26" target="h1SYDEZznEwpBPc92iE0-43" edge="1">
          <mxGeometry relative="1" as="geometry">
            <Array as="points">
              <mxPoint x="2270" y="910" />
            </Array>
          </mxGeometry>
        </mxCell>
        <mxCell id="h1SYDEZznEwpBPc92iE0-26" value="&lt;span style=&quot;font-size: 16px&quot;&gt;多个&lt;/span&gt;" style="rounded=0;whiteSpace=wrap;html=1;" parent="1" vertex="1">
          <mxGeometry x="2200" y="1040" width="120" height="120" as="geometry" />
        </mxCell>
        <mxCell id="h1SYDEZznEwpBPc92iE0-27" value="" style="endArrow=none;html=1;exitX=0;exitY=0.333;exitDx=0;exitDy=0;exitPerimeter=0;" parent="1" source="h1SYDEZznEwpBPc92iE0-26" edge="1">
          <mxGeometry width="50" height="50" relative="1" as="geometry">
            <mxPoint x="2350" y="1110" as="sourcePoint" />
            <mxPoint x="2319.9999999999995" y="1079.9999999999998" as="targetPoint" />
          </mxGeometry>
        </mxCell>
        <mxCell id="h1SYDEZznEwpBPc92iE0-28" value="" style="endArrow=none;html=1;exitX=0;exitY=0.333;exitDx=0;exitDy=0;exitPerimeter=0;" parent="1" edge="1">
          <mxGeometry width="50" height="50" relative="1" as="geometry">
            <mxPoint x="2199.9999999999995" y="1120" as="sourcePoint" />
            <mxPoint x="2319.9999999999995" y="1120.04" as="targetPoint" />
          </mxGeometry>
        </mxCell>
        <mxCell id="h1SYDEZznEwpBPc92iE0-29" value="+start()&lt;br&gt;+stop()" style="text;html=1;strokeColor=none;fillColor=none;align=center;verticalAlign=middle;whiteSpace=wrap;rounded=0;fontSize=16;" parent="1" vertex="1">
          <mxGeometry x="2210" y="1120" width="90" height="40" as="geometry" />
        </mxCell>
        <mxCell id="h1SYDEZznEwpBPc92iE0-30" value="Host" style="text;html=1;strokeColor=none;fillColor=none;align=center;verticalAlign=middle;whiteSpace=wrap;rounded=0;fontSize=16;" parent="1" vertex="1">
          <mxGeometry x="2230" y="1040" width="60" height="40" as="geometry" />
        </mxCell>
        <mxCell id="h1SYDEZznEwpBPc92iE0-31" value="&lt;span style=&quot;font-size: 16px&quot;&gt;多个&lt;/span&gt;" style="rounded=0;whiteSpace=wrap;html=1;" parent="1" vertex="1">
          <mxGeometry x="2200" y="1200" width="120" height="120" as="geometry" />
        </mxCell>
        <mxCell id="h1SYDEZznEwpBPc92iE0-32" value="" style="endArrow=none;html=1;exitX=0;exitY=0.333;exitDx=0;exitDy=0;exitPerimeter=0;" parent="1" source="h1SYDEZznEwpBPc92iE0-31" edge="1">
          <mxGeometry width="50" height="50" relative="1" as="geometry">
            <mxPoint x="2350" y="1270" as="sourcePoint" />
            <mxPoint x="2319.9999999999995" y="1240" as="targetPoint" />
          </mxGeometry>
        </mxCell>
        <mxCell id="h1SYDEZznEwpBPc92iE0-33" value="" style="endArrow=none;html=1;exitX=0;exitY=0.333;exitDx=0;exitDy=0;exitPerimeter=0;" parent="1" edge="1">
          <mxGeometry width="50" height="50" relative="1" as="geometry">
            <mxPoint x="2199.9999999999995" y="1280" as="sourcePoint" />
            <mxPoint x="2319.9999999999995" y="1280.04" as="targetPoint" />
          </mxGeometry>
        </mxCell>
        <mxCell id="h1SYDEZznEwpBPc92iE0-34" value="+start()&lt;br&gt;+stop()" style="text;html=1;strokeColor=none;fillColor=none;align=center;verticalAlign=middle;whiteSpace=wrap;rounded=0;fontSize=16;" parent="1" vertex="1">
          <mxGeometry x="2210" y="1280" width="90" height="40" as="geometry" />
        </mxCell>
        <mxCell id="h1SYDEZznEwpBPc92iE0-35" style="edgeStyle=orthogonalEdgeStyle;rounded=0;orthogonalLoop=1;jettySize=auto;html=1;entryX=0.556;entryY=1;entryDx=0;entryDy=0;entryPerimeter=0;fontSize=16;dashed=1;" parent="1" source="h1SYDEZznEwpBPc92iE0-36" target="h1SYDEZznEwpBPc92iE0-29" edge="1">
          <mxGeometry relative="1" as="geometry" />
        </mxCell>
        <mxCell id="h1SYDEZznEwpBPc92iE0-36" value="Context" style="text;html=1;strokeColor=none;fillColor=none;align=center;verticalAlign=middle;whiteSpace=wrap;rounded=0;fontSize=16;" parent="1" vertex="1">
          <mxGeometry x="2230" y="1200" width="60" height="40" as="geometry" />
        </mxCell>
        <mxCell id="h1SYDEZznEwpBPc92iE0-37" style="edgeStyle=orthogonalEdgeStyle;rounded=0;orthogonalLoop=1;jettySize=auto;html=1;entryX=0;entryY=0.5;entryDx=0;entryDy=0;fontSize=16;dashed=1;" parent="1" source="h1SYDEZznEwpBPc92iE0-38" target="h1SYDEZznEwpBPc92iE0-31" edge="1">
          <mxGeometry relative="1" as="geometry" />
        </mxCell>
        <mxCell id="h1SYDEZznEwpBPc92iE0-38" value="&lt;span style=&quot;font-size: 16px&quot;&gt;多个&lt;/span&gt;" style="rounded=0;whiteSpace=wrap;html=1;" parent="1" vertex="1">
          <mxGeometry x="2000" y="1200" width="120" height="120" as="geometry" />
        </mxCell>
        <mxCell id="h1SYDEZznEwpBPc92iE0-39" value="" style="endArrow=none;html=1;exitX=0;exitY=0.333;exitDx=0;exitDy=0;exitPerimeter=0;" parent="1" source="h1SYDEZznEwpBPc92iE0-38" edge="1">
          <mxGeometry width="50" height="50" relative="1" as="geometry">
            <mxPoint x="2150" y="1270" as="sourcePoint" />
            <mxPoint x="2119.9999999999995" y="1240" as="targetPoint" />
          </mxGeometry>
        </mxCell>
        <mxCell id="h1SYDEZznEwpBPc92iE0-40" value="" style="endArrow=none;html=1;exitX=0;exitY=0.333;exitDx=0;exitDy=0;exitPerimeter=0;" parent="1" edge="1">
          <mxGeometry width="50" height="50" relative="1" as="geometry">
            <mxPoint x="1999.9999999999995" y="1280" as="sourcePoint" />
            <mxPoint x="2119.9999999999995" y="1280.04" as="targetPoint" />
          </mxGeometry>
        </mxCell>
        <mxCell id="h1SYDEZznEwpBPc92iE0-41" value="+start()&lt;br&gt;+stop()" style="text;html=1;strokeColor=none;fillColor=none;align=center;verticalAlign=middle;whiteSpace=wrap;rounded=0;fontSize=16;" parent="1" vertex="1">
          <mxGeometry x="2010" y="1280" width="90" height="40" as="geometry" />
        </mxCell>
        <mxCell id="h1SYDEZznEwpBPc92iE0-42" value="Wrapper" style="text;html=1;strokeColor=none;fillColor=none;align=center;verticalAlign=middle;whiteSpace=wrap;rounded=0;fontSize=16;" parent="1" vertex="1">
          <mxGeometry x="2030" y="1200" width="60" height="40" as="geometry" />
        </mxCell>
        <mxCell id="h1SYDEZznEwpBPc92iE0-43" value="" style="rounded=0;whiteSpace=wrap;html=1;" parent="1" vertex="1">
          <mxGeometry x="2090" y="850" width="160" height="120" as="geometry" />
        </mxCell>
        <mxCell id="h1SYDEZznEwpBPc92iE0-44" value="" style="endArrow=none;html=1;exitX=0;exitY=0.333;exitDx=0;exitDy=0;exitPerimeter=0;" parent="1" source="h1SYDEZznEwpBPc92iE0-43" edge="1">
          <mxGeometry width="50" height="50" relative="1" as="geometry">
            <mxPoint x="2280" y="920" as="sourcePoint" />
            <mxPoint x="2249.9999999999995" y="889.9999999999998" as="targetPoint" />
          </mxGeometry>
        </mxCell>
        <mxCell id="h1SYDEZznEwpBPc92iE0-45" value="" style="endArrow=none;html=1;exitX=-0.007;exitY=0.667;exitDx=0;exitDy=0;exitPerimeter=0;" parent="1" source="h1SYDEZznEwpBPc92iE0-43" edge="1">
          <mxGeometry width="50" height="50" relative="1" as="geometry">
            <mxPoint x="2129.9999999999995" y="930" as="sourcePoint" />
            <mxPoint x="2249.9999999999995" y="930.04" as="targetPoint" />
          </mxGeometry>
        </mxCell>
        <mxCell id="h1SYDEZznEwpBPc92iE0-46" value="+addChild()&lt;br&gt;+backgroundProcess()" style="text;html=1;strokeColor=none;fillColor=none;align=center;verticalAlign=middle;whiteSpace=wrap;rounded=0;fontSize=16;" parent="1" vertex="1">
          <mxGeometry x="2125" y="930" width="90" height="40" as="geometry" />
        </mxCell>
        <mxCell id="h1SYDEZznEwpBPc92iE0-47" value="Container" style="text;html=1;strokeColor=none;fillColor=none;align=center;verticalAlign=middle;whiteSpace=wrap;rounded=0;fontSize=16;" parent="1" vertex="1">
          <mxGeometry x="2140" y="850" width="60" height="40" as="geometry" />
        </mxCell>
        <mxCell id="h1SYDEZznEwpBPc92iE0-48" value="" style="endArrow=block;html=1;fontSize=16;entryX=0;entryY=0.5;entryDx=0;entryDy=0;exitX=0.64;exitY=-0.07;exitDx=0;exitDy=0;exitPerimeter=0;endFill=0;" parent="1" source="h1SYDEZznEwpBPc92iE0-12" target="h1SYDEZznEwpBPc92iE0-43" edge="1">
          <mxGeometry width="50" height="50" relative="1" as="geometry">
            <mxPoint x="2030" y="990" as="sourcePoint" />
            <mxPoint x="2080" y="940" as="targetPoint" />
            <Array as="points">
              <mxPoint x="2070" y="910" />
            </Array>
          </mxGeometry>
        </mxCell>
        <mxCell id="h1SYDEZznEwpBPc92iE0-49" value="" style="endArrow=none;html=1;fontSize=16;entryX=0.167;entryY=0;entryDx=0;entryDy=0;entryPerimeter=0;exitX=0.807;exitY=-0.01;exitDx=0;exitDy=0;exitPerimeter=0;" parent="1" source="h1SYDEZznEwpBPc92iE0-42" target="h1SYDEZznEwpBPc92iE0-36" edge="1">
          <mxGeometry width="50" height="50" relative="1" as="geometry">
            <mxPoint x="2140" y="1220" as="sourcePoint" />
            <mxPoint x="2190" y="1170" as="targetPoint" />
            <Array as="points">
              <mxPoint x="2078" y="1170" />
              <mxPoint x="2160" y="1170" />
              <mxPoint x="2240" y="1170" />
            </Array>
          </mxGeometry>
        </mxCell>
        <mxCell id="h1SYDEZznEwpBPc92iE0-50" value="" style="endArrow=block;html=1;fontSize=16;entryX=0.393;entryY=1.03;entryDx=0;entryDy=0;entryPerimeter=0;endFill=0;" parent="1" target="h1SYDEZznEwpBPc92iE0-46" edge="1">
          <mxGeometry width="50" height="50" relative="1" as="geometry">
            <mxPoint x="2160" y="1170" as="sourcePoint" />
            <mxPoint x="2180" y="980" as="targetPoint" />
          </mxGeometry>
        </mxCell>
        <mxCell id="h1SYDEZznEwpBPc92iE0-51" value="" style="rounded=0;whiteSpace=wrap;html=1;" parent="1" vertex="1">
          <mxGeometry x="1840" y="560" width="240" height="160" as="geometry" />
        </mxCell>
        <mxCell id="h1SYDEZznEwpBPc92iE0-52" value="" style="endArrow=none;html=1;exitX=0;exitY=0.25;exitDx=0;exitDy=0;entryX=1;entryY=0.25;entryDx=0;entryDy=0;" parent="1" source="h1SYDEZznEwpBPc92iE0-51" target="h1SYDEZznEwpBPc92iE0-51" edge="1">
          <mxGeometry width="50" height="50" relative="1" as="geometry">
            <mxPoint x="1990" y="670" as="sourcePoint" />
            <mxPoint x="1959.9999999999995" y="639.9999999999998" as="targetPoint" />
          </mxGeometry>
        </mxCell>
        <mxCell id="h1SYDEZznEwpBPc92iE0-53" value="" style="endArrow=none;html=1;entryX=1;entryY=0.413;entryDx=0;entryDy=0;entryPerimeter=0;" parent="1" target="h1SYDEZznEwpBPc92iE0-51" edge="1">
          <mxGeometry width="50" height="50" relative="1" as="geometry">
            <mxPoint x="1840" y="626" as="sourcePoint" />
            <mxPoint x="1959.9999999999995" y="680.04" as="targetPoint" />
          </mxGeometry>
        </mxCell>
        <mxCell id="h1SYDEZznEwpBPc92iE0-54" value="+init()&lt;br&gt;+start()&lt;br&gt;+destory()&lt;br&gt;+addLifecycleListener()&lt;br&gt;+removeLifecycleListener()" style="text;html=1;strokeColor=none;fillColor=none;align=center;verticalAlign=middle;whiteSpace=wrap;rounded=0;fontSize=16;" parent="1" vertex="1">
          <mxGeometry x="1850" y="660" width="220" height="30" as="geometry" />
        </mxCell>
        <mxCell id="h1SYDEZznEwpBPc92iE0-55" value="Server" style="text;html=1;strokeColor=none;fillColor=none;align=center;verticalAlign=middle;whiteSpace=wrap;rounded=0;fontSize=16;" parent="1" vertex="1">
          <mxGeometry x="1920" y="560" width="60" height="40" as="geometry" />
        </mxCell>
        <mxCell id="h1SYDEZznEwpBPc92iE0-56" value="" style="endArrow=block;html=1;fontSize=16;entryX=0;entryY=0.5;entryDx=0;entryDy=0;endFill=0;" parent="1" target="h1SYDEZznEwpBPc92iE0-51" edge="1">
          <mxGeometry width="50" height="50" relative="1" as="geometry">
            <mxPoint x="1700" y="1038.8" as="sourcePoint" />
            <mxPoint x="1700.37" y="840" as="targetPoint" />
            <Array as="points">
              <mxPoint x="1700" y="640" />
            </Array>
          </mxGeometry>
        </mxCell>
        <mxCell id="h1SYDEZznEwpBPc92iE0-58" value="" style="endArrow=block;html=1;fontSize=16;entryX=1;entryY=0.5;entryDx=0;entryDy=0;endFill=0;" parent="1" target="h1SYDEZznEwpBPc92iE0-51" edge="1">
          <mxGeometry width="50" height="50" relative="1" as="geometry">
            <mxPoint x="2160" y="850" as="sourcePoint" />
            <mxPoint x="2160.37" y="651.2" as="targetPoint" />
            <Array as="points">
              <mxPoint x="2160" y="640" />
            </Array>
          </mxGeometry>
        </mxCell>
        <mxCell id="h1SYDEZznEwpBPc92iE0-59" value="" style="endArrow=none;html=1;" parent="1" edge="1">
          <mxGeometry width="50" height="50" relative="1" as="geometry">
            <mxPoint x="1960" y="950" as="sourcePoint" />
            <mxPoint x="2110" y="640" as="targetPoint" />
            <Array as="points">
              <mxPoint x="2110" y="810" />
            </Array>
          </mxGeometry>
        </mxCell>
        <mxCell id="h1SYDEZznEwpBPc92iE0-60" value="" style="endArrow=block;html=1;fontSize=16;entryX=0.393;entryY=1.03;entryDx=0;entryDy=0;entryPerimeter=0;endFill=0;" parent="1" edge="1">
          <mxGeometry width="50" height="50" relative="1" as="geometry">
            <mxPoint x="1910" y="760" as="sourcePoint" />
            <mxPoint x="1910.37" y="720" as="targetPoint" />
          </mxGeometry>
        </mxCell>
        <mxCell id="K2wxsSiZ7sVS6gFU4XEO-1" value="" style="edgeStyle=orthogonalEdgeStyle;rounded=0;orthogonalLoop=1;jettySize=auto;html=1;fontSize=16;entryX=0.5;entryY=1;entryDx=0;entryDy=0;" edge="1" parent="1" source="K2wxsSiZ7sVS6gFU4XEO-2" target="K2wxsSiZ7sVS6gFU4XEO-19">
          <mxGeometry relative="1" as="geometry" />
        </mxCell>
        <mxCell id="K2wxsSiZ7sVS6gFU4XEO-2" value="&lt;span style=&quot;color: rgb(0 , 0 , 0) ; font-family: &amp;#34;helvetica&amp;#34; ; font-size: 16px ; font-style: normal ; font-weight: 400 ; letter-spacing: normal ; text-align: center ; text-indent: 0px ; text-transform: none ; word-spacing: 0px ; background-color: rgb(248 , 249 , 250) ; display: inline ; float: none&quot;&gt;多个&lt;/span&gt;" style="rounded=0;whiteSpace=wrap;html=1;" vertex="1" parent="1">
          <mxGeometry x="2520" y="1080" width="120" height="120" as="geometry" />
        </mxCell>
        <mxCell id="K2wxsSiZ7sVS6gFU4XEO-3" value="" style="endArrow=none;html=1;exitX=0;exitY=0.333;exitDx=0;exitDy=0;exitPerimeter=0;" edge="1" parent="1" source="K2wxsSiZ7sVS6gFU4XEO-2">
          <mxGeometry width="50" height="50" relative="1" as="geometry">
            <mxPoint x="2670" y="1150" as="sourcePoint" />
            <mxPoint x="2640" y="1119.9999999999998" as="targetPoint" />
          </mxGeometry>
        </mxCell>
        <mxCell id="K2wxsSiZ7sVS6gFU4XEO-4" value="" style="endArrow=none;html=1;exitX=0;exitY=0.333;exitDx=0;exitDy=0;exitPerimeter=0;" edge="1" parent="1">
          <mxGeometry width="50" height="50" relative="1" as="geometry">
            <mxPoint x="2520" y="1159.9999999999998" as="sourcePoint" />
            <mxPoint x="2640" y="1160.04" as="targetPoint" />
          </mxGeometry>
        </mxCell>
        <mxCell id="K2wxsSiZ7sVS6gFU4XEO-5" value="+start()&lt;br&gt;+stop()" style="text;html=1;strokeColor=none;fillColor=none;align=center;verticalAlign=middle;whiteSpace=wrap;rounded=0;fontSize=16;" vertex="1" parent="1">
          <mxGeometry x="2530" y="1160" width="90" height="40" as="geometry" />
        </mxCell>
        <mxCell id="K2wxsSiZ7sVS6gFU4XEO-6" value="Server" style="text;html=1;strokeColor=none;fillColor=none;align=center;verticalAlign=middle;whiteSpace=wrap;rounded=0;fontSize=16;" vertex="1" parent="1">
          <mxGeometry x="2550" y="1080" width="60" height="40" as="geometry" />
        </mxCell>
        <mxCell id="K2wxsSiZ7sVS6gFU4XEO-7" value="&lt;span style=&quot;font-size: 16px&quot;&gt;一个&lt;/span&gt;" style="rounded=0;whiteSpace=wrap;html=1;" vertex="1" parent="1">
          <mxGeometry x="2680" y="1200" width="120" height="120" as="geometry" />
        </mxCell>
        <mxCell id="K2wxsSiZ7sVS6gFU4XEO-8" value="" style="endArrow=none;html=1;exitX=0;exitY=0.333;exitDx=0;exitDy=0;exitPerimeter=0;" edge="1" parent="1" source="K2wxsSiZ7sVS6gFU4XEO-7">
          <mxGeometry width="50" height="50" relative="1" as="geometry">
            <mxPoint x="2830" y="1270" as="sourcePoint" />
            <mxPoint x="2800" y="1240" as="targetPoint" />
          </mxGeometry>
        </mxCell>
        <mxCell id="K2wxsSiZ7sVS6gFU4XEO-9" value="" style="endArrow=none;html=1;exitX=0;exitY=0.333;exitDx=0;exitDy=0;exitPerimeter=0;" edge="1" parent="1">
          <mxGeometry width="50" height="50" relative="1" as="geometry">
            <mxPoint x="2680" y="1280" as="sourcePoint" />
            <mxPoint x="2800" y="1280.04" as="targetPoint" />
          </mxGeometry>
        </mxCell>
        <mxCell id="K2wxsSiZ7sVS6gFU4XEO-10" value="+start()&lt;br&gt;+stop()" style="text;html=1;strokeColor=none;fillColor=none;align=center;verticalAlign=middle;whiteSpace=wrap;rounded=0;fontSize=16;" vertex="1" parent="1">
          <mxGeometry x="2690" y="1280" width="90" height="40" as="geometry" />
        </mxCell>
        <mxCell id="K2wxsSiZ7sVS6gFU4XEO-11" style="edgeStyle=orthogonalEdgeStyle;rounded=0;orthogonalLoop=1;jettySize=auto;html=1;entryX=1;entryY=0.5;entryDx=0;entryDy=0;fontSize=16;exitX=0.5;exitY=0;exitDx=0;exitDy=0;dashed=1;" edge="1" parent="1" source="K2wxsSiZ7sVS6gFU4XEO-12" target="K2wxsSiZ7sVS6gFU4XEO-2">
          <mxGeometry relative="1" as="geometry">
            <Array as="points">
              <mxPoint x="2740" y="1140" />
            </Array>
          </mxGeometry>
        </mxCell>
        <mxCell id="K2wxsSiZ7sVS6gFU4XEO-12" value="Engine" style="text;html=1;strokeColor=none;fillColor=none;align=center;verticalAlign=middle;whiteSpace=wrap;rounded=0;fontSize=16;" vertex="1" parent="1">
          <mxGeometry x="2710" y="1200" width="60" height="40" as="geometry" />
        </mxCell>
        <mxCell id="K2wxsSiZ7sVS6gFU4XEO-13" value="&lt;font style=&quot;font-size: 16px&quot;&gt;多个&lt;/font&gt;" style="rounded=0;whiteSpace=wrap;html=1;" vertex="1" parent="1">
          <mxGeometry x="2360" y="1200" width="120" height="120" as="geometry" />
        </mxCell>
        <mxCell id="K2wxsSiZ7sVS6gFU4XEO-14" value="" style="endArrow=none;html=1;exitX=0;exitY=0.333;exitDx=0;exitDy=0;exitPerimeter=0;" edge="1" parent="1" source="K2wxsSiZ7sVS6gFU4XEO-13">
          <mxGeometry width="50" height="50" relative="1" as="geometry">
            <mxPoint x="2510" y="1270" as="sourcePoint" />
            <mxPoint x="2480" y="1240" as="targetPoint" />
          </mxGeometry>
        </mxCell>
        <mxCell id="K2wxsSiZ7sVS6gFU4XEO-15" value="" style="endArrow=none;html=1;exitX=0;exitY=0.333;exitDx=0;exitDy=0;exitPerimeter=0;" edge="1" parent="1">
          <mxGeometry width="50" height="50" relative="1" as="geometry">
            <mxPoint x="2360" y="1280" as="sourcePoint" />
            <mxPoint x="2480" y="1280.04" as="targetPoint" />
          </mxGeometry>
        </mxCell>
        <mxCell id="K2wxsSiZ7sVS6gFU4XEO-16" value="+start()&lt;br&gt;+stop()" style="text;html=1;strokeColor=none;fillColor=none;align=center;verticalAlign=middle;whiteSpace=wrap;rounded=0;fontSize=16;" vertex="1" parent="1">
          <mxGeometry x="2370" y="1280" width="90" height="40" as="geometry" />
        </mxCell>
        <mxCell id="K2wxsSiZ7sVS6gFU4XEO-17" style="edgeStyle=orthogonalEdgeStyle;rounded=0;orthogonalLoop=1;jettySize=auto;html=1;entryX=0;entryY=0.5;entryDx=0;entryDy=0;fontSize=16;" edge="1" parent="1" source="K2wxsSiZ7sVS6gFU4XEO-18" target="K2wxsSiZ7sVS6gFU4XEO-2">
          <mxGeometry relative="1" as="geometry">
            <Array as="points">
              <mxPoint x="2420" y="1140" />
            </Array>
          </mxGeometry>
        </mxCell>
        <mxCell id="K2wxsSiZ7sVS6gFU4XEO-18" value="Connector" style="text;html=1;strokeColor=none;fillColor=none;align=center;verticalAlign=middle;whiteSpace=wrap;rounded=0;fontSize=16;" vertex="1" parent="1">
          <mxGeometry x="2390" y="1200" width="60" height="40" as="geometry" />
        </mxCell>
        <mxCell id="K2wxsSiZ7sVS6gFU4XEO-19" value="&lt;span style=&quot;color: rgb(0 , 0 , 0) ; font-family: &amp;#34;helvetica&amp;#34; ; font-size: 16px ; font-style: normal ; font-weight: 400 ; letter-spacing: normal ; text-align: center ; text-indent: 0px ; text-transform: none ; word-spacing: 0px ; background-color: rgb(248 , 249 , 250) ; display: inline ; float: none&quot;&gt;一个&lt;/span&gt;" style="rounded=0;whiteSpace=wrap;html=1;" vertex="1" parent="1">
          <mxGeometry x="2520" y="920" width="120" height="120" as="geometry" />
        </mxCell>
        <mxCell id="K2wxsSiZ7sVS6gFU4XEO-20" value="" style="endArrow=none;html=1;exitX=0;exitY=0.333;exitDx=0;exitDy=0;exitPerimeter=0;" edge="1" parent="1" source="K2wxsSiZ7sVS6gFU4XEO-19">
          <mxGeometry width="50" height="50" relative="1" as="geometry">
            <mxPoint x="2670" y="990" as="sourcePoint" />
            <mxPoint x="2640" y="959.9999999999998" as="targetPoint" />
          </mxGeometry>
        </mxCell>
        <mxCell id="K2wxsSiZ7sVS6gFU4XEO-21" value="" style="endArrow=none;html=1;exitX=0;exitY=0.333;exitDx=0;exitDy=0;exitPerimeter=0;" edge="1" parent="1">
          <mxGeometry width="50" height="50" relative="1" as="geometry">
            <mxPoint x="2520" y="999.9999999999998" as="sourcePoint" />
            <mxPoint x="2640" y="1000.04" as="targetPoint" />
          </mxGeometry>
        </mxCell>
        <mxCell id="K2wxsSiZ7sVS6gFU4XEO-22" value="+start()&lt;br&gt;+stop()" style="text;html=1;strokeColor=none;fillColor=none;align=center;verticalAlign=middle;whiteSpace=wrap;rounded=0;fontSize=16;" vertex="1" parent="1">
          <mxGeometry x="2540" y="1000" width="80" height="40" as="geometry" />
        </mxCell>
        <mxCell id="K2wxsSiZ7sVS6gFU4XEO-23" value="Server" style="text;html=1;strokeColor=none;fillColor=none;align=center;verticalAlign=middle;whiteSpace=wrap;rounded=0;fontSize=16;" vertex="1" parent="1">
          <mxGeometry x="2550" y="920" width="60" height="40" as="geometry" />
        </mxCell>
        <mxCell id="K2wxsSiZ7sVS6gFU4XEO-24" value="" style="edgeStyle=orthogonalEdgeStyle;rounded=0;orthogonalLoop=1;jettySize=auto;html=1;fontSize=16;entryX=1;entryY=0.5;entryDx=0;entryDy=0;dashed=1;" edge="1" parent="1" source="K2wxsSiZ7sVS6gFU4XEO-26" target="K2wxsSiZ7sVS6gFU4XEO-7">
          <mxGeometry relative="1" as="geometry" />
        </mxCell>
        <mxCell id="K2wxsSiZ7sVS6gFU4XEO-25" style="edgeStyle=orthogonalEdgeStyle;rounded=0;orthogonalLoop=1;jettySize=auto;html=1;entryX=1;entryY=0.5;entryDx=0;entryDy=0;endArrow=blockThin;endFill=0;fontSize=16;" edge="1" parent="1" source="K2wxsSiZ7sVS6gFU4XEO-26" target="K2wxsSiZ7sVS6gFU4XEO-43">
          <mxGeometry relative="1" as="geometry">
            <Array as="points">
              <mxPoint x="2950" y="1070" />
            </Array>
          </mxGeometry>
        </mxCell>
        <mxCell id="K2wxsSiZ7sVS6gFU4XEO-26" value="&lt;span style=&quot;font-size: 16px&quot;&gt;多个&lt;/span&gt;" style="rounded=0;whiteSpace=wrap;html=1;" vertex="1" parent="1">
          <mxGeometry x="2880" y="1200" width="120" height="120" as="geometry" />
        </mxCell>
        <mxCell id="K2wxsSiZ7sVS6gFU4XEO-27" value="" style="endArrow=none;html=1;exitX=0;exitY=0.333;exitDx=0;exitDy=0;exitPerimeter=0;" edge="1" parent="1" source="K2wxsSiZ7sVS6gFU4XEO-26">
          <mxGeometry width="50" height="50" relative="1" as="geometry">
            <mxPoint x="3030" y="1270" as="sourcePoint" />
            <mxPoint x="3000" y="1240" as="targetPoint" />
          </mxGeometry>
        </mxCell>
        <mxCell id="K2wxsSiZ7sVS6gFU4XEO-28" value="" style="endArrow=none;html=1;exitX=0;exitY=0.333;exitDx=0;exitDy=0;exitPerimeter=0;" edge="1" parent="1">
          <mxGeometry width="50" height="50" relative="1" as="geometry">
            <mxPoint x="2880" y="1280" as="sourcePoint" />
            <mxPoint x="3000" y="1280.04" as="targetPoint" />
          </mxGeometry>
        </mxCell>
        <mxCell id="K2wxsSiZ7sVS6gFU4XEO-29" value="+start()&lt;br&gt;+stop()" style="text;html=1;strokeColor=none;fillColor=none;align=center;verticalAlign=middle;whiteSpace=wrap;rounded=0;fontSize=16;" vertex="1" parent="1">
          <mxGeometry x="2890" y="1280" width="90" height="40" as="geometry" />
        </mxCell>
        <mxCell id="K2wxsSiZ7sVS6gFU4XEO-30" value="Host" style="text;html=1;strokeColor=none;fillColor=none;align=center;verticalAlign=middle;whiteSpace=wrap;rounded=0;fontSize=16;" vertex="1" parent="1">
          <mxGeometry x="2910" y="1200" width="60" height="40" as="geometry" />
        </mxCell>
        <mxCell id="K2wxsSiZ7sVS6gFU4XEO-31" value="&lt;span style=&quot;font-size: 16px&quot;&gt;多个&lt;/span&gt;" style="rounded=0;whiteSpace=wrap;html=1;" vertex="1" parent="1">
          <mxGeometry x="2880" y="1360" width="120" height="120" as="geometry" />
        </mxCell>
        <mxCell id="K2wxsSiZ7sVS6gFU4XEO-32" value="" style="endArrow=none;html=1;exitX=0;exitY=0.333;exitDx=0;exitDy=0;exitPerimeter=0;" edge="1" parent="1" source="K2wxsSiZ7sVS6gFU4XEO-31">
          <mxGeometry width="50" height="50" relative="1" as="geometry">
            <mxPoint x="3030" y="1430" as="sourcePoint" />
            <mxPoint x="3000" y="1400" as="targetPoint" />
          </mxGeometry>
        </mxCell>
        <mxCell id="K2wxsSiZ7sVS6gFU4XEO-33" value="" style="endArrow=none;html=1;exitX=0;exitY=0.333;exitDx=0;exitDy=0;exitPerimeter=0;" edge="1" parent="1">
          <mxGeometry width="50" height="50" relative="1" as="geometry">
            <mxPoint x="2880" y="1440" as="sourcePoint" />
            <mxPoint x="3000" y="1440.04" as="targetPoint" />
          </mxGeometry>
        </mxCell>
        <mxCell id="K2wxsSiZ7sVS6gFU4XEO-34" value="+start()&lt;br&gt;+stop()" style="text;html=1;strokeColor=none;fillColor=none;align=center;verticalAlign=middle;whiteSpace=wrap;rounded=0;fontSize=16;" vertex="1" parent="1">
          <mxGeometry x="2890" y="1440" width="90" height="40" as="geometry" />
        </mxCell>
        <mxCell id="K2wxsSiZ7sVS6gFU4XEO-35" style="edgeStyle=orthogonalEdgeStyle;rounded=0;orthogonalLoop=1;jettySize=auto;html=1;entryX=0.556;entryY=1;entryDx=0;entryDy=0;entryPerimeter=0;fontSize=16;dashed=1;" edge="1" parent="1" source="K2wxsSiZ7sVS6gFU4XEO-36" target="K2wxsSiZ7sVS6gFU4XEO-29">
          <mxGeometry relative="1" as="geometry" />
        </mxCell>
        <mxCell id="K2wxsSiZ7sVS6gFU4XEO-36" value="Context" style="text;html=1;strokeColor=none;fillColor=none;align=center;verticalAlign=middle;whiteSpace=wrap;rounded=0;fontSize=16;" vertex="1" parent="1">
          <mxGeometry x="2910" y="1360" width="60" height="40" as="geometry" />
        </mxCell>
        <mxCell id="K2wxsSiZ7sVS6gFU4XEO-37" style="edgeStyle=orthogonalEdgeStyle;rounded=0;orthogonalLoop=1;jettySize=auto;html=1;entryX=0;entryY=0.5;entryDx=0;entryDy=0;fontSize=16;dashed=1;" edge="1" parent="1" source="K2wxsSiZ7sVS6gFU4XEO-38" target="K2wxsSiZ7sVS6gFU4XEO-31">
          <mxGeometry relative="1" as="geometry" />
        </mxCell>
        <mxCell id="K2wxsSiZ7sVS6gFU4XEO-38" value="&lt;span style=&quot;font-size: 16px&quot;&gt;多个&lt;/span&gt;" style="rounded=0;whiteSpace=wrap;html=1;" vertex="1" parent="1">
          <mxGeometry x="2680" y="1360" width="120" height="120" as="geometry" />
        </mxCell>
        <mxCell id="K2wxsSiZ7sVS6gFU4XEO-39" value="" style="endArrow=none;html=1;exitX=0;exitY=0.333;exitDx=0;exitDy=0;exitPerimeter=0;" edge="1" parent="1" source="K2wxsSiZ7sVS6gFU4XEO-38">
          <mxGeometry width="50" height="50" relative="1" as="geometry">
            <mxPoint x="2830" y="1430" as="sourcePoint" />
            <mxPoint x="2800" y="1400" as="targetPoint" />
          </mxGeometry>
        </mxCell>
        <mxCell id="K2wxsSiZ7sVS6gFU4XEO-40" value="" style="endArrow=none;html=1;exitX=0;exitY=0.333;exitDx=0;exitDy=0;exitPerimeter=0;" edge="1" parent="1">
          <mxGeometry width="50" height="50" relative="1" as="geometry">
            <mxPoint x="2680" y="1440" as="sourcePoint" />
            <mxPoint x="2800" y="1440.04" as="targetPoint" />
          </mxGeometry>
        </mxCell>
        <mxCell id="K2wxsSiZ7sVS6gFU4XEO-41" value="+start()&lt;br&gt;+stop()" style="text;html=1;strokeColor=none;fillColor=none;align=center;verticalAlign=middle;whiteSpace=wrap;rounded=0;fontSize=16;" vertex="1" parent="1">
          <mxGeometry x="2690" y="1440" width="90" height="40" as="geometry" />
        </mxCell>
        <mxCell id="K2wxsSiZ7sVS6gFU4XEO-42" value="Wrapper" style="text;html=1;strokeColor=none;fillColor=none;align=center;verticalAlign=middle;whiteSpace=wrap;rounded=0;fontSize=16;" vertex="1" parent="1">
          <mxGeometry x="2710" y="1360" width="60" height="40" as="geometry" />
        </mxCell>
        <mxCell id="K2wxsSiZ7sVS6gFU4XEO-43" value="" style="rounded=0;whiteSpace=wrap;html=1;" vertex="1" parent="1">
          <mxGeometry x="2770" y="1010" width="160" height="120" as="geometry" />
        </mxCell>
        <mxCell id="K2wxsSiZ7sVS6gFU4XEO-44" value="" style="endArrow=none;html=1;exitX=0;exitY=0.333;exitDx=0;exitDy=0;exitPerimeter=0;" edge="1" parent="1" source="K2wxsSiZ7sVS6gFU4XEO-43">
          <mxGeometry width="50" height="50" relative="1" as="geometry">
            <mxPoint x="2960" y="1080" as="sourcePoint" />
            <mxPoint x="2930" y="1049.9999999999998" as="targetPoint" />
          </mxGeometry>
        </mxCell>
        <mxCell id="K2wxsSiZ7sVS6gFU4XEO-45" value="" style="endArrow=none;html=1;exitX=-0.007;exitY=0.667;exitDx=0;exitDy=0;exitPerimeter=0;" edge="1" parent="1" source="K2wxsSiZ7sVS6gFU4XEO-43">
          <mxGeometry width="50" height="50" relative="1" as="geometry">
            <mxPoint x="2809.9999999999995" y="1090" as="sourcePoint" />
            <mxPoint x="2930" y="1090.04" as="targetPoint" />
          </mxGeometry>
        </mxCell>
        <mxCell id="K2wxsSiZ7sVS6gFU4XEO-46" value="+addChild()&lt;br&gt;+backgroundProcess()" style="text;html=1;strokeColor=none;fillColor=none;align=center;verticalAlign=middle;whiteSpace=wrap;rounded=0;fontSize=16;" vertex="1" parent="1">
          <mxGeometry x="2805" y="1090" width="90" height="40" as="geometry" />
        </mxCell>
        <mxCell id="K2wxsSiZ7sVS6gFU4XEO-47" value="Container" style="text;html=1;strokeColor=none;fillColor=none;align=center;verticalAlign=middle;whiteSpace=wrap;rounded=0;fontSize=16;" vertex="1" parent="1">
          <mxGeometry x="2820" y="1010" width="60" height="40" as="geometry" />
        </mxCell>
        <mxCell id="K2wxsSiZ7sVS6gFU4XEO-48" value="" style="endArrow=block;html=1;fontSize=16;entryX=0;entryY=0.5;entryDx=0;entryDy=0;exitX=0.64;exitY=-0.07;exitDx=0;exitDy=0;exitPerimeter=0;endFill=0;" edge="1" parent="1" source="K2wxsSiZ7sVS6gFU4XEO-12" target="K2wxsSiZ7sVS6gFU4XEO-43">
          <mxGeometry width="50" height="50" relative="1" as="geometry">
            <mxPoint x="2710" y="1150" as="sourcePoint" />
            <mxPoint x="2760" y="1100" as="targetPoint" />
            <Array as="points">
              <mxPoint x="2750" y="1070" />
            </Array>
          </mxGeometry>
        </mxCell>
        <mxCell id="K2wxsSiZ7sVS6gFU4XEO-49" value="" style="endArrow=none;html=1;fontSize=16;entryX=0.167;entryY=0;entryDx=0;entryDy=0;entryPerimeter=0;exitX=0.807;exitY=-0.01;exitDx=0;exitDy=0;exitPerimeter=0;" edge="1" parent="1" source="K2wxsSiZ7sVS6gFU4XEO-42" target="K2wxsSiZ7sVS6gFU4XEO-36">
          <mxGeometry width="50" height="50" relative="1" as="geometry">
            <mxPoint x="2820" y="1380" as="sourcePoint" />
            <mxPoint x="2870" y="1330" as="targetPoint" />
            <Array as="points">
              <mxPoint x="2758" y="1330" />
              <mxPoint x="2840" y="1330" />
              <mxPoint x="2920" y="1330" />
            </Array>
          </mxGeometry>
        </mxCell>
        <mxCell id="K2wxsSiZ7sVS6gFU4XEO-50" value="" style="endArrow=block;html=1;fontSize=16;entryX=0.393;entryY=1.03;entryDx=0;entryDy=0;entryPerimeter=0;endFill=0;" edge="1" parent="1" target="K2wxsSiZ7sVS6gFU4XEO-46">
          <mxGeometry width="50" height="50" relative="1" as="geometry">
            <mxPoint x="2840" y="1330" as="sourcePoint" />
            <mxPoint x="2860" y="1140" as="targetPoint" />
          </mxGeometry>
        </mxCell>
        <mxCell id="K2wxsSiZ7sVS6gFU4XEO-51" value="" style="rounded=0;whiteSpace=wrap;html=1;" vertex="1" parent="1">
          <mxGeometry x="2520" y="720" width="240" height="160" as="geometry" />
        </mxCell>
        <mxCell id="K2wxsSiZ7sVS6gFU4XEO-52" value="" style="endArrow=none;html=1;exitX=0;exitY=0.25;exitDx=0;exitDy=0;entryX=1;entryY=0.25;entryDx=0;entryDy=0;" edge="1" parent="1" source="K2wxsSiZ7sVS6gFU4XEO-51" target="K2wxsSiZ7sVS6gFU4XEO-51">
          <mxGeometry width="50" height="50" relative="1" as="geometry">
            <mxPoint x="2670" y="830" as="sourcePoint" />
            <mxPoint x="2639.9999999999995" y="799.9999999999998" as="targetPoint" />
          </mxGeometry>
        </mxCell>
        <mxCell id="K2wxsSiZ7sVS6gFU4XEO-53" value="" style="endArrow=none;html=1;entryX=1;entryY=0.413;entryDx=0;entryDy=0;entryPerimeter=0;" edge="1" parent="1" target="K2wxsSiZ7sVS6gFU4XEO-51">
          <mxGeometry width="50" height="50" relative="1" as="geometry">
            <mxPoint x="2520" y="786" as="sourcePoint" />
            <mxPoint x="2639.9999999999995" y="840.04" as="targetPoint" />
          </mxGeometry>
        </mxCell>
        <mxCell id="K2wxsSiZ7sVS6gFU4XEO-54" value="+init()&lt;br&gt;+start()&lt;br&gt;+destory()&lt;br&gt;+addLifecycleListener()&lt;br&gt;+removeLifecycleListener()" style="text;html=1;strokeColor=none;fillColor=none;align=center;verticalAlign=middle;whiteSpace=wrap;rounded=0;fontSize=16;" vertex="1" parent="1">
          <mxGeometry x="2530" y="820" width="220" height="30" as="geometry" />
        </mxCell>
        <mxCell id="K2wxsSiZ7sVS6gFU4XEO-55" value="Server" style="text;html=1;strokeColor=none;fillColor=none;align=center;verticalAlign=middle;whiteSpace=wrap;rounded=0;fontSize=16;" vertex="1" parent="1">
          <mxGeometry x="2600" y="720" width="60" height="40" as="geometry" />
        </mxCell>
        <mxCell id="K2wxsSiZ7sVS6gFU4XEO-56" value="" style="endArrow=block;html=1;fontSize=16;entryX=0;entryY=0.5;entryDx=0;entryDy=0;endFill=0;" edge="1" parent="1" target="K2wxsSiZ7sVS6gFU4XEO-51">
          <mxGeometry width="50" height="50" relative="1" as="geometry">
            <mxPoint x="2380" y="1198.8000000000002" as="sourcePoint" />
            <mxPoint x="2380.37" y="1000" as="targetPoint" />
            <Array as="points">
              <mxPoint x="2380" y="800" />
            </Array>
          </mxGeometry>
        </mxCell>
        <mxCell id="K2wxsSiZ7sVS6gFU4XEO-57" value="" style="endArrow=block;html=1;fontSize=16;entryX=1;entryY=0.5;entryDx=0;entryDy=0;endFill=0;" edge="1" parent="1" target="K2wxsSiZ7sVS6gFU4XEO-51">
          <mxGeometry width="50" height="50" relative="1" as="geometry">
            <mxPoint x="2840" y="1010" as="sourcePoint" />
            <mxPoint x="2840.37" y="811.2" as="targetPoint" />
            <Array as="points">
              <mxPoint x="2840" y="800" />
            </Array>
          </mxGeometry>
        </mxCell>
        <mxCell id="K2wxsSiZ7sVS6gFU4XEO-58" value="" style="endArrow=none;html=1;" edge="1" parent="1">
          <mxGeometry width="50" height="50" relative="1" as="geometry">
            <mxPoint x="2640" y="1110" as="sourcePoint" />
            <mxPoint x="2790" y="800" as="targetPoint" />
            <Array as="points">
              <mxPoint x="2790" y="970" />
            </Array>
          </mxGeometry>
        </mxCell>
        <mxCell id="K2wxsSiZ7sVS6gFU4XEO-59" value="" style="endArrow=block;html=1;fontSize=16;entryX=0.393;entryY=1.03;entryDx=0;entryDy=0;entryPerimeter=0;endFill=0;" edge="1" parent="1">
          <mxGeometry width="50" height="50" relative="1" as="geometry">
            <mxPoint x="2590" y="920" as="sourcePoint" />
            <mxPoint x="2590.37" y="880" as="targetPoint" />
          </mxGeometry>
        </mxCell>
        <mxCell id="K2wxsSiZ7sVS6gFU4XEO-71" value="" style="edgeStyle=orthogonalEdgeStyle;rounded=0;orthogonalLoop=1;jettySize=auto;html=1;fontSize=16;entryX=0.5;entryY=1;entryDx=0;entryDy=0;" edge="1" parent="1" source="K2wxsSiZ7sVS6gFU4XEO-72" target="K2wxsSiZ7sVS6gFU4XEO-89">
          <mxGeometry relative="1" as="geometry" />
        </mxCell>
        <mxCell id="K2wxsSiZ7sVS6gFU4XEO-72" value="&lt;span style=&quot;color: rgb(0 , 0 , 0) ; font-family: &amp;#34;helvetica&amp;#34; ; font-size: 16px ; font-style: normal ; font-weight: 400 ; letter-spacing: normal ; text-align: center ; text-indent: 0px ; text-transform: none ; word-spacing: 0px ; background-color: rgb(248 , 249 , 250) ; display: inline ; float: none&quot;&gt;多个&lt;/span&gt;" style="rounded=0;whiteSpace=wrap;html=1;" vertex="1" parent="1">
          <mxGeometry x="440" y="1600" width="120" height="120" as="geometry" />
        </mxCell>
        <mxCell id="K2wxsSiZ7sVS6gFU4XEO-73" value="" style="endArrow=none;html=1;exitX=0;exitY=0.333;exitDx=0;exitDy=0;exitPerimeter=0;" edge="1" parent="1" source="K2wxsSiZ7sVS6gFU4XEO-72">
          <mxGeometry width="50" height="50" relative="1" as="geometry">
            <mxPoint x="590" y="1670" as="sourcePoint" />
            <mxPoint x="560" y="1640" as="targetPoint" />
          </mxGeometry>
        </mxCell>
        <mxCell id="K2wxsSiZ7sVS6gFU4XEO-74" value="" style="endArrow=none;html=1;exitX=0;exitY=0.333;exitDx=0;exitDy=0;exitPerimeter=0;" edge="1" parent="1">
          <mxGeometry width="50" height="50" relative="1" as="geometry">
            <mxPoint x="440" y="1680" as="sourcePoint" />
            <mxPoint x="560" y="1680.04" as="targetPoint" />
          </mxGeometry>
        </mxCell>
        <mxCell id="K2wxsSiZ7sVS6gFU4XEO-75" value="+start()&lt;br&gt;+stop()" style="text;html=1;strokeColor=none;fillColor=none;align=center;verticalAlign=middle;whiteSpace=wrap;rounded=0;fontSize=16;" vertex="1" parent="1">
          <mxGeometry x="450" y="1680" width="90" height="40" as="geometry" />
        </mxCell>
        <mxCell id="K2wxsSiZ7sVS6gFU4XEO-76" value="Server" style="text;html=1;strokeColor=none;fillColor=none;align=center;verticalAlign=middle;whiteSpace=wrap;rounded=0;fontSize=16;" vertex="1" parent="1">
          <mxGeometry x="470" y="1600" width="60" height="40" as="geometry" />
        </mxCell>
        <mxCell id="K2wxsSiZ7sVS6gFU4XEO-77" value="&lt;span style=&quot;font-size: 16px&quot;&gt;一个&lt;/span&gt;" style="rounded=0;whiteSpace=wrap;html=1;" vertex="1" parent="1">
          <mxGeometry x="600" y="1720" width="120" height="120" as="geometry" />
        </mxCell>
        <mxCell id="K2wxsSiZ7sVS6gFU4XEO-78" value="" style="endArrow=none;html=1;exitX=0;exitY=0.333;exitDx=0;exitDy=0;exitPerimeter=0;" edge="1" parent="1" source="K2wxsSiZ7sVS6gFU4XEO-77">
          <mxGeometry width="50" height="50" relative="1" as="geometry">
            <mxPoint x="750" y="1790" as="sourcePoint" />
            <mxPoint x="720" y="1760" as="targetPoint" />
          </mxGeometry>
        </mxCell>
        <mxCell id="K2wxsSiZ7sVS6gFU4XEO-79" value="" style="endArrow=none;html=1;exitX=0;exitY=0.333;exitDx=0;exitDy=0;exitPerimeter=0;" edge="1" parent="1">
          <mxGeometry width="50" height="50" relative="1" as="geometry">
            <mxPoint x="600" y="1800" as="sourcePoint" />
            <mxPoint x="720" y="1800.04" as="targetPoint" />
          </mxGeometry>
        </mxCell>
        <mxCell id="K2wxsSiZ7sVS6gFU4XEO-80" value="+start()&lt;br&gt;+stop()" style="text;html=1;strokeColor=none;fillColor=none;align=center;verticalAlign=middle;whiteSpace=wrap;rounded=0;fontSize=16;" vertex="1" parent="1">
          <mxGeometry x="610" y="1800" width="90" height="40" as="geometry" />
        </mxCell>
        <mxCell id="K2wxsSiZ7sVS6gFU4XEO-81" style="edgeStyle=orthogonalEdgeStyle;rounded=0;orthogonalLoop=1;jettySize=auto;html=1;entryX=1;entryY=0.5;entryDx=0;entryDy=0;fontSize=16;exitX=0.5;exitY=0;exitDx=0;exitDy=0;dashed=1;" edge="1" parent="1" source="K2wxsSiZ7sVS6gFU4XEO-82" target="K2wxsSiZ7sVS6gFU4XEO-72">
          <mxGeometry relative="1" as="geometry">
            <Array as="points">
              <mxPoint x="660" y="1660" />
            </Array>
          </mxGeometry>
        </mxCell>
        <mxCell id="K2wxsSiZ7sVS6gFU4XEO-82" value="Engine" style="text;html=1;strokeColor=none;fillColor=none;align=center;verticalAlign=middle;whiteSpace=wrap;rounded=0;fontSize=16;" vertex="1" parent="1">
          <mxGeometry x="630" y="1720" width="60" height="40" as="geometry" />
        </mxCell>
        <mxCell id="K2wxsSiZ7sVS6gFU4XEO-83" value="&lt;font style=&quot;font-size: 16px&quot;&gt;多个&lt;/font&gt;" style="rounded=0;whiteSpace=wrap;html=1;" vertex="1" parent="1">
          <mxGeometry x="280" y="1720" width="120" height="120" as="geometry" />
        </mxCell>
        <mxCell id="K2wxsSiZ7sVS6gFU4XEO-84" value="" style="endArrow=none;html=1;exitX=0;exitY=0.333;exitDx=0;exitDy=0;exitPerimeter=0;" edge="1" parent="1" source="K2wxsSiZ7sVS6gFU4XEO-83">
          <mxGeometry width="50" height="50" relative="1" as="geometry">
            <mxPoint x="430" y="1790" as="sourcePoint" />
            <mxPoint x="400" y="1760" as="targetPoint" />
          </mxGeometry>
        </mxCell>
        <mxCell id="K2wxsSiZ7sVS6gFU4XEO-85" value="" style="endArrow=none;html=1;exitX=0;exitY=0.333;exitDx=0;exitDy=0;exitPerimeter=0;" edge="1" parent="1">
          <mxGeometry width="50" height="50" relative="1" as="geometry">
            <mxPoint x="280" y="1800" as="sourcePoint" />
            <mxPoint x="400" y="1800.04" as="targetPoint" />
          </mxGeometry>
        </mxCell>
        <mxCell id="K2wxsSiZ7sVS6gFU4XEO-86" value="+start()&lt;br&gt;+stop()" style="text;html=1;strokeColor=none;fillColor=none;align=center;verticalAlign=middle;whiteSpace=wrap;rounded=0;fontSize=16;" vertex="1" parent="1">
          <mxGeometry x="290" y="1800" width="90" height="40" as="geometry" />
        </mxCell>
        <mxCell id="K2wxsSiZ7sVS6gFU4XEO-87" style="edgeStyle=orthogonalEdgeStyle;rounded=0;orthogonalLoop=1;jettySize=auto;html=1;entryX=0;entryY=0.5;entryDx=0;entryDy=0;fontSize=16;" edge="1" parent="1" source="K2wxsSiZ7sVS6gFU4XEO-88" target="K2wxsSiZ7sVS6gFU4XEO-72">
          <mxGeometry relative="1" as="geometry">
            <Array as="points">
              <mxPoint x="340" y="1660" />
            </Array>
          </mxGeometry>
        </mxCell>
        <mxCell id="K2wxsSiZ7sVS6gFU4XEO-88" value="Connector" style="text;html=1;strokeColor=none;fillColor=none;align=center;verticalAlign=middle;whiteSpace=wrap;rounded=0;fontSize=16;" vertex="1" parent="1">
          <mxGeometry x="310" y="1720" width="60" height="40" as="geometry" />
        </mxCell>
        <mxCell id="K2wxsSiZ7sVS6gFU4XEO-89" value="&lt;span style=&quot;color: rgb(0 , 0 , 0) ; font-family: &amp;#34;helvetica&amp;#34; ; font-size: 16px ; font-style: normal ; font-weight: 400 ; letter-spacing: normal ; text-align: center ; text-indent: 0px ; text-transform: none ; word-spacing: 0px ; background-color: rgb(248 , 249 , 250) ; display: inline ; float: none&quot;&gt;一个&lt;/span&gt;" style="rounded=0;whiteSpace=wrap;html=1;" vertex="1" parent="1">
          <mxGeometry x="440" y="1440" width="120" height="120" as="geometry" />
        </mxCell>
        <mxCell id="K2wxsSiZ7sVS6gFU4XEO-90" value="" style="endArrow=none;html=1;exitX=0;exitY=0.333;exitDx=0;exitDy=0;exitPerimeter=0;" edge="1" parent="1" source="K2wxsSiZ7sVS6gFU4XEO-89">
          <mxGeometry width="50" height="50" relative="1" as="geometry">
            <mxPoint x="590" y="1510" as="sourcePoint" />
            <mxPoint x="560" y="1480" as="targetPoint" />
          </mxGeometry>
        </mxCell>
        <mxCell id="K2wxsSiZ7sVS6gFU4XEO-91" value="" style="endArrow=none;html=1;exitX=0;exitY=0.333;exitDx=0;exitDy=0;exitPerimeter=0;" edge="1" parent="1">
          <mxGeometry width="50" height="50" relative="1" as="geometry">
            <mxPoint x="440" y="1520" as="sourcePoint" />
            <mxPoint x="560" y="1520.04" as="targetPoint" />
          </mxGeometry>
        </mxCell>
        <mxCell id="K2wxsSiZ7sVS6gFU4XEO-92" value="+start()&lt;br&gt;+stop()" style="text;html=1;strokeColor=none;fillColor=none;align=center;verticalAlign=middle;whiteSpace=wrap;rounded=0;fontSize=16;" vertex="1" parent="1">
          <mxGeometry x="460" y="1520" width="80" height="40" as="geometry" />
        </mxCell>
        <mxCell id="K2wxsSiZ7sVS6gFU4XEO-93" value="Server" style="text;html=1;strokeColor=none;fillColor=none;align=center;verticalAlign=middle;whiteSpace=wrap;rounded=0;fontSize=16;" vertex="1" parent="1">
          <mxGeometry x="470" y="1440" width="60" height="40" as="geometry" />
        </mxCell>
        <mxCell id="K2wxsSiZ7sVS6gFU4XEO-94" value="" style="edgeStyle=orthogonalEdgeStyle;rounded=0;orthogonalLoop=1;jettySize=auto;html=1;fontSize=16;entryX=1;entryY=0.5;entryDx=0;entryDy=0;dashed=1;" edge="1" parent="1" source="K2wxsSiZ7sVS6gFU4XEO-96" target="K2wxsSiZ7sVS6gFU4XEO-77">
          <mxGeometry relative="1" as="geometry" />
        </mxCell>
        <mxCell id="K2wxsSiZ7sVS6gFU4XEO-95" style="edgeStyle=orthogonalEdgeStyle;rounded=0;orthogonalLoop=1;jettySize=auto;html=1;entryX=1;entryY=0.5;entryDx=0;entryDy=0;endArrow=blockThin;endFill=0;fontSize=16;" edge="1" parent="1" source="K2wxsSiZ7sVS6gFU4XEO-96" target="K2wxsSiZ7sVS6gFU4XEO-113">
          <mxGeometry relative="1" as="geometry">
            <Array as="points">
              <mxPoint x="870" y="1590" />
            </Array>
          </mxGeometry>
        </mxCell>
        <mxCell id="K2wxsSiZ7sVS6gFU4XEO-96" value="&lt;span style=&quot;font-size: 16px&quot;&gt;多个&lt;/span&gt;" style="rounded=0;whiteSpace=wrap;html=1;" vertex="1" parent="1">
          <mxGeometry x="800" y="1720" width="120" height="120" as="geometry" />
        </mxCell>
        <mxCell id="K2wxsSiZ7sVS6gFU4XEO-97" value="" style="endArrow=none;html=1;exitX=0;exitY=0.333;exitDx=0;exitDy=0;exitPerimeter=0;" edge="1" parent="1" source="K2wxsSiZ7sVS6gFU4XEO-96">
          <mxGeometry width="50" height="50" relative="1" as="geometry">
            <mxPoint x="950" y="1790" as="sourcePoint" />
            <mxPoint x="920" y="1760" as="targetPoint" />
          </mxGeometry>
        </mxCell>
        <mxCell id="K2wxsSiZ7sVS6gFU4XEO-98" value="" style="endArrow=none;html=1;exitX=0;exitY=0.333;exitDx=0;exitDy=0;exitPerimeter=0;" edge="1" parent="1">
          <mxGeometry width="50" height="50" relative="1" as="geometry">
            <mxPoint x="800" y="1800" as="sourcePoint" />
            <mxPoint x="920" y="1800.04" as="targetPoint" />
          </mxGeometry>
        </mxCell>
        <mxCell id="K2wxsSiZ7sVS6gFU4XEO-99" value="+start()&lt;br&gt;+stop()" style="text;html=1;strokeColor=none;fillColor=none;align=center;verticalAlign=middle;whiteSpace=wrap;rounded=0;fontSize=16;" vertex="1" parent="1">
          <mxGeometry x="810" y="1800" width="90" height="40" as="geometry" />
        </mxCell>
        <mxCell id="K2wxsSiZ7sVS6gFU4XEO-100" value="Host" style="text;html=1;strokeColor=none;fillColor=none;align=center;verticalAlign=middle;whiteSpace=wrap;rounded=0;fontSize=16;" vertex="1" parent="1">
          <mxGeometry x="830" y="1720" width="60" height="40" as="geometry" />
        </mxCell>
        <mxCell id="K2wxsSiZ7sVS6gFU4XEO-101" value="&lt;span style=&quot;font-size: 16px&quot;&gt;多个&lt;/span&gt;" style="rounded=0;whiteSpace=wrap;html=1;" vertex="1" parent="1">
          <mxGeometry x="800" y="1880" width="120" height="120" as="geometry" />
        </mxCell>
        <mxCell id="K2wxsSiZ7sVS6gFU4XEO-102" value="" style="endArrow=none;html=1;exitX=0;exitY=0.333;exitDx=0;exitDy=0;exitPerimeter=0;" edge="1" parent="1" source="K2wxsSiZ7sVS6gFU4XEO-101">
          <mxGeometry width="50" height="50" relative="1" as="geometry">
            <mxPoint x="950" y="1950" as="sourcePoint" />
            <mxPoint x="920" y="1920" as="targetPoint" />
          </mxGeometry>
        </mxCell>
        <mxCell id="K2wxsSiZ7sVS6gFU4XEO-103" value="" style="endArrow=none;html=1;exitX=0;exitY=0.333;exitDx=0;exitDy=0;exitPerimeter=0;" edge="1" parent="1">
          <mxGeometry width="50" height="50" relative="1" as="geometry">
            <mxPoint x="800" y="1960" as="sourcePoint" />
            <mxPoint x="920" y="1960.04" as="targetPoint" />
          </mxGeometry>
        </mxCell>
        <mxCell id="K2wxsSiZ7sVS6gFU4XEO-104" value="+start()&lt;br&gt;+stop()" style="text;html=1;strokeColor=none;fillColor=none;align=center;verticalAlign=middle;whiteSpace=wrap;rounded=0;fontSize=16;" vertex="1" parent="1">
          <mxGeometry x="810" y="1960" width="90" height="40" as="geometry" />
        </mxCell>
        <mxCell id="K2wxsSiZ7sVS6gFU4XEO-105" style="edgeStyle=orthogonalEdgeStyle;rounded=0;orthogonalLoop=1;jettySize=auto;html=1;entryX=0.556;entryY=1;entryDx=0;entryDy=0;entryPerimeter=0;fontSize=16;dashed=1;" edge="1" parent="1" source="K2wxsSiZ7sVS6gFU4XEO-106" target="K2wxsSiZ7sVS6gFU4XEO-99">
          <mxGeometry relative="1" as="geometry" />
        </mxCell>
        <mxCell id="K2wxsSiZ7sVS6gFU4XEO-106" value="Context" style="text;html=1;strokeColor=none;fillColor=none;align=center;verticalAlign=middle;whiteSpace=wrap;rounded=0;fontSize=16;" vertex="1" parent="1">
          <mxGeometry x="830" y="1880" width="60" height="40" as="geometry" />
        </mxCell>
        <mxCell id="K2wxsSiZ7sVS6gFU4XEO-107" style="edgeStyle=orthogonalEdgeStyle;rounded=0;orthogonalLoop=1;jettySize=auto;html=1;entryX=0;entryY=0.5;entryDx=0;entryDy=0;fontSize=16;dashed=1;" edge="1" parent="1" source="K2wxsSiZ7sVS6gFU4XEO-108" target="K2wxsSiZ7sVS6gFU4XEO-101">
          <mxGeometry relative="1" as="geometry" />
        </mxCell>
        <mxCell id="K2wxsSiZ7sVS6gFU4XEO-108" value="&lt;span style=&quot;font-size: 16px&quot;&gt;多个&lt;/span&gt;" style="rounded=0;whiteSpace=wrap;html=1;" vertex="1" parent="1">
          <mxGeometry x="600" y="1880" width="120" height="120" as="geometry" />
        </mxCell>
        <mxCell id="K2wxsSiZ7sVS6gFU4XEO-109" value="" style="endArrow=none;html=1;exitX=0;exitY=0.333;exitDx=0;exitDy=0;exitPerimeter=0;" edge="1" parent="1" source="K2wxsSiZ7sVS6gFU4XEO-108">
          <mxGeometry width="50" height="50" relative="1" as="geometry">
            <mxPoint x="750" y="1950" as="sourcePoint" />
            <mxPoint x="720" y="1920" as="targetPoint" />
          </mxGeometry>
        </mxCell>
        <mxCell id="K2wxsSiZ7sVS6gFU4XEO-110" value="" style="endArrow=none;html=1;exitX=0;exitY=0.333;exitDx=0;exitDy=0;exitPerimeter=0;" edge="1" parent="1">
          <mxGeometry width="50" height="50" relative="1" as="geometry">
            <mxPoint x="600" y="1960" as="sourcePoint" />
            <mxPoint x="720" y="1960.04" as="targetPoint" />
          </mxGeometry>
        </mxCell>
        <mxCell id="K2wxsSiZ7sVS6gFU4XEO-111" value="+start()&lt;br&gt;+stop()" style="text;html=1;strokeColor=none;fillColor=none;align=center;verticalAlign=middle;whiteSpace=wrap;rounded=0;fontSize=16;" vertex="1" parent="1">
          <mxGeometry x="610" y="1960" width="90" height="40" as="geometry" />
        </mxCell>
        <mxCell id="K2wxsSiZ7sVS6gFU4XEO-112" value="Wrapper" style="text;html=1;strokeColor=none;fillColor=none;align=center;verticalAlign=middle;whiteSpace=wrap;rounded=0;fontSize=16;" vertex="1" parent="1">
          <mxGeometry x="630" y="1880" width="60" height="40" as="geometry" />
        </mxCell>
        <mxCell id="K2wxsSiZ7sVS6gFU4XEO-113" value="" style="rounded=0;whiteSpace=wrap;html=1;" vertex="1" parent="1">
          <mxGeometry x="690" y="1530" width="160" height="120" as="geometry" />
        </mxCell>
        <mxCell id="K2wxsSiZ7sVS6gFU4XEO-114" value="" style="endArrow=none;html=1;exitX=0;exitY=0.333;exitDx=0;exitDy=0;exitPerimeter=0;" edge="1" parent="1" source="K2wxsSiZ7sVS6gFU4XEO-113">
          <mxGeometry width="50" height="50" relative="1" as="geometry">
            <mxPoint x="880" y="1600" as="sourcePoint" />
            <mxPoint x="850" y="1570" as="targetPoint" />
          </mxGeometry>
        </mxCell>
        <mxCell id="K2wxsSiZ7sVS6gFU4XEO-115" value="" style="endArrow=none;html=1;exitX=-0.007;exitY=0.667;exitDx=0;exitDy=0;exitPerimeter=0;" edge="1" parent="1" source="K2wxsSiZ7sVS6gFU4XEO-113">
          <mxGeometry width="50" height="50" relative="1" as="geometry">
            <mxPoint x="729.9999999999995" y="1610" as="sourcePoint" />
            <mxPoint x="850" y="1610.04" as="targetPoint" />
          </mxGeometry>
        </mxCell>
        <mxCell id="K2wxsSiZ7sVS6gFU4XEO-116" value="+addChild()&lt;br&gt;+backgroundProcess()" style="text;html=1;strokeColor=none;fillColor=none;align=center;verticalAlign=middle;whiteSpace=wrap;rounded=0;fontSize=16;" vertex="1" parent="1">
          <mxGeometry x="725" y="1610" width="90" height="40" as="geometry" />
        </mxCell>
        <mxCell id="K2wxsSiZ7sVS6gFU4XEO-117" value="Container" style="text;html=1;strokeColor=none;fillColor=none;align=center;verticalAlign=middle;whiteSpace=wrap;rounded=0;fontSize=16;" vertex="1" parent="1">
          <mxGeometry x="740" y="1530" width="60" height="40" as="geometry" />
        </mxCell>
        <mxCell id="K2wxsSiZ7sVS6gFU4XEO-118" value="" style="endArrow=block;html=1;fontSize=16;entryX=0;entryY=0.5;entryDx=0;entryDy=0;exitX=0.64;exitY=-0.07;exitDx=0;exitDy=0;exitPerimeter=0;endFill=0;" edge="1" parent="1" source="K2wxsSiZ7sVS6gFU4XEO-82" target="K2wxsSiZ7sVS6gFU4XEO-113">
          <mxGeometry width="50" height="50" relative="1" as="geometry">
            <mxPoint x="630" y="1670" as="sourcePoint" />
            <mxPoint x="680" y="1620" as="targetPoint" />
            <Array as="points">
              <mxPoint x="670" y="1590" />
            </Array>
          </mxGeometry>
        </mxCell>
        <mxCell id="K2wxsSiZ7sVS6gFU4XEO-119" value="" style="endArrow=none;html=1;fontSize=16;entryX=0.167;entryY=0;entryDx=0;entryDy=0;entryPerimeter=0;exitX=0.807;exitY=-0.01;exitDx=0;exitDy=0;exitPerimeter=0;" edge="1" parent="1" source="K2wxsSiZ7sVS6gFU4XEO-112" target="K2wxsSiZ7sVS6gFU4XEO-106">
          <mxGeometry width="50" height="50" relative="1" as="geometry">
            <mxPoint x="740" y="1900" as="sourcePoint" />
            <mxPoint x="790" y="1850" as="targetPoint" />
            <Array as="points">
              <mxPoint x="678" y="1850" />
              <mxPoint x="760" y="1850" />
              <mxPoint x="840" y="1850" />
            </Array>
          </mxGeometry>
        </mxCell>
        <mxCell id="K2wxsSiZ7sVS6gFU4XEO-120" value="" style="endArrow=block;html=1;fontSize=16;entryX=0.393;entryY=1.03;entryDx=0;entryDy=0;entryPerimeter=0;endFill=0;" edge="1" parent="1" target="K2wxsSiZ7sVS6gFU4XEO-116">
          <mxGeometry width="50" height="50" relative="1" as="geometry">
            <mxPoint x="760" y="1850" as="sourcePoint" />
            <mxPoint x="780" y="1660" as="targetPoint" />
          </mxGeometry>
        </mxCell>
        <mxCell id="K2wxsSiZ7sVS6gFU4XEO-121" value="" style="rounded=0;whiteSpace=wrap;html=1;" vertex="1" parent="1">
          <mxGeometry x="440" y="1240" width="240" height="160" as="geometry" />
        </mxCell>
        <mxCell id="K2wxsSiZ7sVS6gFU4XEO-122" value="" style="endArrow=none;html=1;exitX=0;exitY=0.25;exitDx=0;exitDy=0;entryX=1;entryY=0.25;entryDx=0;entryDy=0;" edge="1" parent="1" source="K2wxsSiZ7sVS6gFU4XEO-121" target="K2wxsSiZ7sVS6gFU4XEO-121">
          <mxGeometry width="50" height="50" relative="1" as="geometry">
            <mxPoint x="590" y="1350" as="sourcePoint" />
            <mxPoint x="559.9999999999995" y="1319.9999999999998" as="targetPoint" />
          </mxGeometry>
        </mxCell>
        <mxCell id="K2wxsSiZ7sVS6gFU4XEO-123" value="" style="endArrow=none;html=1;entryX=1;entryY=0.413;entryDx=0;entryDy=0;entryPerimeter=0;" edge="1" parent="1" target="K2wxsSiZ7sVS6gFU4XEO-121">
          <mxGeometry width="50" height="50" relative="1" as="geometry">
            <mxPoint x="440" y="1305.9999999999998" as="sourcePoint" />
            <mxPoint x="559.9999999999995" y="1360.04" as="targetPoint" />
          </mxGeometry>
        </mxCell>
        <mxCell id="K2wxsSiZ7sVS6gFU4XEO-124" value="+init()&lt;br&gt;+start()&lt;br&gt;+destory()&lt;br&gt;+addLifecycleListener()&lt;br&gt;+removeLifecycleListener()" style="text;html=1;strokeColor=none;fillColor=none;align=center;verticalAlign=middle;whiteSpace=wrap;rounded=0;fontSize=16;" vertex="1" parent="1">
          <mxGeometry x="450" y="1340" width="220" height="30" as="geometry" />
        </mxCell>
        <mxCell id="K2wxsSiZ7sVS6gFU4XEO-125" value="Server" style="text;html=1;strokeColor=none;fillColor=none;align=center;verticalAlign=middle;whiteSpace=wrap;rounded=0;fontSize=16;" vertex="1" parent="1">
          <mxGeometry x="520" y="1240" width="60" height="40" as="geometry" />
        </mxCell>
        <mxCell id="K2wxsSiZ7sVS6gFU4XEO-126" value="" style="endArrow=block;html=1;fontSize=16;entryX=0;entryY=0.5;entryDx=0;entryDy=0;endFill=0;" edge="1" parent="1" target="K2wxsSiZ7sVS6gFU4XEO-121">
          <mxGeometry width="50" height="50" relative="1" as="geometry">
            <mxPoint x="300" y="1718.8000000000002" as="sourcePoint" />
            <mxPoint x="300.3699999999999" y="1520" as="targetPoint" />
            <Array as="points">
              <mxPoint x="300" y="1320" />
            </Array>
          </mxGeometry>
        </mxCell>
        <mxCell id="K2wxsSiZ7sVS6gFU4XEO-127" value="" style="endArrow=block;html=1;fontSize=16;entryX=1;entryY=0.5;entryDx=0;entryDy=0;endFill=0;" edge="1" parent="1" target="K2wxsSiZ7sVS6gFU4XEO-121">
          <mxGeometry width="50" height="50" relative="1" as="geometry">
            <mxPoint x="760" y="1530" as="sourcePoint" />
            <mxPoint x="760.3699999999999" y="1331.2" as="targetPoint" />
            <Array as="points">
              <mxPoint x="760" y="1320" />
            </Array>
          </mxGeometry>
        </mxCell>
        <mxCell id="K2wxsSiZ7sVS6gFU4XEO-128" value="" style="endArrow=none;html=1;" edge="1" parent="1">
          <mxGeometry width="50" height="50" relative="1" as="geometry">
            <mxPoint x="560" y="1630" as="sourcePoint" />
            <mxPoint x="710" y="1320" as="targetPoint" />
            <Array as="points">
              <mxPoint x="710" y="1490" />
            </Array>
          </mxGeometry>
        </mxCell>
        <mxCell id="K2wxsSiZ7sVS6gFU4XEO-129" value="" style="endArrow=block;html=1;fontSize=16;entryX=0.393;entryY=1.03;entryDx=0;entryDy=0;entryPerimeter=0;endFill=0;" edge="1" parent="1">
          <mxGeometry width="50" height="50" relative="1" as="geometry">
            <mxPoint x="510" y="1440" as="sourcePoint" />
            <mxPoint x="510.3699999999999" y="1400" as="targetPoint" />
          </mxGeometry>
        </mxCell>
        <mxCell id="K2wxsSiZ7sVS6gFU4XEO-150" style="edgeStyle=orthogonalEdgeStyle;rounded=0;orthogonalLoop=1;jettySize=auto;html=1;entryX=1.019;entryY=0.415;entryDx=0;entryDy=0;entryPerimeter=0;fontSize=16;" edge="1" parent="1" source="K2wxsSiZ7sVS6gFU4XEO-140" target="K2wxsSiZ7sVS6gFU4XEO-113">
          <mxGeometry relative="1" as="geometry" />
        </mxCell>
        <mxCell id="K2wxsSiZ7sVS6gFU4XEO-140" value="" style="rounded=0;whiteSpace=wrap;html=1;" vertex="1" parent="1">
          <mxGeometry x="960" y="1520" width="120" height="120" as="geometry" />
        </mxCell>
        <mxCell id="K2wxsSiZ7sVS6gFU4XEO-141" value="" style="endArrow=none;html=1;exitX=0;exitY=0.333;exitDx=0;exitDy=0;exitPerimeter=0;" edge="1" parent="1" source="K2wxsSiZ7sVS6gFU4XEO-140">
          <mxGeometry width="50" height="50" relative="1" as="geometry">
            <mxPoint x="1110" y="1590" as="sourcePoint" />
            <mxPoint x="1080" y="1560" as="targetPoint" />
          </mxGeometry>
        </mxCell>
        <mxCell id="K2wxsSiZ7sVS6gFU4XEO-142" value="" style="endArrow=none;html=1;exitX=0;exitY=0.333;exitDx=0;exitDy=0;exitPerimeter=0;" edge="1" parent="1">
          <mxGeometry width="50" height="50" relative="1" as="geometry">
            <mxPoint x="960" y="1600" as="sourcePoint" />
            <mxPoint x="1080" y="1600.04" as="targetPoint" />
          </mxGeometry>
        </mxCell>
        <mxCell id="K2wxsSiZ7sVS6gFU4XEO-143" value="" style="edgeStyle=orthogonalEdgeStyle;rounded=0;orthogonalLoop=1;jettySize=auto;html=1;" edge="1" parent="1" source="K2wxsSiZ7sVS6gFU4XEO-144" target="K2wxsSiZ7sVS6gFU4XEO-140">
          <mxGeometry relative="1" as="geometry" />
        </mxCell>
        <mxCell id="K2wxsSiZ7sVS6gFU4XEO-144" value="" style="rounded=0;whiteSpace=wrap;html=1;" vertex="1" parent="1">
          <mxGeometry x="1160" y="1520" width="120" height="120" as="geometry" />
        </mxCell>
        <mxCell id="K2wxsSiZ7sVS6gFU4XEO-145" value="" style="endArrow=none;html=1;exitX=0;exitY=0.333;exitDx=0;exitDy=0;exitPerimeter=0;" edge="1" parent="1" source="K2wxsSiZ7sVS6gFU4XEO-144">
          <mxGeometry width="50" height="50" relative="1" as="geometry">
            <mxPoint x="1310" y="1590" as="sourcePoint" />
            <mxPoint x="1280" y="1560" as="targetPoint" />
          </mxGeometry>
        </mxCell>
        <mxCell id="K2wxsSiZ7sVS6gFU4XEO-146" value="" style="endArrow=none;html=1;exitX=0;exitY=0.333;exitDx=0;exitDy=0;exitPerimeter=0;" edge="1" parent="1">
          <mxGeometry width="50" height="50" relative="1" as="geometry">
            <mxPoint x="1160" y="1600" as="sourcePoint" />
            <mxPoint x="1280" y="1600.04" as="targetPoint" />
          </mxGeometry>
        </mxCell>
        <mxCell id="K2wxsSiZ7sVS6gFU4XEO-147" value="Pipeline" style="text;html=1;strokeColor=none;fillColor=none;align=center;verticalAlign=middle;whiteSpace=wrap;rounded=0;fontSize=16;" vertex="1" parent="1">
          <mxGeometry x="1000" y="1530" width="40" height="20" as="geometry" />
        </mxCell>
        <mxCell id="K2wxsSiZ7sVS6gFU4XEO-148" value="Valve" style="text;html=1;strokeColor=none;fillColor=none;align=center;verticalAlign=middle;whiteSpace=wrap;rounded=0;fontSize=16;" vertex="1" parent="1">
          <mxGeometry x="1200" y="1530" width="40" height="20" as="geometry" />
        </mxCell>
        <mxCell id="K2wxsSiZ7sVS6gFU4XEO-151" style="edgeStyle=orthogonalEdgeStyle;rounded=0;orthogonalLoop=1;jettySize=auto;html=1;entryX=1.019;entryY=0.415;entryDx=0;entryDy=0;entryPerimeter=0;fontSize=16;" edge="1" parent="1" source="K2wxsSiZ7sVS6gFU4XEO-152">
          <mxGeometry relative="1" as="geometry">
            <mxPoint x="2933.04" y="1059.7999999999997" as="targetPoint" />
          </mxGeometry>
        </mxCell>
        <mxCell id="K2wxsSiZ7sVS6gFU4XEO-152" value="" style="rounded=0;whiteSpace=wrap;html=1;" vertex="1" parent="1">
          <mxGeometry x="3040" y="1000" width="120" height="120" as="geometry" />
        </mxCell>
        <mxCell id="K2wxsSiZ7sVS6gFU4XEO-153" value="" style="endArrow=none;html=1;exitX=0;exitY=0.333;exitDx=0;exitDy=0;exitPerimeter=0;" edge="1" parent="1" source="K2wxsSiZ7sVS6gFU4XEO-152">
          <mxGeometry width="50" height="50" relative="1" as="geometry">
            <mxPoint x="3190" y="1070" as="sourcePoint" />
            <mxPoint x="3160" y="1040" as="targetPoint" />
          </mxGeometry>
        </mxCell>
        <mxCell id="K2wxsSiZ7sVS6gFU4XEO-154" value="" style="endArrow=none;html=1;exitX=0;exitY=0.333;exitDx=0;exitDy=0;exitPerimeter=0;" edge="1" parent="1">
          <mxGeometry width="50" height="50" relative="1" as="geometry">
            <mxPoint x="3040" y="1080" as="sourcePoint" />
            <mxPoint x="3160" y="1080.04" as="targetPoint" />
          </mxGeometry>
        </mxCell>
        <mxCell id="K2wxsSiZ7sVS6gFU4XEO-155" value="" style="edgeStyle=orthogonalEdgeStyle;rounded=0;orthogonalLoop=1;jettySize=auto;html=1;" edge="1" parent="1" source="K2wxsSiZ7sVS6gFU4XEO-156" target="K2wxsSiZ7sVS6gFU4XEO-152">
          <mxGeometry relative="1" as="geometry" />
        </mxCell>
        <mxCell id="K2wxsSiZ7sVS6gFU4XEO-156" value="" style="rounded=0;whiteSpace=wrap;html=1;" vertex="1" parent="1">
          <mxGeometry x="3240" y="1000" width="120" height="120" as="geometry" />
        </mxCell>
        <mxCell id="K2wxsSiZ7sVS6gFU4XEO-157" value="" style="endArrow=none;html=1;exitX=0;exitY=0.333;exitDx=0;exitDy=0;exitPerimeter=0;" edge="1" parent="1" source="K2wxsSiZ7sVS6gFU4XEO-156">
          <mxGeometry width="50" height="50" relative="1" as="geometry">
            <mxPoint x="3390" y="1070" as="sourcePoint" />
            <mxPoint x="3360" y="1040" as="targetPoint" />
          </mxGeometry>
        </mxCell>
        <mxCell id="K2wxsSiZ7sVS6gFU4XEO-158" value="" style="endArrow=none;html=1;exitX=0;exitY=0.333;exitDx=0;exitDy=0;exitPerimeter=0;" edge="1" parent="1">
          <mxGeometry width="50" height="50" relative="1" as="geometry">
            <mxPoint x="3240" y="1080" as="sourcePoint" />
            <mxPoint x="3360" y="1080.04" as="targetPoint" />
          </mxGeometry>
        </mxCell>
        <mxCell id="K2wxsSiZ7sVS6gFU4XEO-159" value="Pipeline" style="text;html=1;strokeColor=none;fillColor=none;align=center;verticalAlign=middle;whiteSpace=wrap;rounded=0;fontSize=16;" vertex="1" parent="1">
          <mxGeometry x="3080" y="1010" width="40" height="20" as="geometry" />
        </mxCell>
        <mxCell id="K2wxsSiZ7sVS6gFU4XEO-160" value="Valve" style="text;html=1;strokeColor=none;fillColor=none;align=center;verticalAlign=middle;whiteSpace=wrap;rounded=0;fontSize=16;" vertex="1" parent="1">
          <mxGeometry x="3280" y="1010" width="40" height="20" as="geometry" />
        </mxCell>
        <mxCell id="K2wxsSiZ7sVS6gFU4XEO-220" value="" style="edgeStyle=orthogonalEdgeStyle;rounded=0;orthogonalLoop=1;jettySize=auto;html=1;fontSize=16;entryX=1;entryY=0.5;entryDx=0;entryDy=0;" edge="1" parent="1" source="K2wxsSiZ7sVS6gFU4XEO-184" target="K2wxsSiZ7sVS6gFU4XEO-189">
          <mxGeometry relative="1" as="geometry" />
        </mxCell>
        <mxCell id="K2wxsSiZ7sVS6gFU4XEO-184" value="" style="rounded=0;whiteSpace=wrap;html=1;" vertex="1" parent="1">
          <mxGeometry x="480" y="1880" width="80" height="120" as="geometry" />
        </mxCell>
        <mxCell id="K2wxsSiZ7sVS6gFU4XEO-185" value="" style="endArrow=none;html=1;exitX=0;exitY=0.333;exitDx=0;exitDy=0;exitPerimeter=0;" edge="1" parent="1" source="K2wxsSiZ7sVS6gFU4XEO-184">
          <mxGeometry width="50" height="50" relative="1" as="geometry">
            <mxPoint x="590" y="1950" as="sourcePoint" />
            <mxPoint x="560" y="1920" as="targetPoint" />
          </mxGeometry>
        </mxCell>
        <mxCell id="K2wxsSiZ7sVS6gFU4XEO-186" value="" style="endArrow=none;html=1;" edge="1" parent="1">
          <mxGeometry width="50" height="50" relative="1" as="geometry">
            <mxPoint x="480" y="1960" as="sourcePoint" />
            <mxPoint x="560" y="1960.04" as="targetPoint" />
          </mxGeometry>
        </mxCell>
        <mxCell id="K2wxsSiZ7sVS6gFU4XEO-224" style="edgeStyle=orthogonalEdgeStyle;rounded=0;orthogonalLoop=1;jettySize=auto;html=1;fontSize=16;" edge="1" parent="1" source="K2wxsSiZ7sVS6gFU4XEO-188">
          <mxGeometry relative="1" as="geometry">
            <mxPoint x="520" y="1730" as="targetPoint" />
          </mxGeometry>
        </mxCell>
        <mxCell id="K2wxsSiZ7sVS6gFU4XEO-188" value="Mapper" style="text;html=1;strokeColor=none;fillColor=none;align=center;verticalAlign=middle;whiteSpace=wrap;rounded=0;fontSize=16;" vertex="1" parent="1">
          <mxGeometry x="490" y="1880" width="60" height="40" as="geometry" />
        </mxCell>
        <mxCell id="K2wxsSiZ7sVS6gFU4XEO-189" value="" style="rounded=0;whiteSpace=wrap;html=1;" vertex="1" parent="1">
          <mxGeometry x="320" y="1880" width="120" height="120" as="geometry" />
        </mxCell>
        <mxCell id="K2wxsSiZ7sVS6gFU4XEO-190" value="" style="endArrow=none;html=1;exitX=0;exitY=0.333;exitDx=0;exitDy=0;exitPerimeter=0;" edge="1" parent="1" source="K2wxsSiZ7sVS6gFU4XEO-189">
          <mxGeometry width="50" height="50" relative="1" as="geometry">
            <mxPoint x="470" y="1950" as="sourcePoint" />
            <mxPoint x="440" y="1920" as="targetPoint" />
          </mxGeometry>
        </mxCell>
        <mxCell id="K2wxsSiZ7sVS6gFU4XEO-191" value="" style="endArrow=none;html=1;exitX=0;exitY=0.333;exitDx=0;exitDy=0;exitPerimeter=0;" edge="1" parent="1">
          <mxGeometry width="50" height="50" relative="1" as="geometry">
            <mxPoint x="320" y="1960" as="sourcePoint" />
            <mxPoint x="440" y="1960.04" as="targetPoint" />
          </mxGeometry>
        </mxCell>
        <mxCell id="K2wxsSiZ7sVS6gFU4XEO-223" style="edgeStyle=orthogonalEdgeStyle;rounded=0;orthogonalLoop=1;jettySize=auto;html=1;fontSize=16;entryX=0.14;entryY=0.975;entryDx=0;entryDy=0;entryPerimeter=0;" edge="1" parent="1" source="K2wxsSiZ7sVS6gFU4XEO-193" target="K2wxsSiZ7sVS6gFU4XEO-75">
          <mxGeometry relative="1" as="geometry">
            <mxPoint x="470" y="1730" as="targetPoint" />
            <Array as="points">
              <mxPoint x="410" y="1790" />
              <mxPoint x="463" y="1790" />
            </Array>
          </mxGeometry>
        </mxCell>
        <mxCell id="K2wxsSiZ7sVS6gFU4XEO-193" value="MapperListener" style="text;html=1;strokeColor=none;fillColor=none;align=center;verticalAlign=middle;whiteSpace=wrap;rounded=0;fontSize=16;" vertex="1" parent="1">
          <mxGeometry x="350" y="1880" width="60" height="40" as="geometry" />
        </mxCell>
        <mxCell id="K2wxsSiZ7sVS6gFU4XEO-209" style="edgeStyle=orthogonalEdgeStyle;rounded=0;orthogonalLoop=1;jettySize=auto;html=1;entryX=0;entryY=0.5;entryDx=0;entryDy=0;fontSize=16;" edge="1" parent="1" source="K2wxsSiZ7sVS6gFU4XEO-201" target="K2wxsSiZ7sVS6gFU4XEO-83">
          <mxGeometry relative="1" as="geometry">
            <Array as="points">
              <mxPoint x="180" y="1780" />
            </Array>
          </mxGeometry>
        </mxCell>
        <mxCell id="K2wxsSiZ7sVS6gFU4XEO-201" value="" style="rounded=0;whiteSpace=wrap;html=1;" vertex="1" parent="1">
          <mxGeometry x="120" y="1880" width="120" height="120" as="geometry" />
        </mxCell>
        <mxCell id="K2wxsSiZ7sVS6gFU4XEO-202" value="" style="endArrow=none;html=1;exitX=0;exitY=0.333;exitDx=0;exitDy=0;exitPerimeter=0;" edge="1" parent="1" source="K2wxsSiZ7sVS6gFU4XEO-201">
          <mxGeometry width="50" height="50" relative="1" as="geometry">
            <mxPoint x="270" y="1950" as="sourcePoint" />
            <mxPoint x="240" y="1920" as="targetPoint" />
          </mxGeometry>
        </mxCell>
        <mxCell id="K2wxsSiZ7sVS6gFU4XEO-203" value="" style="endArrow=none;html=1;exitX=0;exitY=0.333;exitDx=0;exitDy=0;exitPerimeter=0;" edge="1" parent="1">
          <mxGeometry width="50" height="50" relative="1" as="geometry">
            <mxPoint x="120" y="1960" as="sourcePoint" />
            <mxPoint x="240" y="1960.04" as="targetPoint" />
          </mxGeometry>
        </mxCell>
        <mxCell id="K2wxsSiZ7sVS6gFU4XEO-204" value="MapperListener" style="text;html=1;strokeColor=none;fillColor=none;align=center;verticalAlign=middle;whiteSpace=wrap;rounded=0;fontSize=16;" vertex="1" parent="1">
          <mxGeometry x="150" y="1880" width="60" height="40" as="geometry" />
        </mxCell>
        <mxCell id="K2wxsSiZ7sVS6gFU4XEO-210" value="" style="rounded=0;whiteSpace=wrap;html=1;" vertex="1" parent="1">
          <mxGeometry x="40" y="2080" width="120" height="120" as="geometry" />
        </mxCell>
        <mxCell id="K2wxsSiZ7sVS6gFU4XEO-211" value="" style="endArrow=none;html=1;exitX=0;exitY=0.333;exitDx=0;exitDy=0;exitPerimeter=0;" edge="1" parent="1" source="K2wxsSiZ7sVS6gFU4XEO-210">
          <mxGeometry width="50" height="50" relative="1" as="geometry">
            <mxPoint x="190" y="2150" as="sourcePoint" />
            <mxPoint x="160" y="2120" as="targetPoint" />
          </mxGeometry>
        </mxCell>
        <mxCell id="K2wxsSiZ7sVS6gFU4XEO-212" value="" style="endArrow=none;html=1;exitX=0;exitY=0.333;exitDx=0;exitDy=0;exitPerimeter=0;" edge="1" parent="1">
          <mxGeometry width="50" height="50" relative="1" as="geometry">
            <mxPoint x="40" y="2160" as="sourcePoint" />
            <mxPoint x="160" y="2160.04" as="targetPoint" />
          </mxGeometry>
        </mxCell>
        <mxCell id="K2wxsSiZ7sVS6gFU4XEO-218" style="edgeStyle=orthogonalEdgeStyle;rounded=0;orthogonalLoop=1;jettySize=auto;html=1;entryX=0.333;entryY=1;entryDx=0;entryDy=0;entryPerimeter=0;fontSize=16;" edge="1" parent="1" source="K2wxsSiZ7sVS6gFU4XEO-213" target="K2wxsSiZ7sVS6gFU4XEO-201">
          <mxGeometry relative="1" as="geometry" />
        </mxCell>
        <mxCell id="K2wxsSiZ7sVS6gFU4XEO-213" value="AbstracEndpoint" style="text;html=1;strokeColor=none;fillColor=none;align=center;verticalAlign=middle;whiteSpace=wrap;rounded=0;fontSize=16;" vertex="1" parent="1">
          <mxGeometry x="70" y="2080" width="60" height="40" as="geometry" />
        </mxCell>
        <mxCell id="K2wxsSiZ7sVS6gFU4XEO-229" style="edgeStyle=orthogonalEdgeStyle;rounded=0;orthogonalLoop=1;jettySize=auto;html=1;entryX=0;entryY=0.5;entryDx=0;entryDy=0;fontSize=16;dashed=1;" edge="1" parent="1" source="K2wxsSiZ7sVS6gFU4XEO-214" target="K2wxsSiZ7sVS6gFU4XEO-225">
          <mxGeometry relative="1" as="geometry">
            <Array as="points">
              <mxPoint x="260" y="2300" />
            </Array>
          </mxGeometry>
        </mxCell>
        <mxCell id="K2wxsSiZ7sVS6gFU4XEO-214" value="" style="rounded=0;whiteSpace=wrap;html=1;" vertex="1" parent="1">
          <mxGeometry x="200" y="2080" width="120" height="120" as="geometry" />
        </mxCell>
        <mxCell id="K2wxsSiZ7sVS6gFU4XEO-215" value="" style="endArrow=none;html=1;exitX=0;exitY=0.333;exitDx=0;exitDy=0;exitPerimeter=0;" edge="1" parent="1" source="K2wxsSiZ7sVS6gFU4XEO-214">
          <mxGeometry width="50" height="50" relative="1" as="geometry">
            <mxPoint x="350" y="2150" as="sourcePoint" />
            <mxPoint x="320" y="2120" as="targetPoint" />
          </mxGeometry>
        </mxCell>
        <mxCell id="K2wxsSiZ7sVS6gFU4XEO-216" value="" style="endArrow=none;html=1;exitX=0;exitY=0.333;exitDx=0;exitDy=0;exitPerimeter=0;" edge="1" parent="1">
          <mxGeometry width="50" height="50" relative="1" as="geometry">
            <mxPoint x="200" y="2160" as="sourcePoint" />
            <mxPoint x="320" y="2160.04" as="targetPoint" />
          </mxGeometry>
        </mxCell>
        <mxCell id="K2wxsSiZ7sVS6gFU4XEO-217" value="Processor" style="text;html=1;strokeColor=none;fillColor=none;align=center;verticalAlign=middle;whiteSpace=wrap;rounded=0;fontSize=16;" vertex="1" parent="1">
          <mxGeometry x="230" y="2080" width="60" height="40" as="geometry" />
        </mxCell>
        <mxCell id="K2wxsSiZ7sVS6gFU4XEO-219" style="edgeStyle=orthogonalEdgeStyle;rounded=0;orthogonalLoop=1;jettySize=auto;html=1;entryX=0.5;entryY=0;entryDx=0;entryDy=0;fontSize=16;exitX=0.75;exitY=1;exitDx=0;exitDy=0;dashed=1;" edge="1" parent="1" source="K2wxsSiZ7sVS6gFU4XEO-201" target="K2wxsSiZ7sVS6gFU4XEO-217">
          <mxGeometry relative="1" as="geometry">
            <mxPoint x="220" y="2090" as="sourcePoint" />
            <mxPoint x="279.96000000000004" y="2010" as="targetPoint" />
          </mxGeometry>
        </mxCell>
        <mxCell id="K2wxsSiZ7sVS6gFU4XEO-230" style="edgeStyle=orthogonalEdgeStyle;rounded=0;orthogonalLoop=1;jettySize=auto;html=1;entryX=0.5;entryY=1;entryDx=0;entryDy=0;dashed=1;fontSize=16;" edge="1" parent="1" source="K2wxsSiZ7sVS6gFU4XEO-225" target="K2wxsSiZ7sVS6gFU4XEO-184">
          <mxGeometry relative="1" as="geometry" />
        </mxCell>
        <mxCell id="K2wxsSiZ7sVS6gFU4XEO-231" style="edgeStyle=orthogonalEdgeStyle;rounded=0;orthogonalLoop=1;jettySize=auto;html=1;dashed=1;fontSize=16;entryX=1;entryY=0.5;entryDx=0;entryDy=0;" edge="1" parent="1" source="K2wxsSiZ7sVS6gFU4XEO-225" target="K2wxsSiZ7sVS6gFU4XEO-113">
          <mxGeometry relative="1" as="geometry">
            <mxPoint x="960" y="1780" as="targetPoint" />
            <Array as="points">
              <mxPoint x="940" y="2300" />
              <mxPoint x="940" y="1590" />
            </Array>
          </mxGeometry>
        </mxCell>
        <mxCell id="K2wxsSiZ7sVS6gFU4XEO-225" value="" style="rounded=0;whiteSpace=wrap;html=1;" vertex="1" parent="1">
          <mxGeometry x="400" y="2240" width="120" height="120" as="geometry" />
        </mxCell>
        <mxCell id="K2wxsSiZ7sVS6gFU4XEO-226" value="" style="endArrow=none;html=1;exitX=0;exitY=0.333;exitDx=0;exitDy=0;exitPerimeter=0;" edge="1" parent="1" source="K2wxsSiZ7sVS6gFU4XEO-225">
          <mxGeometry width="50" height="50" relative="1" as="geometry">
            <mxPoint x="550" y="2310" as="sourcePoint" />
            <mxPoint x="520" y="2280" as="targetPoint" />
          </mxGeometry>
        </mxCell>
        <mxCell id="K2wxsSiZ7sVS6gFU4XEO-227" value="" style="endArrow=none;html=1;exitX=0;exitY=0.333;exitDx=0;exitDy=0;exitPerimeter=0;" edge="1" parent="1">
          <mxGeometry width="50" height="50" relative="1" as="geometry">
            <mxPoint x="400" y="2320" as="sourcePoint" />
            <mxPoint x="520" y="2320.04" as="targetPoint" />
          </mxGeometry>
        </mxCell>
        <mxCell id="K2wxsSiZ7sVS6gFU4XEO-228" value="CoyoteApapter" style="text;html=1;strokeColor=none;fillColor=none;align=center;verticalAlign=middle;whiteSpace=wrap;rounded=0;fontSize=16;" vertex="1" parent="1">
          <mxGeometry x="430" y="2240" width="60" height="40" as="geometry" />
        </mxCell>
      </root>
    </mxGraphModel>
  </diagram>
</mxfile>
